STARTFONT 2.1
COMMENT
COMMENT Shinonome 12dot font for JISX 0208, 1983/1990, Marumoji Style
COMMENT
COMMENT The original is designed by
COMMENT   Yasuyuki Furukawa <Furukawa.Yasuyuki@fujixerox.co.jp>, 2000.
COMMENT   (Public Domain)
COMMENT
COMMENT Modified and Maintained by /efont/.
COMMENT
COMMENT (c) /efont/ -- Efont Open Laboratory 2001
COMMENT http://openlab.ring.gr.jp/efont/
COMMENT
FONT -Shinonome-Marumoji-Bold-R-Normal--12-110-75-75-C-120-JISX0208.1990-0
SIZE 12 75 75
FONTBOUNDINGBOX 12 12 0 -2
STARTPROPERTIES 20
FONTNAME_REGISTRY ""
FOUNDRY "Shinonome"
FAMILY_NAME "Marumoji"
WEIGHT_NAME "Bold"
SLANT "R"
SETWIDTH_NAME "Normal"
ADD_STYLE_NAME ""
PIXEL_SIZE 12
POINT_SIZE 110
RESOLUTION_X 75
RESOLUTION_Y 75
SPACING "C"
AVERAGE_WIDTH 120
CHARSET_REGISTRY "JISX0208.1990"
CHARSET_ENCODING "0"
COPYRIGHT "Public Domain"
DEFAULT_CHAR 8481
FONT_ASCENT 10
FONT_DESCENT 2
_XMBDFED_INFO "Edited with xmbdfed 4.4."
ENDPROPERTIES
CHARS 6879
STARTCHAR 2121
ENCODING 8481
SWIDTH 960 0
DWIDTH 12 0
BBX 12 12 0 -2
BITMAP
0000
0000
0000
0000
0000
0000
0000
0000
0000
0000
0000
0000
ENDCHAR
STARTCHAR 2122
ENCODING 8482
SWIDTH 960 0
DWIDTH 12 0
BBX 12 12 0 -2
BITMAP
0000
0000
0000
0000
0000
0000
0000
0000
0000
6000
3000
3000
ENDCHAR
STARTCHAR 2123
ENCODING 8483
SWIDTH 960 0
DWIDTH 12 0
BBX 12 12 0 -2
BITMAP
0000
0000
0000
0000
0000
0000
0000
0000
3800
6c00
6c00
3800
ENDCHAR
STARTCHAR 2124
ENCODING 8484
SWIDTH 960 0
DWIDTH 12 0
BBX 12 12 0 -2
BITMAP
0000
0000
0000
0000
0000
0000
0000
0000
0000
3000
3000
6000
ENDCHAR
STARTCHAR 2125
ENCODING 8485
SWIDTH 960 0
DWIDTH 12 0
BBX 12 12 0 -2
BITMAP
0000
0000
0000
0000
0000
0000
0000
0000
0000
7000
7000
0000
ENDCHAR
STARTCHAR 2126
ENCODING 8486
SWIDTH 960 0
DWIDTH 12 0
BBX 12 12 0 -2
BITMAP
0000
0000
0000
0000
0000
0700
0700
0000
0000
0000
0000
0000
ENDCHAR
STARTCHAR 2127
ENCODING 8487
SWIDTH 960 0
DWIDTH 12 0
BBX 12 12 0 -2
BITMAP
0000
0000
0000
0600
0600
0000
0000
0000
0600
0600
0000
0000
ENDCHAR
STARTCHAR 2128
ENCODING 8488
SWIDTH 960 0
DWIDTH 12 0
BBX 12 12 0 -2
BITMAP
0000
0000
0000
0600
0600
0000
0000
0000
0600
0600
0c00
0000
ENDCHAR
STARTCHAR 2129
ENCODING 8489
SWIDTH 960 0
DWIDTH 12 0
BBX 12 12 0 -2
BITMAP
0000
1f80
30c0
30c0
1980
0300
0600
0600
0e00
1b00
0e00
0000
ENDCHAR
STARTCHAR 212a
ENCODING 8490
SWIDTH 960 0
DWIDTH 12 0
BBX 12 12 0 -2
BITMAP
0000
0180
0180
0300
0300
0600
0600
0000
0e00
1b00
0e00
0000
ENDCHAR
STARTCHAR 212b
ENCODING 8491
SWIDTH 960 0
DWIDTH 12 0
BBX 12 12 0 -2
BITMAP
3000
d800
6800
6000
0000
0000
0000
0000
0000
0000
0000
0000
ENDCHAR
STARTCHAR 212c
ENCODING 8492
SWIDTH 960 0
DWIDTH 12 0
BBX 12 12 0 -2
BITMAP
0000
6000
d000
d000
6000
0000
0000
0000
0000
0000
0000
0000
ENDCHAR
STARTCHAR 212d
ENCODING 8493
SWIDTH 960 0
DWIDTH 12 0
BBX 12 12 0 -2
BITMAP
0300
0600
0c00
0000
0000
0000
0000
0000
0000
0000
0000
0000
ENDCHAR
STARTCHAR 212e
ENCODING 8494
SWIDTH 960 0
DWIDTH 12 0
BBX 12 12 0 -2
BITMAP
0c00
0600
0300
0000
0000
0000
0000
0000
0000
0000
0000
0000
ENDCHAR
STARTCHAR 212f
ENCODING 8495
SWIDTH 960 0
DWIDTH 12 0
BBX 12 12 0 -2
BITMAP
1dc0
1dc0
0000
0000
0000
0000
0000
0000
0000
0000
0000
0000
ENDCHAR
STARTCHAR 2130
ENCODING 8496
SWIDTH 960 0
DWIDTH 12 0
BBX 12 12 0 -2
BITMAP
0300
0680
0cc0
0000
0000
0000
0000
0000
0000
0000
0000
0000
ENDCHAR
STARTCHAR 2131
ENCODING 8497
SWIDTH 960 0
DWIDTH 12 0
BBX 12 12 0 -2
BITMAP
fff8
0000
0000
0000
0000
0000
0000
0000
0000
0000
0000
0000
ENDCHAR
STARTCHAR 2132
ENCODING 8498
SWIDTH 960 0
DWIDTH 12 0
BBX 12 12 0 -2
BITMAP
0000
0000
0000
0000
0000
0000
0000
0000
0000
0000
0000
fff8
ENDCHAR
STARTCHAR 2133
ENCODING 8499
SWIDTH 960 0
DWIDTH 12 0
BBX 12 12 0 -2
BITMAP
0000
0000
0000
0000
0000
3800
0e00
0300
0180
0000
0000
0000
ENDCHAR
STARTCHAR 2134
ENCODING 8500
SWIDTH 960 0
DWIDTH 12 0
BBX 12 12 0 -2
BITMAP
0000
0000
0180
06c0
0300
3800
0e00
0300
0180
0000
0000
0000
ENDCHAR
STARTCHAR 2135
ENCODING 8501
SWIDTH 960 0
DWIDTH 12 0
BBX 12 12 0 -2
BITMAP
0000
0000
0000
0000
1c00
0700
0180
03c0
0600
0000
0000
0000
ENDCHAR
STARTCHAR 2136
ENCODING 8502
SWIDTH 960 0
DWIDTH 12 0
BBX 12 12 0 -2
BITMAP
0000
0180
06c0
0300
3800
0e00
0300
0780
0c00
0000
0000
0000
ENDCHAR
STARTCHAR 2137
ENCODING 8503
SWIDTH 960 0
DWIDTH 12 0
BBX 12 12 0 -2
BITMAP
0000
0000
0000
0d80
0d80
0d80
1b00
1b00
3600
0000
0000
0000
ENDCHAR
STARTCHAR 2138
ENCODING 8504
SWIDTH 960 0
DWIDTH 12 0
BBX 12 12 0 -2
BITMAP
0600
0600
0d00
1980
30c0
e070
3fc0
0600
0600
0600
0600
fff0
ENDCHAR
STARTCHAR 2139
ENCODING 8505
SWIDTH 960 0
DWIDTH 12 0
BBX 12 12 0 -2
BITMAP
0000
0000
0c00
0fc0
0cc0
1980
3180
6d00
0700
0180
00c0
0000
ENDCHAR
STARTCHAR 213a
ENCODING 8506
SWIDTH 960 0
DWIDTH 12 0
BBX 12 12 0 -2
BITMAP
0000
0060
0060
00c0
0180
1d00
3700
6d80
6800
7000
0000
0000
ENDCHAR
STARTCHAR 213b
ENCODING 8507
SWIDTH 960 0
DWIDTH 12 0
BBX 12 12 0 -2
BITMAP
0000
0f00
39c0
6060
6060
c030
c030
c030
6060
6060
39c0
0f00
ENDCHAR
STARTCHAR 213c
ENCODING 8508
SWIDTH 960 0
DWIDTH 12 0
BBX 12 12 0 -2
BITMAP
0000
0000
0000
0000
0000
1ee0
7380
0000
0000
0000
0000
0000
ENDCHAR
STARTCHAR 213d
ENCODING 8509
SWIDTH 960 0
DWIDTH 12 0
BBX 12 12 0 -2
BITMAP
0000
0000
0000
0000
0000
0000
fff8
0000
0000
0000
0000
0000
ENDCHAR
STARTCHAR 213e
ENCODING 8510
SWIDTH 960 0
DWIDTH 12 0
BBX 12 12 0 -2
BITMAP
0000
0000
0000
0000
0000
0000
0f80
0000
0000
0000
0000
0000
ENDCHAR
STARTCHAR 213f
ENCODING 8511
SWIDTH 960 0
DWIDTH 12 0
BBX 12 12 0 -2
BITMAP
0018
0030
0060
00c0
0180
0300
0600
0c00
1800
3000
6000
c000
ENDCHAR
STARTCHAR 2140
ENCODING 8512
SWIDTH 960 0
DWIDTH 12 0
BBX 12 12 0 -2
BITMAP
c000
6000
3000
1800
0c00
0600
0300
0180
00c0
0060
0030
0018
ENDCHAR
STARTCHAR 2141
ENCODING 8513
SWIDTH 960 0
DWIDTH 12 0
BBX 12 12 0 -2
BITMAP
0000
0000
0000
0000
0000
7770
1dc0
0000
0000
0000
0000
0000
ENDCHAR
STARTCHAR 2142
ENCODING 8514
SWIDTH 960 0
DWIDTH 12 0
BBX 12 12 0 -2
BITMAP
0d80
0d80
0d80
0d80
0d80
0d80
0d80
0d80
0d80
0d80
0d80
0d80
ENDCHAR
STARTCHAR 2143
ENCODING 8515
SWIDTH 960 0
DWIDTH 12 0
BBX 12 12 0 -2
BITMAP
0300
0300
0300
0300
0300
0300
0300
0300
0300
0300
0300
0300
ENDCHAR
STARTCHAR 2144
ENCODING 8516
SWIDTH 960 0
DWIDTH 12 0
BBX 12 12 0 -2
BITMAP
0000
0000
0000
0000
0000
6660
6660
0000
0000
0000
0000
0000
ENDCHAR
STARTCHAR 2145
ENCODING 8517
SWIDTH 960 0
DWIDTH 12 0
BBX 12 12 0 -2
BITMAP
0000
0000
0000
0000
0000
30c0
30c0
0000
0000
0000
0000
0000
ENDCHAR
STARTCHAR 2146
ENCODING 8518
SWIDTH 960 0
DWIDTH 12 0
BBX 12 12 0 -2
BITMAP
0030
0060
0060
0070
0000
0000
0000
0000
0000
0000
0000
0000
ENDCHAR
STARTCHAR 2147
ENCODING 8519
SWIDTH 960 0
DWIDTH 12 0
BBX 12 12 0 -2
BITMAP
3800
1800
1800
3000
0000
0000
0000
0000
0000
0000
0000
0000
ENDCHAR
STARTCHAR 2148
ENCODING 8520
SWIDTH 960 0
DWIDTH 12 0
BBX 12 12 0 -2
BITMAP
01b0
0360
0360
03b0
0000
0000
0000
0000
0000
0000
0000
0000
ENDCHAR
STARTCHAR 2149
ENCODING 8521
SWIDTH 960 0
DWIDTH 12 0
BBX 12 12 0 -2
BITMAP
7600
3600
3600
6c00
0000
0000
0000
0000
0000
0000
0000
0000
ENDCHAR
STARTCHAR 214a
ENCODING 8522
SWIDTH 960 0
DWIDTH 12 0
BBX 12 12 0 -2
BITMAP
0060
00c0
0180
0180
0300
0300
0300
0300
0180
0180
00c0
0060
ENDCHAR
STARTCHAR 214b
ENCODING 8523
SWIDTH 960 0
DWIDTH 12 0
BBX 12 12 0 -2
BITMAP
3000
1800
0c00
0c00
0600
0600
0600
0600
0c00
0c00
1800
3000
ENDCHAR
STARTCHAR 214c
ENCODING 8524
SWIDTH 960 0
DWIDTH 12 0
BBX 12 12 0 -2
BITMAP
00e0
0380
0300
0300
0300
0300
0300
0300
0300
0300
0380
00e0
ENDCHAR
STARTCHAR 214d
ENCODING 8525
SWIDTH 960 0
DWIDTH 12 0
BBX 12 12 0 -2
BITMAP
3800
0e00
0600
0600
0600
0600
0600
0600
0600
0600
0e00
3800
ENDCHAR
STARTCHAR 214e
ENCODING 8526
SWIDTH 960 0
DWIDTH 12 0
BBX 12 12 0 -2
BITMAP
03e0
0300
0300
0300
0300
0300
0300
0300
0300
0300
0300
03e0
ENDCHAR
STARTCHAR 214f
ENCODING 8527
SWIDTH 960 0
DWIDTH 12 0
BBX 12 12 0 -2
BITMAP
3e00
0600
0600
0600
0600
0600
0600
0600
0600
0600
0600
3e00
ENDCHAR
STARTCHAR 2150
ENCODING 8528
SWIDTH 960 0
DWIDTH 12 0
BBX 12 12 0 -2
BITMAP
0060
00c0
00c0
00c0
00c0
0180
00c0
00c0
00c0
00c0
00c0
0060
ENDCHAR
STARTCHAR 2151
ENCODING 8529
SWIDTH 960 0
DWIDTH 12 0
BBX 12 12 0 -2
BITMAP
3000
1800
1800
1800
1800
0c00
1800
1800
1800
1800
1800
3000
ENDCHAR
STARTCHAR 2152
ENCODING 8530
SWIDTH 960 0
DWIDTH 12 0
BBX 12 12 0 -2
BITMAP
0060
00c0
00c0
0180
0180
0300
0300
0180
0180
00c0
00c0
0060
ENDCHAR
STARTCHAR 2153
ENCODING 8531
SWIDTH 960 0
DWIDTH 12 0
BBX 12 12 0 -2
BITMAP
3000
1800
1800
0c00
0c00
0600
0600
0c00
0c00
1800
1800
3000
ENDCHAR
STARTCHAR 2154
ENCODING 8532
SWIDTH 960 0
DWIDTH 12 0
BBX 12 12 0 -2
BITMAP
0360
06c0
06c0
0d80
0d80
1b00
1b00
0d80
0d80
06c0
06c0
0360
ENDCHAR
STARTCHAR 2155
ENCODING 8533
SWIDTH 960 0
DWIDTH 12 0
BBX 12 12 0 -2
BITMAP
3600
1b00
1b00
0d80
0d80
06c0
06c0
0d80
0d80
1b00
1b00
3600
ENDCHAR
STARTCHAR 2156
ENCODING 8534
SWIDTH 960 0
DWIDTH 12 0
BBX 12 12 0 -2
BITMAP
01f0
0300
0600
0600
0600
0600
0000
0000
0000
0000
0000
0000
ENDCHAR
STARTCHAR 2157
ENCODING 8535
SWIDTH 960 0
DWIDTH 12 0
BBX 12 12 0 -2
BITMAP
0000
0000
0000
0000
0000
0000
0600
0600
0600
0600
0600
7c00
ENDCHAR
STARTCHAR 2158
ENCODING 8536
SWIDTH 960 0
DWIDTH 12 0
BBX 12 12 0 -2
BITMAP
07e0
0c30
0de0
0d80
0d80
0d80
0700
0000
0000
0000
0000
0000
ENDCHAR
STARTCHAR 2159
ENCODING 8537
SWIDTH 960 0
DWIDTH 12 0
BBX 12 12 0 -2
BITMAP
0000
0000
0000
0000
0000
0700
0d80
0d80
0d80
3d80
6180
3f00
ENDCHAR
STARTCHAR 215a
ENCODING 8538
SWIDTH 960 0
DWIDTH 12 0
BBX 12 12 0 -2
BITMAP
03e0
03c0
03c0
0380
0380
0380
0380
0380
0380
03c0
03c0
03e0
ENDCHAR
STARTCHAR 215b
ENCODING 8539
SWIDTH 960 0
DWIDTH 12 0
BBX 12 12 0 -2
BITMAP
3e00
1e00
1e00
0e00
0e00
0e00
0e00
0e00
0e00
1e00
1e00
3e00
ENDCHAR
STARTCHAR 215c
ENCODING 8540
SWIDTH 960 0
DWIDTH 12 0
BBX 12 12 0 -2
BITMAP
0000
0600
0600
0600
0600
7fe0
0600
0600
0600
0600
0000
0000
ENDCHAR
STARTCHAR 215d
ENCODING 8541
SWIDTH 960 0
DWIDTH 12 0
BBX 12 12 0 -2
BITMAP
0000
0000
0000
0000
0000
3fe0
0000
0000
0000
0000
0000
0000
ENDCHAR
STARTCHAR 215e
ENCODING 8542
SWIDTH 960 0
DWIDTH 12 0
BBX 12 12 0 -2
BITMAP
0000
0600
0600
0600
0600
7fe0
0600
0600
0600
0000
7fe0
0000
ENDCHAR
STARTCHAR 215f
ENCODING 8543
SWIDTH 960 0
DWIDTH 12 0
BBX 12 12 0 -2
BITMAP
0000
0000
3060
18c0
0d80
0700
0700
0d80
18c0
3060
0000
0000
ENDCHAR
STARTCHAR 2160
ENCODING 8544
SWIDTH 960 0
DWIDTH 12 0
BBX 12 12 0 -2
BITMAP
0000
0000
0e00
0e00
0000
0000
7fe0
0000
0000
0e00
0e00
0000
ENDCHAR
STARTCHAR 2161
ENCODING 8545
SWIDTH 960 0
DWIDTH 12 0
BBX 12 12 0 -2
BITMAP
0000
0000
0000
0000
7fe0
0000
0000
7fe0
0000
0000
0000
0000
ENDCHAR
STARTCHAR 2162
ENCODING 8546
SWIDTH 960 0
DWIDTH 12 0
BBX 12 12 0 -2
BITMAP
0000
0180
0180
0300
7fe0
0600
0600
7fe0
0c00
1800
1800
0000
ENDCHAR
STARTCHAR 2163
ENCODING 8547
SWIDTH 960 0
DWIDTH 12 0
BBX 12 12 0 -2
BITMAP
0000
00e0
0380
0e00
3800
6000
3800
0e00
0380
00e0
0000
0000
ENDCHAR
STARTCHAR 2164
ENCODING 8548
SWIDTH 960 0
DWIDTH 12 0
BBX 12 12 0 -2
BITMAP
0000
7000
1c00
0700
01c0
0060
01c0
0700
1c00
7000
0000
0000
ENDCHAR
STARTCHAR 2165
ENCODING 8549
SWIDTH 960 0
DWIDTH 12 0
BBX 12 12 0 -2
BITMAP
0000
0070
03c0
1e00
7000
1e00
03c0
0070
7ff0
0000
7ff0
0000
ENDCHAR
STARTCHAR 2166
ENCODING 8550
SWIDTH 960 0
DWIDTH 12 0
BBX 12 12 0 -2
BITMAP
0000
7000
1e00
03c0
0070
03c0
1e00
7000
7ff0
0000
7ff0
0000
ENDCHAR
STARTCHAR 2167
ENCODING 8551
SWIDTH 960 0
DWIDTH 12 0
BBX 12 12 0 -2
BITMAP
0000
0000
0000
39c0
6d60
c630
c630
6d60
39c0
0000
0000
0000
ENDCHAR
STARTCHAR 2168
ENCODING 8552
SWIDTH 960 0
DWIDTH 12 0
BBX 12 12 0 -2
BITMAP
0000
0000
0700
0700
0000
0000
0000
0000
38e0
38e0
0000
0000
ENDCHAR
STARTCHAR 2169
ENCODING 8553
SWIDTH 960 0
DWIDTH 12 0
BBX 12 12 0 -2
BITMAP
0000
03f0
0070
00d0
01b0
0330
3e00
6600
6600
6600
3c00
0000
ENDCHAR
STARTCHAR 216a
ENCODING 8554
SWIDTH 960 0
DWIDTH 12 0
BBX 12 12 0 -2
BITMAP
0000
0f00
1980
1980
1980
0f00
0600
0600
3fc0
0600
0600
0600
ENDCHAR
STARTCHAR 216b
ENCODING 8555
SWIDTH 960 0
DWIDTH 12 0
BBX 12 12 0 -2
BITMAP
0000
3800
6c00
6c00
3800
0000
0000
0000
0000
0000
0000
0000
ENDCHAR
STARTCHAR 216c
ENCODING 8556
SWIDTH 960 0
DWIDTH 12 0
BBX 12 12 0 -2
BITMAP
1c00
0c00
0c00
1800
0000
0000
0000
0000
0000
0000
0000
0000
ENDCHAR
STARTCHAR 216d
ENCODING 8557
SWIDTH 960 0
DWIDTH 12 0
BBX 12 12 0 -2
BITMAP
3b00
1b00
1b00
3600
0000
0000
0000
0000
0000
0000
0000
0000
ENDCHAR
STARTCHAR 216e
ENCODING 8558
SWIDTH 960 0
DWIDTH 12 0
BBX 12 12 0 -2
BITMAP
0000
33a0
6ae0
3460
1800
1800
1800
1800
1860
0cc0
0780
0000
ENDCHAR
STARTCHAR 216f
ENCODING 8559
SWIDTH 960 0
DWIDTH 12 0
BBX 12 12 0 -2
BITMAP
0000
6060
6060
31c0
1f00
7fc0
0600
0600
7fe0
0600
0600
0000
ENDCHAR
STARTCHAR 2170
ENCODING 8560
SWIDTH 960 0
DWIDTH 12 0
BBX 12 12 0 -2
BITMAP
0600
1f80
36c0
3600
1a00
0f80
06c0
0660
6660
3ac0
0f80
0600
ENDCHAR
STARTCHAR 2171
ENCODING 8561
SWIDTH 960 0
DWIDTH 12 0
BBX 12 12 0 -2
BITMAP
0000
0000
0000
0300
0f80
1b60
3600
3600
3660
1cc0
0f80
0c00
ENDCHAR
STARTCHAR 2172
ENCODING 8562
SWIDTH 960 0
DWIDTH 12 0
BBX 12 12 0 -2
BITMAP
0000
0780
0cc0
1800
1800
1800
7f00
0c30
3c30
6e60
3bc0
0000
ENDCHAR
STARTCHAR 2173
ENCODING 8563
SWIDTH 960 0
DWIDTH 12 0
BBX 12 12 0 -2
BITMAP
0000
3c30
6660
66c0
3d80
0300
0600
0de0
1b30
3330
61e0
0000
ENDCHAR
STARTCHAR 2174
ENCODING 8564
SWIDTH 960 0
DWIDTH 12 0
BBX 12 12 0 -2
BITMAP
0cc0
0cc0
0cc0
7ff0
1980
1980
1980
1980
ffe0
3300
3300
3300
ENDCHAR
STARTCHAR 2175
ENCODING 8565
SWIDTH 960 0
DWIDTH 12 0
BBX 12 12 0 -2
BITMAP
0000
0f00
1980
3000
3000
1c00
3380
66c0
66c0
3380
1ee0
0000
ENDCHAR
STARTCHAR 2176
ENCODING 8566
SWIDTH 960 0
DWIDTH 12 0
BBX 12 12 0 -2
BITMAP
0000
0000
0000
0600
3ac0
0f00
0600
0f00
3ac0
0600
0000
0000
ENDCHAR
STARTCHAR 2177
ENCODING 8567
SWIDTH 960 0
DWIDTH 12 0
BBX 12 12 0 -2
BITMAP
0000
0f80
18c0
37a0
6cd0
6cd0
6cd0
67a0
3000
1ce0
0780
0000
ENDCHAR
STARTCHAR 2178
ENCODING 8568
SWIDTH 960 0
DWIDTH 12 0
BBX 12 12 0 -2
BITMAP
0f00
1980
1c00
0e00
0f00
1b80
1d80
0f00
0700
0380
1980
0f00
ENDCHAR
STARTCHAR 2179
ENCODING 8569
SWIDTH 960 0
DWIDTH 12 0
BBX 12 12 0 -2
BITMAP
0000
0600
0600
0d00
fdf0
6060
30c0
1980
36c0
3dc0
70e0
0000
ENDCHAR
STARTCHAR 217a
ENCODING 8570
SWIDTH 960 0
DWIDTH 12 0
BBX 12 12 0 -2
BITMAP
0000
0600
0600
0f00
fff0
7fe0
3fc0
1f80
3fc0
3dc0
70e0
0000
ENDCHAR
STARTCHAR 217b
ENCODING 8571
SWIDTH 960 0
DWIDTH 12 0
BBX 12 12 0 -2
BITMAP
0000
0f00
39c0
6060
6060
c030
c030
c030
6060
6060
39c0
0f00
ENDCHAR
STARTCHAR 217c
ENCODING 8572
SWIDTH 960 0
DWIDTH 12 0
BBX 12 12 0 -2
BITMAP
0000
0f00
3fc0
7fe0
7fe0
fff0
fff0
fff0
7fe0
7fe0
3fc0
0f00
ENDCHAR
STARTCHAR 217d
ENCODING 8573
SWIDTH 960 0
DWIDTH 12 0
BBX 12 12 0 -2
BITMAP
0000
0f00
39c0
6f60
69a0
d0d0
d0d0
d0d0
69a0
6f60
39c0
0f00
ENDCHAR
STARTCHAR 217e
ENCODING 8574
SWIDTH 960 0
DWIDTH 12 0
BBX 12 12 0 -2
BITMAP
0000
0600
0d00
1980
30c0
6060
c030
6060
30c0
1980
0d00
0600
ENDCHAR
STARTCHAR 2221
ENCODING 8737
SWIDTH 960 0
DWIDTH 12 0
BBX 12 12 0 -2
BITMAP
0000
0600
0f00
1f80
3fc0
7fe0
fff0
7fe0
3fc0
1f80
0f00
0600
ENDCHAR
STARTCHAR 2222
ENCODING 8738
SWIDTH 960 0
DWIDTH 12 0
BBX 12 12 0 -2
BITMAP
0000
fff0
c030
c030
c030
c030
c030
c030
c030
c030
c030
fff0
ENDCHAR
STARTCHAR 2223
ENCODING 8739
SWIDTH 960 0
DWIDTH 12 0
BBX 12 12 0 -2
BITMAP
0000
fff0
fff0
fff0
fff0
fff0
fff0
fff0
fff0
fff0
fff0
fff0
ENDCHAR
STARTCHAR 2224
ENCODING 8740
SWIDTH 960 0
DWIDTH 12 0
BBX 12 12 0 -2
BITMAP
0600
0600
0d00
0d00
1980
1980
30c0
30c0
6060
6060
fff0
0000
ENDCHAR
STARTCHAR 2225
ENCODING 8741
SWIDTH 960 0
DWIDTH 12 0
BBX 12 12 0 -2
BITMAP
0600
0600
0f00
0f00
1f80
1f80
3fc0
3fc0
7fe0
7fe0
fff0
0000
ENDCHAR
STARTCHAR 2226
ENCODING 8742
SWIDTH 960 0
DWIDTH 12 0
BBX 12 12 0 -2
BITMAP
0000
fff0
6060
6060
30c0
30c0
1980
1980
0d00
0d00
0600
0600
ENDCHAR
STARTCHAR 2227
ENCODING 8743
SWIDTH 960 0
DWIDTH 12 0
BBX 12 12 0 -2
BITMAP
0000
fff0
7fe0
7fe0
3fc0
3fc0
1f80
1f80
0f00
0f00
0600
0600
ENDCHAR
STARTCHAR 2228
ENCODING 8744
SWIDTH 960 0
DWIDTH 12 0
BBX 12 12 0 -2
BITMAP
0000
6730
3760
18c0
0d80
7770
7770
0d80
18c0
3760
6730
0000
ENDCHAR
STARTCHAR 2229
ENCODING 8745
SWIDTH 960 0
DWIDTH 12 0
BBX 12 12 0 -2
BITMAP
0000
7ff0
7ff0
0000
fff8
fff8
0700
0700
0700
0700
0700
0700
ENDCHAR
STARTCHAR 222a
ENCODING 8746
SWIDTH 960 0
DWIDTH 12 0
BBX 12 12 0 -2
BITMAP
0000
0000
0000
0380
00e0
fff8
00e0
0380
0000
0000
0000
0000
ENDCHAR
STARTCHAR 222b
ENCODING 8747
SWIDTH 960 0
DWIDTH 12 0
BBX 12 12 0 -2
BITMAP
0000
0000
0000
0e00
3800
fff8
3800
0e00
0000
0000
0000
0000
ENDCHAR
STARTCHAR 222c
ENCODING 8748
SWIDTH 960 0
DWIDTH 12 0
BBX 12 12 0 -2
BITMAP
0300
0300
0780
0780
0d40
0d40
0300
0300
0300
0300
0300
0300
ENDCHAR
STARTCHAR 222d
ENCODING 8749
SWIDTH 960 0
DWIDTH 12 0
BBX 12 12 0 -2
BITMAP
0300
0300
0300
0300
0300
0300
0d40
0d40
0780
0780
0300
0300
ENDCHAR
STARTCHAR 222e
ENCODING 8750
SWIDTH 960 0
DWIDTH 12 0
BBX 12 12 0 -2
BITMAP
0000
0000
0000
fff8
fff8
0000
0000
fff8
fff8
0000
0000
0000
ENDCHAR
STARTCHAR 223a
ENCODING 8762
SWIDTH 960 0
DWIDTH 12 0
BBX 12 12 0 -2
BITMAP
0000
0000
0fe0
1800
3000
3fe0
3000
1800
0fe0
0000
0000
0000
ENDCHAR
STARTCHAR 223b
ENCODING 8763
SWIDTH 960 0
DWIDTH 12 0
BBX 12 12 0 -2
BITMAP
0000
0000
3f80
00c0
0060
3fe0
0060
00c0
3f80
0000
0000
0000
ENDCHAR
STARTCHAR 223c
ENCODING 8764
SWIDTH 960 0
DWIDTH 12 0
BBX 12 12 0 -2
BITMAP
0000
0000
1ff0
3000
6000
6000
3000
1ff0
0000
0000
3ff0
0000
ENDCHAR
STARTCHAR 223d
ENCODING 8765
SWIDTH 960 0
DWIDTH 12 0
BBX 12 12 0 -2
BITMAP
0000
0000
7fc0
0060
0030
0030
0060
7fc0
0000
0000
7fe0
0000
ENDCHAR
STARTCHAR 223e
ENCODING 8766
SWIDTH 960 0
DWIDTH 12 0
BBX 12 12 0 -2
BITMAP
0000
0000
1ff0
3000
6000
6000
6000
6000
3000
1ff0
0000
0000
ENDCHAR
STARTCHAR 223f
ENCODING 8767
SWIDTH 960 0
DWIDTH 12 0
BBX 12 12 0 -2
BITMAP
0000
0000
7fc0
0060
0030
0030
0030
0030
0060
7fc0
0000
0000
ENDCHAR
STARTCHAR 2240
ENCODING 8768
SWIDTH 960 0
DWIDTH 12 0
BBX 12 12 0 -2
BITMAP
0000
60c0
60c0
60c0
60c0
60c0
60c0
60c0
60c0
3180
1f00
0000
ENDCHAR
STARTCHAR 2241
ENCODING 8769
SWIDTH 960 0
DWIDTH 12 0
BBX 12 12 0 -2
BITMAP
0000
1f00
3180
60c0
60c0
60c0
60c0
60c0
60c0
60c0
60c0
0000
ENDCHAR
STARTCHAR 224a
ENCODING 8778
SWIDTH 960 0
DWIDTH 12 0
BBX 12 12 0 -2
BITMAP
0000
0600
0600
0d00
0d00
1980
1980
30c0
30c0
6060
6060
0000
ENDCHAR
STARTCHAR 224b
ENCODING 8779
SWIDTH 960 0
DWIDTH 12 0
BBX 12 12 0 -2
BITMAP
0000
6060
6060
30c0
30c0
1980
1980
0d00
0d00
0600
0600
0000
ENDCHAR
STARTCHAR 224c
ENCODING 8780
SWIDTH 960 0
DWIDTH 12 0
BBX 12 12 0 -2
BITMAP
0000
0000
0000
0000
0000
7ff0
0030
0030
0030
0000
0000
0000
ENDCHAR
STARTCHAR 224d
ENCODING 8781
SWIDTH 960 0
DWIDTH 12 0
BBX 12 12 0 -2
BITMAP
0000
0000
00c0
0060
fff0
0018
fff0
0060
00c0
0000
0000
0000
ENDCHAR
STARTCHAR 224e
ENCODING 8782
SWIDTH 960 0
DWIDTH 12 0
BBX 12 12 0 -2
BITMAP
0000
0000
18c0
3060
7ff0
c018
7ff0
3060
18c0
0000
0000
0000
ENDCHAR
STARTCHAR 224f
ENCODING 8783
SWIDTH 960 0
DWIDTH 12 0
BBX 12 12 0 -2
BITMAP
0000
6060
6060
30c0
3fc0
1980
1980
0d00
0d00
0600
0600
0000
ENDCHAR
STARTCHAR 2250
ENCODING 8784
SWIDTH 960 0
DWIDTH 12 0
BBX 12 12 0 -2
BITMAP
0000
3fe0
0060
0060
0060
3fe0
0060
0060
0060
3fe0
0000
0000
ENDCHAR
STARTCHAR 225c
ENCODING 8796
SWIDTH 960 0
DWIDTH 12 0
BBX 12 12 0 -2
BITMAP
0000
0060
00c0
0180
0300
0600
0c00
1800
3000
7ff0
0000
0000
ENDCHAR
STARTCHAR 225d
ENCODING 8797
SWIDTH 960 0
DWIDTH 12 0
BBX 12 12 0 -2
BITMAP
0000
0600
0600
0600
0600
0600
0600
0600
0600
7ff0
0000
0000
ENDCHAR
STARTCHAR 225e
ENCODING 8798
SWIDTH 960 0
DWIDTH 12 0
BBX 12 12 0 -2
BITMAP
0f80
38e0
6030
0000
0000
0000
0000
0000
0000
0000
0000
0000
ENDCHAR
STARTCHAR 225f
ENCODING 8799
SWIDTH 960 0
DWIDTH 12 0
BBX 12 12 0 -2
BITMAP
0000
0780
0cc0
00c0
0740
0dc0
19c0
3980
3b80
1b00
0e00
0000
ENDCHAR
STARTCHAR 2260
ENCODING 8800
SWIDTH 960 0
DWIDTH 12 0
BBX 12 12 0 -2
BITMAP
0000
fff0
7fe0
7060
30c0
38c0
1980
1d80
0d00
0f00
0600
0600
ENDCHAR
STARTCHAR 2261
ENCODING 8801
SWIDTH 960 0
DWIDTH 12 0
BBX 12 12 0 -2
BITMAP
0000
0000
0000
7ff0
0000
0000
7ff0
0000
0000
7ff0
0000
0000
ENDCHAR
STARTCHAR 2262
ENCODING 8802
SWIDTH 960 0
DWIDTH 12 0
BBX 12 12 0 -2
BITMAP
0000
1c00
1c00
0000
7ff0
0000
0000
7ff0
0000
01c0
01c0
0000
ENDCHAR
STARTCHAR 2263
ENCODING 8803
SWIDTH 960 0
DWIDTH 12 0
BBX 12 12 0 -2
BITMAP
0000
0000
0660
0cc0
1980
3300
6600
3300
1980
0cc0
0660
0000
ENDCHAR
STARTCHAR 2264
ENCODING 8804
SWIDTH 960 0
DWIDTH 12 0
BBX 12 12 0 -2
BITMAP
0000
0000
6600
3300
1980
0cc0
0660
0cc0
1980
3300
6600
0000
ENDCHAR
STARTCHAR 2265
ENCODING 8805
SWIDTH 960 0
DWIDTH 12 0
BBX 12 12 0 -2
BITMAP
03f8
0300
0300
0600
0600
0600
0c00
6c00
f400
3800
1800
0000
ENDCHAR
STARTCHAR 2266
ENCODING 8806
SWIDTH 960 0
DWIDTH 12 0
BBX 12 12 0 -2
BITMAP
0000
0000
0000
1dc0
3360
6330
6630
3660
1dc0
0000
0000
0000
ENDCHAR
STARTCHAR 2267
ENCODING 8807
SWIDTH 960 0
DWIDTH 12 0
BBX 12 12 0 -2
BITMAP
0000
0000
0000
1ce0
36b0
6300
6300
36b0
1ce0
0000
0000
0000
ENDCHAR
STARTCHAR 2268
ENCODING 8808
SWIDTH 960 0
DWIDTH 12 0
BBX 12 12 0 -2
BITMAP
0000
0000
71c0
71c0
0000
0000
0000
0000
0e00
0e00
0000
0000
ENDCHAR
STARTCHAR 2269
ENCODING 8809
SWIDTH 960 0
DWIDTH 12 0
BBX 12 12 0 -2
BITMAP
00e0
0180
0300
0300
0380
0380
0180
01c0
01c0
00c0
0180
0700
ENDCHAR
STARTCHAR 226a
ENCODING 8810
SWIDTH 960 0
DWIDTH 12 0
BBX 12 12 0 -2
BITMAP
0770
0cc0
1980
1980
1dc0
1dc0
0cc0
0ee0
0ee0
0660
0cc0
3b80
ENDCHAR
STARTCHAR 2272
ENCODING 8818
SWIDTH 960 0
DWIDTH 12 0
BBX 12 12 0 -2
BITMAP
0600
0d00
0d00
0600
0d00
0d00
1980
1f80
30c0
30c0
79e0
0000
ENDCHAR
STARTCHAR 2273
ENCODING 8819
SWIDTH 960 0
DWIDTH 12 0
BBX 12 12 0 -2
BITMAP
3980
6d80
6d00
6e00
3a00
0c00
1800
1a60
3550
6d50
6660
0000
ENDCHAR
STARTCHAR 2274
ENCODING 8820
SWIDTH 960 0
DWIDTH 12 0
BBX 12 12 0 -2
BITMAP
0180
0180
0de0
0fe0
3f80
3d80
0de0
0fe0
3f80
3d80
0c00
0c00
ENDCHAR
STARTCHAR 2275
ENCODING 8821
SWIDTH 960 0
DWIDTH 12 0
BBX 12 12 0 -2
BITMAP
0c00
0c00
0c00
0c00
0c00
0d80
0ec0
0dc0
0d80
0d00
0e00
0000
ENDCHAR
STARTCHAR 2276
ENCODING 8822
SWIDTH 960 0
DWIDTH 12 0
BBX 12 12 0 -2
BITMAP
0700
0680
06c0
0660
0660
06c0
0f00
1a80
3180
3300
1e00
0000
ENDCHAR
STARTCHAR 2277
ENCODING 8823
SWIDTH 960 0
DWIDTH 12 0
BBX 12 12 0 -2
BITMAP
0600
0f00
36c0
7fe0
36c0
0f00
0f00
0600
0600
0600
0600
0600
ENDCHAR
STARTCHAR 2278
ENCODING 8824
SWIDTH 960 0
DWIDTH 12 0
BBX 12 12 0 -2
BITMAP
0f00
0f00
36c0
7fe0
36c0
0600
0600
36c0
7fe0
36c0
0f00
0f00
ENDCHAR
STARTCHAR 2279
ENCODING 8825
SWIDTH 960 0
DWIDTH 12 0
BBX 12 12 0 -2
BITMAP
0f80
1e80
1e80
1e80
0e80
0680
0680
0680
0680
0680
0680
0000
ENDCHAR
STARTCHAR 227e
ENCODING 8830
SWIDTH 960 0
DWIDTH 12 0
BBX 12 12 0 -2
BITMAP
0f80
38e0
6030
6030
c018
c018
c018
c018
6030
6030
38e0
0f80
ENDCHAR
STARTCHAR 2330
ENCODING 9008
SWIDTH 960 0
DWIDTH 12 0
BBX 12 12 0 -2
BITMAP
0000
0f80
18c0
1860
3060
3060
3060
3060
30c0
18c0
0f80
0000
ENDCHAR
STARTCHAR 2331
ENCODING 9009
SWIDTH 960 0
DWIDTH 12 0
BBX 12 12 0 -2
BITMAP
0000
1c00
0600
0600
0600
0600
0600
0600
0600
0600
0f00
0000
ENDCHAR
STARTCHAR 2332
ENCODING 9010
SWIDTH 960 0
DWIDTH 12 0
BBX 12 12 0 -2
BITMAP
0000
0f00
1980
30c0
30c0
00c0
0180
0700
1c00
3000
3fc0
0000
ENDCHAR
STARTCHAR 2333
ENCODING 9011
SWIDTH 960 0
DWIDTH 12 0
BBX 12 12 0 -2
BITMAP
0000
1f00
3180
00c0
0180
0700
0180
60c0
60c0
3180
1f00
0000
ENDCHAR
STARTCHAR 2334
ENCODING 9012
SWIDTH 960 0
DWIDTH 12 0
BBX 12 12 0 -2
BITMAP
0000
0300
0700
0d00
1b00
3300
6300
6300
3fc0
0300
0300
0000
ENDCHAR
STARTCHAR 2335
ENCODING 9013
SWIDTH 960 0
DWIDTH 12 0
BBX 12 12 0 -2
BITMAP
0000
1fc0
3000
3000
3000
3000
1f80
00c0
00c0
3180
1f00
0000
ENDCHAR
STARTCHAR 2336
ENCODING 9014
SWIDTH 960 0
DWIDTH 12 0
BBX 12 12 0 -2
BITMAP
0000
0780
0cc0
1800
3700
39c0
3060
3060
3060
18c0
0f80
0000
ENDCHAR
STARTCHAR 2337
ENCODING 9015
SWIDTH 960 0
DWIDTH 12 0
BBX 12 12 0 -2
BITMAP
0000
7f80
60c0
60c0
0180
0180
0300
0300
0300
0600
0600
0000
ENDCHAR
STARTCHAR 2338
ENCODING 9016
SWIDTH 960 0
DWIDTH 12 0
BBX 12 12 0 -2
BITMAP
0000
0f80
18c0
30c0
18c0
0f80
1980
30c0
30c0
3180
1f00
0000
ENDCHAR
STARTCHAR 2339
ENCODING 9017
SWIDTH 960 0
DWIDTH 12 0
BBX 12 12 0 -2
BITMAP
0000
0f80
18c0
3060
3060
30c0
1f80
0180
0180
0180
0180
0000
ENDCHAR
STARTCHAR 2341
ENCODING 9025
SWIDTH 960 0
DWIDTH 12 0
BBX 12 12 0 -2
BITMAP
0000
0780
1cc0
3060
3060
3060
3060
37f0
3060
3060
3060
0000
ENDCHAR
STARTCHAR 2342
ENCODING 9026
SWIDTH 960 0
DWIDTH 12 0
BBX 12 12 0 -2
BITMAP
0000
1f00
3180
3180
3700
31c0
3060
3060
3060
31c0
3f00
0000
ENDCHAR
STARTCHAR 2343
ENCODING 9027
SWIDTH 960 0
DWIDTH 12 0
BBX 12 12 0 -2
BITMAP
0000
0f00
1980
30c0
6000
6000
6000
6000
3060
19c0
0f00
0000
ENDCHAR
STARTCHAR 2344
ENCODING 9028
SWIDTH 960 0
DWIDTH 12 0
BBX 12 12 0 -2
BITMAP
0000
1f00
3180
30c0
30c0
3060
3060
30c0
30c0
3180
3f00
0000
ENDCHAR
STARTCHAR 2345
ENCODING 9029
SWIDTH 960 0
DWIDTH 12 0
BBX 12 12 0 -2
BITMAP
0000
0fe0
1800
3000
3000
3000
3f80
3000
3000
3000
3fe0
0000
ENDCHAR
STARTCHAR 2346
ENCODING 9030
SWIDTH 960 0
DWIDTH 12 0
BBX 12 12 0 -2
BITMAP
0000
0fe0
1800
3000
3000
3000
7f80
3000
3000
3000
3000
0000
ENDCHAR
STARTCHAR 2347
ENCODING 9031
SWIDTH 960 0
DWIDTH 12 0
BBX 12 12 0 -2
BITMAP
0000
0f00
19c0
3060
6000
6000
6000
63e0
3060
1cc0
0780
0000
ENDCHAR
STARTCHAR 2348
ENCODING 9032
SWIDTH 960 0
DWIDTH 12 0
BBX 12 12 0 -2
BITMAP
0000
3060
3060
3060
3060
3060
3fe0
3060
3060
3060
3060
0000
ENDCHAR
STARTCHAR 2349
ENCODING 9033
SWIDTH 960 0
DWIDTH 12 0
BBX 12 12 0 -2
BITMAP
0000
0f00
0600
0600
0600
0600
0600
0600
0600
0600
0f00
0000
ENDCHAR
STARTCHAR 234a
ENCODING 9034
SWIDTH 960 0
DWIDTH 12 0
BBX 12 12 0 -2
BITMAP
0000
01e0
00c0
00c0
00c0
00c0
00c0
00c0
60c0
3980
0f00
0000
ENDCHAR
STARTCHAR 234b
ENCODING 9035
SWIDTH 960 0
DWIDTH 12 0
BBX 12 12 0 -2
BITMAP
0000
30e0
3180
3300
3600
3400
3a00
3300
3180
30c0
3070
0000
ENDCHAR
STARTCHAR 234c
ENCODING 9036
SWIDTH 960 0
DWIDTH 12 0
BBX 12 12 0 -2
BITMAP
0000
3000
3000
3000
3000
3000
3000
3000
3000
3000
1fe0
0000
ENDCHAR
STARTCHAR 234d
ENCODING 9037
SWIDTH 960 0
DWIDTH 12 0
BBX 12 12 0 -2
BITMAP
0000
6060
70e0
69a0
6f60
6060
6060
6060
6060
6060
6060
0000
ENDCHAR
STARTCHAR 234e
ENCODING 9038
SWIDTH 960 0
DWIDTH 12 0
BBX 12 12 0 -2
BITMAP
0000
3060
3860
3860
3460
3460
3460
3660
3660
3360
31c0
0000
ENDCHAR
STARTCHAR 234f
ENCODING 9039
SWIDTH 960 0
DWIDTH 12 0
BBX 12 12 0 -2
BITMAP
0000
0e00
1b80
30c0
6060
6060
6060
6060
30c0
1980
0f00
0000
ENDCHAR
STARTCHAR 2350
ENCODING 9040
SWIDTH 960 0
DWIDTH 12 0
BBX 12 12 0 -2
BITMAP
0000
1e00
3380
30c0
30c0
30c0
3180
3f00
3000
3000
3000
0000
ENDCHAR
STARTCHAR 2351
ENCODING 9041
SWIDTH 960 0
DWIDTH 12 0
BBX 12 12 0 -2
BITMAP
0000
0e00
1b80
30c0
6060
6060
6060
6360
31c0
1980
0f40
0000
ENDCHAR
STARTCHAR 2352
ENCODING 9042
SWIDTH 960 0
DWIDTH 12 0
BBX 12 12 0 -2
BITMAP
0000
1e00
3380
30c0
30c0
30c0
3180
3f00
3300
3180
30c0
0000
ENDCHAR
STARTCHAR 2353
ENCODING 9043
SWIDTH 960 0
DWIDTH 12 0
BBX 12 12 0 -2
BITMAP
0000
1f80
30c0
3000
1800
0f80
00c0
0060
6060
38c0
0f80
0000
ENDCHAR
STARTCHAR 2354
ENCODING 9044
SWIDTH 960 0
DWIDTH 12 0
BBX 12 12 0 -2
BITMAP
0000
7ff0
0600
0600
0600
0600
0600
0600
0600
0600
0600
0000
ENDCHAR
STARTCHAR 2355
ENCODING 9045
SWIDTH 960 0
DWIDTH 12 0
BBX 12 12 0 -2
BITMAP
0000
30c0
30c0
30c0
3060
3060
3060
3060
3060
18c0
0f80
0000
ENDCHAR
STARTCHAR 2356
ENCODING 9046
SWIDTH 960 0
DWIDTH 12 0
BBX 12 12 0 -2
BITMAP
0000
6060
6060
30c0
30c0
1980
1980
0d00
0d00
0600
0600
0000
ENDCHAR
STARTCHAR 2357
ENCODING 9047
SWIDTH 960 0
DWIDTH 12 0
BBX 12 12 0 -2
BITMAP
0000
6060
6060
6060
6060
6660
6660
6660
6660
3760
1dc0
0000
ENDCHAR
STARTCHAR 2358
ENCODING 9048
SWIDTH 960 0
DWIDTH 12 0
BBX 12 12 0 -2
BITMAP
0000
70e0
1980
0d00
0e00
0600
0600
0e00
0d00
19b0
70e0
0000
ENDCHAR
STARTCHAR 2359
ENCODING 9049
SWIDTH 960 0
DWIDTH 12 0
BBX 12 12 0 -2
BITMAP
0000
6060
6060
6060
6060
31c0
1f00
0600
0600
0600
0600
0000
ENDCHAR
STARTCHAR 235a
ENCODING 9050
SWIDTH 960 0
DWIDTH 12 0
BBX 12 12 0 -2
BITMAP
0000
3f80
00c0
0180
0d00
0600
0700
0c00
1800
3000
1fe0
0000
ENDCHAR
STARTCHAR 2361
ENCODING 9057
SWIDTH 960 0
DWIDTH 12 0
BBX 12 12 0 -2
BITMAP
0000
0000
0000
0000
0f00
1980
30c0
30c0
30c0
19c0
0f40
0000
ENDCHAR
STARTCHAR 2362
ENCODING 9058
SWIDTH 960 0
DWIDTH 12 0
BBX 12 12 0 -2
BITMAP
0000
3000
3000
3000
3700
3980
30c0
30c0
30c0
3980
3700
0000
ENDCHAR
STARTCHAR 2363
ENCODING 9059
SWIDTH 960 0
DWIDTH 12 0
BBX 12 12 0 -2
BITMAP
0000
0000
0000
0000
0f80
18c0
3000
3000
3000
18c0
0f80
0000
ENDCHAR
STARTCHAR 2364
ENCODING 9060
SWIDTH 960 0
DWIDTH 12 0
BBX 12 12 0 -2
BITMAP
0000
00c0
00c0
00c0
0f40
19c0
30c0
30c0
30c0
19c0
0f40
0000
ENDCHAR
STARTCHAR 2365
ENCODING 9061
SWIDTH 960 0
DWIDTH 12 0
BBX 12 12 0 -2
BITMAP
0000
0000
0000
0000
0f80
18c0
3060
3fc0
3000
18c0
0f80
0000
ENDCHAR
STARTCHAR 2366
ENCODING 9062
SWIDTH 960 0
DWIDTH 12 0
BBX 12 12 0 -2
BITMAP
0000
0780
0cc0
1800
1800
1800
3e00
1800
1800
1800
1800
0000
ENDCHAR
STARTCHAR 2367
ENCODING 9063
SWIDTH 960 0
DWIDTH 12 0
BBX 12 12 0 -2
BITMAP
0000
0000
0000
0000
0f00
1980
30c0
30c0
19c0
0f40
0180
1f00
ENDCHAR
STARTCHAR 2368
ENCODING 9064
SWIDTH 960 0
DWIDTH 12 0
BBX 12 12 0 -2
BITMAP
0000
3000
3000
3000
3000
3700
3980
30c0
30c0
30c0
30c0
0000
ENDCHAR
STARTCHAR 2369
ENCODING 9065
SWIDTH 960 0
DWIDTH 12 0
BBX 12 12 0 -2
BITMAP
0000
0e00
1b00
0e00
0000
0600
0600
0600
0600
0600
0600
0000
ENDCHAR
STARTCHAR 236a
ENCODING 9066
SWIDTH 960 0
DWIDTH 12 0
BBX 12 12 0 -2
BITMAP
0000
0380
06c0
0380
0000
0180
0180
0180
0180
0180
3300
1e00
ENDCHAR
STARTCHAR 236b
ENCODING 9067
SWIDTH 960 0
DWIDTH 12 0
BBX 12 12 0 -2
BITMAP
0000
3000
3000
3000
31c0
3300
3600
3c00
3600
3380
30e0
0000
ENDCHAR
STARTCHAR 236c
ENCODING 9068
SWIDTH 960 0
DWIDTH 12 0
BBX 12 12 0 -2
BITMAP
0000
0600
0600
0600
0600
0600
0600
0600
0600
0600
0380
0000
ENDCHAR
STARTCHAR 236d
ENCODING 9069
SWIDTH 960 0
DWIDTH 12 0
BBX 12 12 0 -2
BITMAP
0000
0000
0000
0000
6dc0
7760
6660
6660
6660
6660
6660
0000
ENDCHAR
STARTCHAR 236e
ENCODING 9070
SWIDTH 960 0
DWIDTH 12 0
BBX 12 12 0 -2
BITMAP
0000
0000
0000
0000
3700
3980
30c0
30c0
30c0
30c0
30c0
0000
ENDCHAR
STARTCHAR 236f
ENCODING 9071
SWIDTH 960 0
DWIDTH 12 0
BBX 12 12 0 -2
BITMAP
0000
0000
0000
0000
0f00
1980
30c0
30c0
30c0
1980
0f00
0000
ENDCHAR
STARTCHAR 2370
ENCODING 9072
SWIDTH 960 0
DWIDTH 12 0
BBX 12 12 0 -2
BITMAP
0000
0000
0000
0000
0f80
38c0
3060
3060
38c0
3780
3000
3000
ENDCHAR
STARTCHAR 2371
ENCODING 9073
SWIDTH 960 0
DWIDTH 12 0
BBX 12 12 0 -2
BITMAP
0000
0000
0000
0000
0f80
18e0
3060
3060
18e0
0fa0
0060
0060
ENDCHAR
STARTCHAR 2372
ENCODING 9074
SWIDTH 960 0
DWIDTH 12 0
BBX 12 12 0 -2
BITMAP
0000
0000
0000
3000
3000
3780
38c0
3000
3000
3000
3000
0000
ENDCHAR
STARTCHAR 2373
ENCODING 9075
SWIDTH 960 0
DWIDTH 12 0
BBX 12 12 0 -2
BITMAP
0000
0000
0000
0000
1f00
31c0
1800
0e00
0380
70c0
1f80
0000
ENDCHAR
STARTCHAR 2374
ENCODING 9076
SWIDTH 960 0
DWIDTH 12 0
BBX 12 12 0 -2
BITMAP
0000
1800
1800
1800
3f00
1800
1800
1800
1800
0cc0
0780
0000
ENDCHAR
STARTCHAR 2375
ENCODING 9077
SWIDTH 960 0
DWIDTH 12 0
BBX 12 12 0 -2
BITMAP
0000
0000
0000
0000
30c0
30c0
30c0
30c0
30c0
19c0
0f40
0000
ENDCHAR
STARTCHAR 2376
ENCODING 9078
SWIDTH 960 0
DWIDTH 12 0
BBX 12 12 0 -2
BITMAP
0000
0000
0000
0000
60c0
30c0
3180
1980
1b00
0d00
0600
0000
ENDCHAR
STARTCHAR 2377
ENCODING 9079
SWIDTH 960 0
DWIDTH 12 0
BBX 12 12 0 -2
BITMAP
0000
0000
0000
0000
6060
6060
6060
6660
6660
3760
1dc0
0000
ENDCHAR
STARTCHAR 2378
ENCODING 9080
SWIDTH 960 0
DWIDTH 12 0
BBX 12 12 0 -2
BITMAP
0000
0000
0000
0000
39c0
6d00
0600
0600
0600
0d60
79c0
0000
ENDCHAR
STARTCHAR 2379
ENCODING 9081
SWIDTH 960 0
DWIDTH 12 0
BBX 12 12 0 -2
BITMAP
0000
0000
0000
0000
30c0
60c0
60c0
60c0
31c0
1f40
0180
1f00
ENDCHAR
STARTCHAR 237a
ENCODING 9082
SWIDTH 960 0
DWIDTH 12 0
BBX 12 12 0 -2
BITMAP
0000
0000
0000
0000
3f80
00c0
0d80
0700
0d00
1800
7fc0
0000
ENDCHAR
STARTCHAR 2421
ENCODING 9249
SWIDTH 960 0
DWIDTH 12 0
BBX 12 12 0 -2
BITMAP
0000
0000
0000
0000
0c00
3f80
0d00
1f80
3540
36c0
1cc0
0000
ENDCHAR
STARTCHAR 2422
ENCODING 9250
SWIDTH 960 0
DWIDTH 12 0
BBX 12 12 0 -2
BITMAP
0c00
0c00
7fe0
0cc0
0f80
1dc0
35a0
6d60
6760
3660
1c00
0000
ENDCHAR
STARTCHAR 2423
ENCODING 9251
SWIDTH 960 0
DWIDTH 12 0
BBX 12 12 0 -2
BITMAP
0000
0000
0000
0000
0000
1800
3060
3060
1b60
0e00
0000
0000
ENDCHAR
STARTCHAR 2424
ENCODING 9252
SWIDTH 960 0
DWIDTH 12 0
BBX 12 12 0 -2
BITMAP
0000
0000
3000
60c0
6060
6060
6060
6060
3660
1c00
0000
0000
ENDCHAR
STARTCHAR 2425
ENCODING 9253
SWIDTH 960 0
DWIDTH 12 0
BBX 12 12 0 -2
BITMAP
0000
0000
0000
0000
1800
0c00
3e00
6300
0300
0600
1c00
0000
ENDCHAR
STARTCHAR 2426
ENCODING 9254
SWIDTH 960 0
DWIDTH 12 0
BBX 12 12 0 -2
BITMAP
0600
0600
0300
0f80
3b40
6360
0060
0060
00c0
0380
0e00
0000
ENDCHAR
STARTCHAR 2427
ENCODING 9255
SWIDTH 960 0
DWIDTH 12 0
BBX 12 12 0 -2
BITMAP
0000
0000
0000
0000
0f00
0000
3f80
0600
1c00
3ec0
6380
0000
ENDCHAR
STARTCHAR 2428
ENCODING 9256
SWIDTH 960 0
DWIDTH 12 0
BBX 12 12 0 -2
BITMAP
1c00
0700
0000
7fc0
0180
0300
0600
0c00
3e00
7330
01e0
0000
ENDCHAR
STARTCHAR 2429
ENCODING 9257
SWIDTH 960 0
DWIDTH 12 0
BBX 12 12 0 -2
BITMAP
0000
0000
0000
0000
0c00
7f00
0d80
3ec0
6d00
6d80
3980
0000
ENDCHAR
STARTCHAR 242a
ENCODING 9258
SWIDTH 960 0
DWIDTH 12 0
BBX 12 12 0 -2
BITMAP
0600
0600
3fe0
0600
0660
1fb0
36c0
6660
6660
6cc0
3800
0000
ENDCHAR
STARTCHAR 242b
ENCODING 9259
SWIDTH 960 0
DWIDTH 12 0
BBX 12 12 0 -2
BITMAP
0000
0c00
0c00
7f00
0d80
18c0
1be0
30d8
3180
6300
6000
0000
ENDCHAR
STARTCHAR 242c
ENCODING 9260
SWIDTH 960 0
DWIDTH 12 0
BBX 12 12 0 -2
BITMAP
0000
0cd0
0cd0
7f00
0d80
18c0
1be0
30d8
3180
6300
6000
0000
ENDCHAR
STARTCHAR 242d
ENCODING 9261
SWIDTH 960 0
DWIDTH 12 0
BBX 12 12 0 -2
BITMAP
0600
0600
3f80
0300
3fe0
0300
0180
3180
6000
30e0
1f80
0000
ENDCHAR
STARTCHAR 242e
ENCODING 9262
SWIDTH 960 0
DWIDTH 12 0
BBX 12 12 0 -2
BITMAP
0600
06d0
3fd0
0300
3fe0
0300
0180
3180
6000
30e0
1f80
0000
ENDCHAR
STARTCHAR 242f
ENCODING 9263
SWIDTH 960 0
DWIDTH 12 0
BBX 12 12 0 -2
BITMAP
0000
0300
0600
0c00
1800
3000
3000
1800
0c00
0700
01c0
0000
ENDCHAR
STARTCHAR 2430
ENCODING 9264
SWIDTH 960 0
DWIDTH 12 0
BBX 12 12 0 -2
BITMAP
0000
0300
0600
0cd0
18d0
3000
3000
1800
0c00
0700
01c0
0000
ENDCHAR
STARTCHAR 2431
ENCODING 9265
SWIDTH 960 0
DWIDTH 12 0
BBX 12 12 0 -2
BITMAP
0180
00c0
60c0
67f0
60c0
60c0
60c0
30c0
30c0
0180
0700
0000
ENDCHAR
STARTCHAR 2432
ENCODING 9266
SWIDTH 960 0
DWIDTH 12 0
BBX 12 12 0 -2
BITMAP
0300
01a8
61a8
67f0
60c0
60c0
60c0
30c0
30c0
0180
0700
0000
ENDCHAR
STARTCHAR 2433
ENCODING 9267
SWIDTH 960 0
DWIDTH 12 0
BBX 12 12 0 -2
BITMAP
0000
0000
1f80
00c0
0180
0000
6000
6060
3060
1fc0
0000
0000
ENDCHAR
STARTCHAR 2434
ENCODING 9268
SWIDTH 960 0
DWIDTH 12 0
BBX 12 12 0 -2
BITMAP
0000
00d0
1fb0
00c0
0180
0000
6000
6060
3060
1fc0
0000
0000
ENDCHAR
STARTCHAR 2435
ENCODING 9269
SWIDTH 960 0
DWIDTH 12 0
BBX 12 12 0 -2
BITMAP
0600
0600
0300
3fe0
0300
0300
0180
6180
6000
38e0
0f80
0000
ENDCHAR
STARTCHAR 2436
ENCODING 9270
SWIDTH 960 0
DWIDTH 12 0
BBX 12 12 0 -2
BITMAP
0600
06d0
0350
3fe0
0300
0300
0180
6180
6000
38e0
0f80
0000
ENDCHAR
STARTCHAR 2437
ENCODING 9271
SWIDTH 960 0
DWIDTH 12 0
BBX 12 12 0 -2
BITMAP
0000
3000
3000
3000
3000
3000
3000
3000
3060
19c0
0f00
0000
ENDCHAR
STARTCHAR 2438
ENCODING 9272
SWIDTH 960 0
DWIDTH 12 0
BBX 12 12 0 -2
BITMAP
0000
3000
3340
3340
3000
3000
3000
3000
3060
19c0
0f00
0000
ENDCHAR
STARTCHAR 2439
ENCODING 9273
SWIDTH 960 0
DWIDTH 12 0
BBX 12 12 0 -2
BITMAP
0180
0180
7ff0
0180
0f80
18c0
18c0
1980
0f00
0300
0300
0000
ENDCHAR
STARTCHAR 243a
ENCODING 9274
SWIDTH 960 0
DWIDTH 12 0
BBX 12 12 0 -2
BITMAP
01a8
01a8
7ff0
0180
0f80
18c0
18c0
1980
0f00
0300
0300
0000
ENDCHAR
STARTCHAR 243b
ENCODING 9275
SWIDTH 960 0
DWIDTH 12 0
BBX 12 12 0 -2
BITMAP
0000
3180
3180
3180
fff0
3180
3180
3180
3000
18e0
0f80
0000
ENDCHAR
STARTCHAR 243c
ENCODING 9276
SWIDTH 960 0
DWIDTH 12 0
BBX 12 12 0 -2
BITMAP
0000
3180
31a8
31a8
fff0
3180
3180
3180
3000
18e0
0f80
0000
ENDCHAR
STARTCHAR 243d
ENCODING 9277
SWIDTH 960 0
DWIDTH 12 0
BBX 12 12 0 -2
BITMAP
0000
1f00
0180
0300
0e00
7ff0
0c00
1800
3000
1860
0fc0
0000
ENDCHAR
STARTCHAR 243e
ENCODING 9278
SWIDTH 960 0
DWIDTH 12 0
BBX 12 12 0 -2
BITMAP
0000
1f00
0180
0768
1c68
7ff0
0c00
1800
3000
1860
0fc0
0000
ENDCHAR
STARTCHAR 243f
ENCODING 9279
SWIDTH 960 0
DWIDTH 12 0
BBX 12 12 0 -2
BITMAP
1800
1800
7f00
1800
1bc0
3060
30c0
3000
6000
6e70
63c0
0000
ENDCHAR
STARTCHAR 2440
ENCODING 9280
SWIDTH 960 0
DWIDTH 12 0
BBX 12 12 0 -2
BITMAP
1800
18d0
7f50
1800
1bc0
3060
30c0
3000
6000
6e70
63c0
0000
ENDCHAR
STARTCHAR 2441
ENCODING 9281
SWIDTH 960 0
DWIDTH 12 0
BBX 12 12 0 -2
BITMAP
1800
1800
ff80
1800
1800
1800
3780
38c0
0060
39c0
0f00
0000
ENDCHAR
STARTCHAR 2442
ENCODING 9282
SWIDTH 960 0
DWIDTH 12 0
BBX 12 12 0 -2
BITMAP
1800
18d0
ffd0
1800
1800
1800
3780
38c0
0060
39c0
0f00
0000
ENDCHAR
STARTCHAR 2443
ENCODING 9283
SWIDTH 960 0
DWIDTH 12 0
BBX 12 12 0 -2
BITMAP
0000
0000
0000
0000
0000
0000
3f80
00c0
00c0
0180
0f00
0000
ENDCHAR
STARTCHAR 2444
ENCODING 9284
SWIDTH 960 0
DWIDTH 12 0
BBX 12 12 0 -2
BITMAP
0000
0000
0000
1f80
70c0
0060
0060
00c0
0380
1e00
0000
0000
ENDCHAR
STARTCHAR 2445
ENCODING 9285
SWIDTH 960 0
DWIDTH 12 0
BBX 12 12 0 -2
BITMAP
0000
0000
00d0
3f50
e180
00c0
00c0
0180
0700
3c00
0000
0000
ENDCHAR
STARTCHAR 2446
ENCODING 9286
SWIDTH 960 0
DWIDTH 12 0
BBX 12 12 0 -2
BITMAP
0000
1fc0
70e0
0380
0600
0c00
1800
1800
0e00
03c0
0000
0000
ENDCHAR
STARTCHAR 2447
ENCODING 9287
SWIDTH 960 0
DWIDTH 12 0
BBX 12 12 0 -2
BITMAP
0000
1fc0
70e0
03d0
06d0
0c00
1800
1800
0e00
03c0
0000
0000
ENDCHAR
STARTCHAR 2448
ENCODING 9288
SWIDTH 960 0
DWIDTH 12 0
BBX 12 12 0 -2
BITMAP
0000
3000
3000
1800
19e0
0f00
1a00
3300
3000
18e0
0f80
0000
ENDCHAR
STARTCHAR 2449
ENCODING 9289
SWIDTH 960 0
DWIDTH 12 0
BBX 12 12 0 -2
BITMAP
0000
31a0
31a0
1800
19e0
0f00
1a00
3300
3000
18e0
0f80
0000
ENDCHAR
STARTCHAR 244a
ENCODING 9290
SWIDTH 960 0
DWIDTH 12 0
BBX 12 12 0 -2
BITMAP
0600
0c00
7ec0
1870
30c0
30c0
67c0
6ce0
18d0
0cc0
0780
0000
ENDCHAR
STARTCHAR 244b
ENCODING 9291
SWIDTH 960 0
DWIDTH 12 0
BBX 12 12 0 -2
BITMAP
0000
3000
3780
6ce0
6060
60c0
6000
6000
6e30
33e0
3000
0000
ENDCHAR
STARTCHAR 244c
ENCODING 9292
SWIDTH 960 0
DWIDTH 12 0
BBX 12 12 0 -2
BITMAP
0000
3180
3180
3780
39c0
3360
6b60
6ae0
6d70
6d60
39c0
0000
ENDCHAR
STARTCHAR 244d
ENCODING 9293
SWIDTH 960 0
DWIDTH 12 0
BBX 12 12 0 -2
BITMAP
1800
1800
1800
7e00
1bc0
1e60
3860
69e0
1b70
1b60
19c0
0000
ENDCHAR
STARTCHAR 244e
ENCODING 9294
SWIDTH 960 0
DWIDTH 12 0
BBX 12 12 0 -2
BITMAP
0000
0600
0fc0
3b60
6330
6330
6330
3630
1c60
00c0
0000
0000
ENDCHAR
STARTCHAR 244f
ENCODING 9295
SWIDTH 960 0
DWIDTH 12 0
BBX 12 12 0 -2
BITMAP
0000
00c0
6ff0
60c0
60c0
60c0
6fc0
68f0
68c0
6cc0
3780
0000
ENDCHAR
STARTCHAR 2450
ENCODING 9296
SWIDTH 960 0
DWIDTH 12 0
BBX 12 12 0 -2
BITMAP
0000
01a8
61a8
6ff0
60c0
60c0
6fc0
68f0
68c0
6cc0
3780
0000
ENDCHAR
STARTCHAR 2451
ENCODING 9297
SWIDTH 960 0
DWIDTH 12 0
BBX 12 12 0 -2
BITMAP
0070
61d8
61b0
6ff0
60c0
60c0
6fc0
68f0
68c0
6cc0
3780
0000
ENDCHAR
STARTCHAR 2452
ENCODING 9298
SWIDTH 960 0
DWIDTH 12 0
BBX 12 12 0 -2
BITMAP
0000
0000
7c00
0600
0c00
1860
30d0
30c0
30c0
1980
0f00
0000
ENDCHAR
STARTCHAR 2453
ENCODING 9299
SWIDTH 960 0
DWIDTH 12 0
BBX 12 12 0 -2
BITMAP
0000
0000
7cd0
06d0
0c00
1860
30d0
30c0
30c0
1980
0f00
0000
ENDCHAR
STARTCHAR 2454
ENCODING 9300
SWIDTH 960 0
DWIDTH 12 0
BBX 12 12 0 -2
BITMAP
0000
0070
7cd8
0670
0c00
1860
30d0
30c0
30c0
1980
0f00
0000
ENDCHAR
STARTCHAR 2455
ENCODING 9301
SWIDTH 960 0
DWIDTH 12 0
BBX 12 12 0 -2
BITMAP
0000
0f00
0180
0300
0600
0cc0
3660
3330
31b0
6180
1f00
0000
ENDCHAR
STARTCHAR 2456
ENCODING 9302
SWIDTH 960 0
DWIDTH 12 0
BBX 12 12 0 -2
BITMAP
0000
0f50
01d0
0300
0600
0cc0
3660
3330
31b0
6180
1f00
0000
ENDCHAR
STARTCHAR 2457
ENCODING 9303
SWIDTH 960 0
DWIDTH 12 0
BBX 12 12 0 -2
BITMAP
0000
0f60
01b0
0360
0600
0cc0
3660
3330
31b0
6180
1f00
0000
ENDCHAR
STARTCHAR 2458
ENCODING 9304
SWIDTH 960 0
DWIDTH 12 0
BBX 12 12 0 -2
BITMAP
0000
0000
1e00
3380
60c0
6060
6060
0030
0030
0000
0000
0000
ENDCHAR
STARTCHAR 2459
ENCODING 9305
SWIDTH 960 0
DWIDTH 12 0
BBX 12 12 0 -2
BITMAP
0000
00d0
1ed0
3380
60c0
6060
6060
0030
0030
0000
0000
0000
ENDCHAR
STARTCHAR 245a
ENCODING 9306
SWIDTH 960 0
DWIDTH 12 0
BBX 12 12 0 -2
BITMAP
0000
00e0
01b0
1ee0
3380
60c0
6060
6030
0030
0030
0000
0000
ENDCHAR
STARTCHAR 245b
ENCODING 9307
SWIDTH 960 0
DWIDTH 12 0
BBX 12 12 0 -2
BITMAP
0000
0ff0
60c0
60c0
6ff0
60c0
6fc0
68f0
68c0
6cc0
3780
0000
ENDCHAR
STARTCHAR 245c
ENCODING 9308
SWIDTH 960 0
DWIDTH 12 0
BBX 12 12 0 -2
BITMAP
0068
0fe8
60c0
60c0
6ff0
60c0
6fc0
68f0
68c0
6cc0
3780
0000
ENDCHAR
STARTCHAR 245d
ENCODING 9309
SWIDTH 960 0
DWIDTH 12 0
BBX 12 12 0 -2
BITMAP
0070
0fd8
60f0
60c0
6ff0
60c0
6fc0
68f0
68c0
6cc0
3780
0000
ENDCHAR
STARTCHAR 245e
ENCODING 9310
SWIDTH 960 0
DWIDTH 12 0
BBX 12 12 0 -2
BITMAP
0300
0300
7fe0
0300
0300
7fe0
0300
3f00
63c0
6370
3e00
0000
ENDCHAR
STARTCHAR 245f
ENCODING 9311
SWIDTH 960 0
DWIDTH 12 0
BBX 12 12 0 -2
BITMAP
0000
7800
0cc0
06c0
06c0
3ff0
66c0
c6c0
ccc0
7980
0000
0000
ENDCHAR
STARTCHAR 2460
ENCODING 9312
SWIDTH 960 0
DWIDTH 12 0
BBX 12 12 0 -2
BITMAP
0600
0600
3fc0
0600
0660
0660
3a30
6e00
6630
6e60
3bc0
0000
ENDCHAR
STARTCHAR 2461
ENCODING 9313
SWIDTH 960 0
DWIDTH 12 0
BBX 12 12 0 -2
BITMAP
0000
1b00
1fc0
1b60
3b30
6b30
6a30
6e60
6c60
38c0
0380
0000
ENDCHAR
STARTCHAR 2462
ENCODING 9314
SWIDTH 960 0
DWIDTH 12 0
BBX 12 12 0 -2
BITMAP
1800
1800
7f80
1800
1800
7f80
1800
1860
1860
0cc0
0780
0000
ENDCHAR
STARTCHAR 2463
ENCODING 9315
SWIDTH 960 0
DWIDTH 12 0
BBX 12 12 0 -2
BITMAP
0000
0000
0000
0000
0d00
0dc0
3ea0
0c60
06c0
0600
0600
0000
ENDCHAR
STARTCHAR 2464
ENCODING 9316
SWIDTH 960 0
DWIDTH 12 0
BBX 12 12 0 -2
BITMAP
0000
3300
3300
ffc0
3360
3030
1860
19c0
1800
0c00
0c00
0000
ENDCHAR
STARTCHAR 2465
ENCODING 9317
SWIDTH 960 0
DWIDTH 12 0
BBX 12 12 0 -2
BITMAP
0000
0000
0000
0000
0300
37c0
3560
3b60
37c0
0300
0300
0000
ENDCHAR
STARTCHAR 2466
ENCODING 9318
SWIDTH 960 0
DWIDTH 12 0
BBX 12 12 0 -2
BITMAP
0300
0300
67c0
6d60
7330
6d30
6d60
67c0
0300
0300
0600
0000
ENDCHAR
STARTCHAR 2467
ENCODING 9319
SWIDTH 960 0
DWIDTH 12 0
BBX 12 12 0 -2
BITMAP
0000
0000
0000
0000
0600
07c0
0600
0600
3f00
66c0
3c00
0000
ENDCHAR
STARTCHAR 2468
ENCODING 9320
SWIDTH 960 0
DWIDTH 12 0
BBX 12 12 0 -2
BITMAP
0600
0600
0600
07e0
0600
0600
3f80
6360
6300
3300
1e00
0000
ENDCHAR
STARTCHAR 2469
ENCODING 9321
SWIDTH 960 0
DWIDTH 12 0
BBX 12 12 0 -2
BITMAP
0000
0e00
0380
3000
3000
3780
18c0
0060
6060
39c0
0f00
0000
ENDCHAR
STARTCHAR 246a
ENCODING 9322
SWIDTH 960 0
DWIDTH 12 0
BBX 12 12 0 -2
BITMAP
0180
18c0
30c0
30c0
30c0
1ec0
00c0
00c0
0180
0300
1e00
0000
ENDCHAR
STARTCHAR 246b
ENCODING 9323
SWIDTH 960 0
DWIDTH 12 0
BBX 12 12 0 -2
BITMAP
0000
7e00
0300
0600
0c00
1f00
01c0
3c60
6660
66c0
3f00
0000
ENDCHAR
STARTCHAR 246c
ENCODING 9324
SWIDTH 960 0
DWIDTH 12 0
BBX 12 12 0 -2
BITMAP
1800
1800
7dc0
1b60
1c60
7860
18c0
18c0
18c0
1870
1800
0000
ENDCHAR
STARTCHAR 246d
ENCODING 9325
SWIDTH 960 0
DWIDTH 12 0
BBX 12 12 0 -2
BITMAP
0000
3e00
0300
0600
1c00
3f80
00c0
0060
0060
70c0
1f80
0000
ENDCHAR
STARTCHAR 246e
ENCODING 9326
SWIDTH 960 0
DWIDTH 12 0
BBX 12 12 0 -2
BITMAP
0000
0000
0000
0000
0c00
1e00
0dc0
0e60
1c60
34c0
0d80
0000
ENDCHAR
STARTCHAR 246f
ENCODING 9327
SWIDTH 960 0
DWIDTH 12 0
BBX 12 12 0 -2
BITMAP
1800
1800
7e00
1bc0
1e60
3830
6830
1830
1830
1860
18c0
0000
ENDCHAR
STARTCHAR 2470
ENCODING 9328
SWIDTH 960 0
DWIDTH 12 0
BBX 12 12 0 -2
BITMAP
0000
3e00
0300
0300
1f80
36c0
6660
cc60
dbe0
7660
03d0
0000
ENDCHAR
STARTCHAR 2471
ENCODING 9329
SWIDTH 960 0
DWIDTH 12 0
BBX 12 12 0 -2
BITMAP
0000
3fc0
0300
0fc0
3860
0f60
19c0
0f00
0000
36e0
63b0
0000
ENDCHAR
STARTCHAR 2472
ENCODING 9330
SWIDTH 960 0
DWIDTH 12 0
BBX 12 12 0 -2
BITMAP
0c00
0c00
ffe0
0c00
0f80
0cc0
1cc0
3780
3000
30e0
1f80
0000
ENDCHAR
STARTCHAR 2473
ENCODING 9331
SWIDTH 960 0
DWIDTH 12 0
BBX 12 12 0 -2
BITMAP
0000
0c00
1800
1800
3000
3000
3060
6030
6e30
7b60
61c0
0000
ENDCHAR
STARTCHAR 2521
ENCODING 9505
SWIDTH 960 0
DWIDTH 12 0
BBX 12 12 0 -2
BITMAP
0000
0000
0000
0000
1f80
76c0
06c0
0780
0600
0600
0c00
0000
ENDCHAR
STARTCHAR 2522
ENCODING 9506
SWIDTH 960 0
DWIDTH 12 0
BBX 12 12 0 -2
BITMAP
0000
1f80
f0c0
0c60
0c60
0dc0
0f00
0c00
0c00
1800
3000
0000
ENDCHAR
STARTCHAR 2523
ENCODING 9507
SWIDTH 960 0
DWIDTH 12 0
BBX 12 12 0 -2
BITMAP
0000
0000
0000
0000
0000
01c0
0700
1e00
3600
0600
0600
0000
ENDCHAR
STARTCHAR 2524
ENCODING 9508
SWIDTH 960 0
DWIDTH 12 0
BBX 12 12 0 -2
BITMAP
0000
00f0
0380
0f00
3b00
6300
0300
0300
0300
0300
0300
0000
ENDCHAR
STARTCHAR 2525
ENCODING 9509
SWIDTH 960 0
DWIDTH 12 0
BBX 12 12 0 -2
BITMAP
0000
0000
0000
0000
0c00
0c00
1f00
3180
3180
0300
1e00
0000
ENDCHAR
STARTCHAR 2526
ENCODING 9510
SWIDTH 960 0
DWIDTH 12 0
BBX 12 12 0 -2
BITMAP
0600
0600
0600
3fc0
6060
6060
3060
0060
00c0
0380
1e00
0000
ENDCHAR
STARTCHAR 2527
ENCODING 9511
SWIDTH 960 0
DWIDTH 12 0
BBX 12 12 0 -2
BITMAP
0000
0000
0000
0000
0000
0000
1f80
0600
0600
3fc0
0000
0000
ENDCHAR
STARTCHAR 2528
ENCODING 9512
SWIDTH 960 0
DWIDTH 12 0
BBX 12 12 0 -2
BITMAP
0000
0000
0000
7fe0
0630
0600
0600
0600
0600
7ff0
0000
0000
ENDCHAR
STARTCHAR 2529
ENCODING 9513
SWIDTH 960 0
DWIDTH 12 0
BBX 12 12 0 -2
BITMAP
0000
0000
0000
0000
0300
0300
3fc0
0700
0d00
3b00
0300
0000
ENDCHAR
STARTCHAR 252a
ENCODING 9514
SWIDTH 960 0
DWIDTH 12 0
BBX 12 12 0 -2
BITMAP
0180
0180
0180
7ff0
0180
0180
0380
0680
1d80
7180
0180
0000
ENDCHAR
STARTCHAR 252b
ENCODING 9515
SWIDTH 960 0
DWIDTH 12 0
BBX 12 12 0 -2
BITMAP
0600
0600
0600
3fc0
0c60
0c60
0c60
1860
18c0
30c0
3180
0000
ENDCHAR
STARTCHAR 252c
ENCODING 9516
SWIDTH 960 0
DWIDTH 12 0
BBX 12 12 0 -2
BITMAP
0600
06d0
06d0
3fc0
0c60
0c60
0c60
1860
18c0
30c0
3180
0000
ENDCHAR
STARTCHAR 252d
ENCODING 9517
SWIDTH 960 0
DWIDTH 12 0
BBX 12 12 0 -2
BITMAP
0c00
0c00
0dc0
7e00
0600
07e0
7e00
0600
0300
0300
0300
0000
ENDCHAR
STARTCHAR 252e
ENCODING 9518
SWIDTH 960 0
DWIDTH 12 0
BBX 12 12 0 -2
BITMAP
0cd0
0cd0
0dc0
7e00
0600
07e0
7e00
0600
0300
0300
0300
0000
ENDCHAR
STARTCHAR 252f
ENCODING 9519
SWIDTH 960 0
DWIDTH 12 0
BBX 12 12 0 -2
BITMAP
0000
0000
1fc0
1860
1860
3060
3060
00c0
0180
0700
1c00
0000
ENDCHAR
STARTCHAR 2530
ENCODING 9520
SWIDTH 960 0
DWIDTH 12 0
BBX 12 12 0 -2
BITMAP
00d0
00d0
1fc0
1860
1860
3060
3060
00c0
0180
0700
1c00
0000
ENDCHAR
STARTCHAR 2531
ENCODING 9521
SWIDTH 960 0
DWIDTH 12 0
BBX 12 12 0 -2
BITMAP
0000
3000
3000
3fe0
3180
3180
6180
6300
0300
0600
3c00
0000
ENDCHAR
STARTCHAR 2532
ENCODING 9522
SWIDTH 960 0
DWIDTH 12 0
BBX 12 12 0 -2
BITMAP
0000
3068
3068
3fe0
3180
3180
6180
6300
0300
0600
3c00
0000
ENDCHAR
STARTCHAR 2533
ENCODING 9523
SWIDTH 960 0
DWIDTH 12 0
BBX 12 12 0 -2
BITMAP
0000
0000
3f80
00c0
0060
0060
0060
0060
0060
3fc0
0000
0000
ENDCHAR
STARTCHAR 2534
ENCODING 9524
SWIDTH 960 0
DWIDTH 12 0
BBX 12 12 0 -2
BITMAP
0000
00d0
7f50
0180
00c0
00c0
00c0
00c0
00c0
7f80
0000
0000
ENDCHAR
STARTCHAR 2535
ENCODING 9525
SWIDTH 960 0
DWIDTH 12 0
BBX 12 12 0 -2
BITMAP
0000
18c0
18c0
18c0
7ff0
18c0
18c0
0cc0
00c0
3180
1f00
0000
ENDCHAR
STARTCHAR 2536
ENCODING 9526
SWIDTH 960 0
DWIDTH 12 0
BBX 12 12 0 -2
BITMAP
0000
31a8
31a8
3180
ffe0
3180
3180
1980
0180
6300
3e00
0000
ENDCHAR
STARTCHAR 2537
ENCODING 9527
SWIDTH 960 0
DWIDTH 12 0
BBX 12 12 0 -2
BITMAP
0000
0000
3800
0e00
0000
7060
1c60
00c0
0180
c700
7c00
0000
ENDCHAR
STARTCHAR 2538
ENCODING 9528
SWIDTH 960 0
DWIDTH 12 0
BBX 12 12 0 -2
BITMAP
0000
00d0
38d0
0e00
0000
7060
1c60
00c0
0180
c700
7c00
0000
ENDCHAR
STARTCHAR 2539
ENCODING 9529
SWIDTH 960 0
DWIDTH 12 0
BBX 12 12 0 -2
BITMAP
0000
0000
1f80
70c0
00c0
0180
0300
0780
0cc0
3860
6030
0000
ENDCHAR
STARTCHAR 253a
ENCODING 9530
SWIDTH 960 0
DWIDTH 12 0
BBX 12 12 0 -2
BITMAP
0000
00d0
1fd0
70c0
00c0
0180
0300
0780
0cc0
3860
6030
0000
ENDCHAR
STARTCHAR 253b
ENCODING 9531
SWIDTH 960 0
DWIDTH 12 0
BBX 12 12 0 -2
BITMAP
0000
1800
1800
1bc0
fc60
1860
18c0
1b80
1800
1860
0fc0
0000
ENDCHAR
STARTCHAR 253c
ENCODING 9532
SWIDTH 960 0
DWIDTH 12 0
BBX 12 12 0 -2
BITMAP
0000
18d0
18d0
1bc0
fc60
1860
18c0
1b80
1800
1860
0fc0
0000
ENDCHAR
STARTCHAR 253d
ENCODING 9533
SWIDTH 960 0
DWIDTH 12 0
BBX 12 12 0 -2
BITMAP
0000
0000
6000
6060
3060
1860
0cc0
00c0
0180
6700
3c00
0000
ENDCHAR
STARTCHAR 253e
ENCODING 9534
SWIDTH 960 0
DWIDTH 12 0
BBX 12 12 0 -2
BITMAP
0000
00d0
60d0
6060
3060
1860
0cc0
00c0
0180
6700
3c00
0000
ENDCHAR
STARTCHAR 253f
ENCODING 9535
SWIDTH 960 0
DWIDTH 12 0
BBX 12 12 0 -2
BITMAP
0000
0000
1fc0
1860
3060
6c60
0cc0
07c0
0180
0700
3c00
0000
ENDCHAR
STARTCHAR 2540
ENCODING 9536
SWIDTH 960 0
DWIDTH 12 0
BBX 12 12 0 -2
BITMAP
0000
0068
1fe8
1860
3060
6c60
0cc0
07c0
0180
0700
3c00
0000
ENDCHAR
STARTCHAR 2541
ENCODING 9537
SWIDTH 960 0
DWIDTH 12 0
BBX 12 12 0 -2
BITMAP
0000
03c0
0f00
7b00
0300
fff0
0300
0300
0300
0600
3c00
0000
ENDCHAR
STARTCHAR 2542
ENCODING 9538
SWIDTH 960 0
DWIDTH 12 0
BBX 12 12 0 -2
BITMAP
0000
03d0
0f50
7b00
0300
fff0
0300
0300
0300
0600
3c00
0000
ENDCHAR
STARTCHAR 2543
ENCODING 9539
SWIDTH 960 0
DWIDTH 12 0
BBX 12 12 0 -2
BITMAP
0000
0000
0000
0000
0c00
34c0
36c0
1980
0180
0700
3c00
0000
ENDCHAR
STARTCHAR 2544
ENCODING 9540
SWIDTH 960 0
DWIDTH 12 0
BBX 12 12 0 -2
BITMAP
0000
0000
0c00
6c60
6660
3660
30c0
00c0
0180
0700
7c00
0000
ENDCHAR
STARTCHAR 2545
ENCODING 9541
SWIDTH 960 0
DWIDTH 12 0
BBX 12 12 0 -2
BITMAP
0000
00d0
0cd0
6c60
6660
3660
30c0
00c0
0180
0700
7c00
0000
ENDCHAR
STARTCHAR 2546
ENCODING 9542
SWIDTH 960 0
DWIDTH 12 0
BBX 12 12 0 -2
BITMAP
0000
0000
3fc0
0000
0000
fff0
0180
0180
0300
0e00
7800
0000
ENDCHAR
STARTCHAR 2547
ENCODING 9543
SWIDTH 960 0
DWIDTH 12 0
BBX 12 12 0 -2
BITMAP
0000
00d0
3fd0
0000
0000
fff0
0180
0180
0300
0e00
7800
0000
ENDCHAR
STARTCHAR 2548
ENCODING 9544
SWIDTH 960 0
DWIDTH 12 0
BBX 12 12 0 -2
BITMAP
1800
1800
1800
1800
1800
1e00
1b80
18e0
1800
1800
1800
0000
ENDCHAR
STARTCHAR 2549
ENCODING 9545
SWIDTH 960 0
DWIDTH 12 0
BBX 12 12 0 -2
BITMAP
1800
19a0
19a0
1800
1800
1e00
1b80
18e0
1800
1800
1800
0000
ENDCHAR
STARTCHAR 254a
ENCODING 9546
SWIDTH 960 0
DWIDTH 12 0
BBX 12 12 0 -2
BITMAP
0300
0300
0180
0180
fff0
0180
0180
0180
0300
0e00
7800
0000
ENDCHAR
STARTCHAR 254b
ENCODING 9547
SWIDTH 960 0
DWIDTH 12 0
BBX 12 12 0 -2
BITMAP
0000
0000
0000
3fc0
0000
0000
0000
0000
fff0
0000
0000
0000
ENDCHAR
STARTCHAR 254c
ENCODING 9548
SWIDTH 960 0
DWIDTH 12 0
BBX 12 12 0 -2
BITMAP
0000
0000
3fc0
0060
1860
0ec0
03c0
01a0
0730
1c00
7000
0000
ENDCHAR
STARTCHAR 254d
ENCODING 9549
SWIDTH 960 0
DWIDTH 12 0
BBX 12 12 0 -2
BITMAP
0600
0600
3fe0
00c0
0180
0300
0680
1ee0
7630
0600
0600
0000
ENDCHAR
STARTCHAR 254e
ENCODING 9550
SWIDTH 960 0
DWIDTH 12 0
BBX 12 12 0 -2
BITMAP
0000
0000
0060
0060
0060
00c0
00c0
0180
0700
7c00
0000
0000
ENDCHAR
STARTCHAR 254f
ENCODING 9551
SWIDTH 960 0
DWIDTH 12 0
BBX 12 12 0 -2
BITMAP
0000
0000
0000
0000
0180
18c0
30c0
3060
6060
6030
6030
0000
ENDCHAR
STARTCHAR 2550
ENCODING 9552
SWIDTH 960 0
DWIDTH 12 0
BBX 12 12 0 -2
BITMAP
0000
00d0
00d0
0000
0180
18c0
30c0
3060
6060
6030
6030
0000
ENDCHAR
STARTCHAR 2551
ENCODING 9553
SWIDTH 960 0
DWIDTH 12 0
BBX 12 12 0 -2
BITMAP
0000
00e0
01b0
00e0
0180
18c0
30c0
3060
6060
6030
6030
0000
ENDCHAR
STARTCHAR 2552
ENCODING 9554
SWIDTH 960 0
DWIDTH 12 0
BBX 12 12 0 -2
BITMAP
0000
3000
3000
3000
33e0
3e00
3000
3000
3000
1830
0fe0
0000
ENDCHAR
STARTCHAR 2553
ENCODING 9555
SWIDTH 960 0
DWIDTH 12 0
BBX 12 12 0 -2
BITMAP
0000
3000
30d0
30d0
33c0
3e00
3000
3000
3000
1830
0fe0
0000
ENDCHAR
STARTCHAR 2554
ENCODING 9556
SWIDTH 960 0
DWIDTH 12 0
BBX 12 12 0 -2
BITMAP
0000
30e0
31b0
30e0
33c0
3e00
3000
3000
3000
1830
0fe0
0000
ENDCHAR
STARTCHAR 2555
ENCODING 9557
SWIDTH 960 0
DWIDTH 12 0
BBX 12 12 0 -2
BITMAP
0000
0000
ff80
00c0
0060
0060
0060
00c0
0180
6700
3c00
0000
ENDCHAR
STARTCHAR 2556
ENCODING 9558
SWIDTH 960 0
DWIDTH 12 0
BBX 12 12 0 -2
BITMAP
00d0
00d0
ff80
00c0
0060
0060
0060
00c0
0180
6700
3c00
0000
ENDCHAR
STARTCHAR 2557
ENCODING 9559
SWIDTH 960 0
DWIDTH 12 0
BBX 12 12 0 -2
BITMAP
0000
00e0
ffb0
00e0
0060
0060
0060
00c0
0180
6700
3c00
0000
ENDCHAR
STARTCHAR 2558
ENCODING 9560
SWIDTH 960 0
DWIDTH 12 0
BBX 12 12 0 -2
BITMAP
0000
0000
0f00
1980
30c0
6060
6060
0030
0030
0000
0000
0000
ENDCHAR
STARTCHAR 2559
ENCODING 9561
SWIDTH 960 0
DWIDTH 12 0
BBX 12 12 0 -2
BITMAP
0000
00d0
0f50
1980
30c0
6060
6060
0030
0030
0000
0000
0000
ENDCHAR
STARTCHAR 255a
ENCODING 9562
SWIDTH 960 0
DWIDTH 12 0
BBX 12 12 0 -2
BITMAP
0000
0070
0f58
19b0
30c0
6060
6060
0030
0030
0000
0000
0000
ENDCHAR
STARTCHAR 255b
ENCODING 9563
SWIDTH 960 0
DWIDTH 12 0
BBX 12 12 0 -2
BITMAP
0600
0600
0600
7fe0
0600
1ac0
3660
6660
6630
0600
0600
0000
ENDCHAR
STARTCHAR 255c
ENCODING 9564
SWIDTH 960 0
DWIDTH 12 0
BBX 12 12 0 -2
BITMAP
0600
06d0
06d0
7fe0
0600
1ac0
3660
6660
6630
0600
0600
0000
ENDCHAR
STARTCHAR 255d
ENCODING 9565
SWIDTH 960 0
DWIDTH 12 0
BBX 12 12 0 -2
BITMAP
0600
0670
06d8
7ff0
0600
1ac0
3660
6660
6630
0600
0600
0000
ENDCHAR
STARTCHAR 255e
ENCODING 9566
SWIDTH 960 0
DWIDTH 12 0
BBX 12 12 0 -2
BITMAP
0000
0000
3f80
e0c0
0060
3060
19c0
0f00
0600
0300
0000
0000
ENDCHAR
STARTCHAR 255f
ENCODING 9567
SWIDTH 960 0
DWIDTH 12 0
BBX 12 12 0 -2
BITMAP
0000
1e00
03c0
0060
0000
1e00
0380
00c0
3c00
0700
01c0
0000
ENDCHAR
STARTCHAR 2560
ENCODING 9568
SWIDTH 960 0
DWIDTH 12 0
BBX 12 12 0 -2
BITMAP
0000
0600
0600
0c00
0c00
18c0
30c0
6060
67e0
3c30
0030
0000
ENDCHAR
STARTCHAR 2561
ENCODING 9569
SWIDTH 960 0
DWIDTH 12 0
BBX 12 12 0 -2
BITMAP
0000
0060
0060
3060
1cc0
0740
0180
0340
0660
1c00
7000
0000
ENDCHAR
STARTCHAR 2562
ENCODING 9570
SWIDTH 960 0
DWIDTH 12 0
BBX 12 12 0 -2
BITMAP
0000
0000
7fc0
1800
1800
1800
fff0
1800
1800
0c30
07e0
0000
ENDCHAR
STARTCHAR 2563
ENCODING 9571
SWIDTH 960 0
DWIDTH 12 0
BBX 12 12 0 -2
BITMAP
0000
0000
0000
0000
0c00
0c00
3fe0
0cc0
0d80
0c00
0c00
0000
ENDCHAR
STARTCHAR 2564
ENCODING 9572
SWIDTH 960 0
DWIDTH 12 0
BBX 12 12 0 -2
BITMAP
1800
1800
1800
ffe0
1830
1860
0dc0
0c00
0c00
0c00
0c00
0000
ENDCHAR
STARTCHAR 2565
ENCODING 9573
SWIDTH 960 0
DWIDTH 12 0
BBX 12 12 0 -2
BITMAP
0000
0000
0000
0000
0000
0000
3e00
0300
0300
7fc0
0000
0000
ENDCHAR
STARTCHAR 2566
ENCODING 9574
SWIDTH 960 0
DWIDTH 12 0
BBX 12 12 0 -2
BITMAP
0000
0000
0000
7e00
0300
0180
0180
0180
0180
fff0
0000
0000
ENDCHAR
STARTCHAR 2567
ENCODING 9575
SWIDTH 960 0
DWIDTH 12 0
BBX 12 12 0 -2
BITMAP
0000
0000
0000
0000
0000
3f00
0180
1e80
0380
0180
3f80
0000
ENDCHAR
STARTCHAR 2568
ENCODING 9576
SWIDTH 960 0
DWIDTH 12 0
BBX 12 12 0 -2
BITMAP
0000
0000
7fc0
0060
0060
3f60
01e0
0060
0060
00c0
7f80
0000
ENDCHAR
STARTCHAR 2569
ENCODING 9577
SWIDTH 960 0
DWIDTH 12 0
BBX 12 12 0 -2
BITMAP
0000
3fc0
0000
0000
7fc0
0060
0060
00c0
0180
0700
3c00
0000
ENDCHAR
STARTCHAR 256a
ENCODING 9578
SWIDTH 960 0
DWIDTH 12 0
BBX 12 12 0 -2
BITMAP
0000
3180
30c0
30c0
30c0
30c0
30c0
00c0
0180
3700
1c00
0000
ENDCHAR
STARTCHAR 256b
ENCODING 9579
SWIDTH 960 0
DWIDTH 12 0
BBX 12 12 0 -2
BITMAP
0000
0600
3600
3600
3600
3630
3630
3660
66c0
6380
6000
0000
ENDCHAR
STARTCHAR 256c
ENCODING 9580
SWIDTH 960 0
DWIDTH 12 0
BBX 12 12 0 -2
BITMAP
0000
3000
3000
3000
3000
3000
3060
30c0
3180
3700
1c00
0000
ENDCHAR
STARTCHAR 256d
ENCODING 9581
SWIDTH 960 0
DWIDTH 12 0
BBX 12 12 0 -2
BITMAP
0000
0000
6f80
60c0
6060
6060
6060
6060
6060
3fc0
0000
0000
ENDCHAR
STARTCHAR 256e
ENCODING 9582
SWIDTH 960 0
DWIDTH 12 0
BBX 12 12 0 -2
BITMAP
0000
0000
0000
0000
0000
1f00
3180
3180
0180
0300
1e00
0000
ENDCHAR
STARTCHAR 256f
ENCODING 9583
SWIDTH 960 0
DWIDTH 12 0
BBX 12 12 0 -2
BITMAP
0000
0000
3fc0
6060
6060
6060
0060
00c0
00c0
3380
1e00
0000
ENDCHAR
STARTCHAR 2570
ENCODING 9584
SWIDTH 960 0
DWIDTH 12 0
BBX 12 12 0 -2
BITMAP
0180
0180
0180
7fe0
1980
3180
3180
fff0
0180
0180
0180
0000
ENDCHAR
STARTCHAR 2571
ENCODING 9585
SWIDTH 960 0
DWIDTH 12 0
BBX 12 12 0 -2
BITMAP
0000
0000
7fc0
0060
06c0
0780
0600
0600
0600
7fe0
0000
0000
ENDCHAR
STARTCHAR 2572
ENCODING 9586
SWIDTH 960 0
DWIDTH 12 0
BBX 12 12 0 -2
BITMAP
0000
0000
7fc0
0060
00e0
7fa0
0060
00c0
00c0
0380
3e00
0000
ENDCHAR
STARTCHAR 2573
ENCODING 9587
SWIDTH 960 0
DWIDTH 12 0
BBX 12 12 0 -2
BITMAP
0000
0000
7000
1800
0c60
0060
00c0
00c0
0180
c700
7c00
0000
ENDCHAR
STARTCHAR 2574
ENCODING 9588
SWIDTH 960 0
DWIDTH 12 0
BBX 12 12 0 -2
BITMAP
06d0
06d0
0600
3fc0
6060
6060
3060
0060
00c0
0380
1e00
0000
ENDCHAR
STARTCHAR 2575
ENCODING 9589
SWIDTH 960 0
DWIDTH 12 0
BBX 12 12 0 -2
BITMAP
0000
0000
0000
0000
0c00
0c00
7f00
1980
1980
3300
3300
0000
ENDCHAR
STARTCHAR 2576
ENCODING 9590
SWIDTH 960 0
DWIDTH 12 0
BBX 12 12 0 -2
BITMAP
0000
0000
0000
0000
1800
1800
1fc0
3180
3180
0300
0e00
0000
ENDCHAR
STARTCHAR 2621
ENCODING 9761
SWIDTH 960 0
DWIDTH 12 0
BBX 12 12 0 -2
BITMAP
0000
0600
0600
0d00
0d00
1980
1980
1f80
30c0
30c0
79e0
0000
ENDCHAR
STARTCHAR 2622
ENCODING 9762
SWIDTH 960 0
DWIDTH 12 0
BBX 12 12 0 -2
BITMAP
0000
3f00
1980
18c0
1980
1f00
1980
18c0
18c0
1980
3f00
0000
ENDCHAR
STARTCHAR 2623
ENCODING 9763
SWIDTH 960 0
DWIDTH 12 0
BBX 12 12 0 -2
BITMAP
0000
3f80
1980
18c0
1800
1800
1800
1800
1800
1800
3c00
0000
ENDCHAR
STARTCHAR 2624
ENCODING 9764
SWIDTH 960 0
DWIDTH 12 0
BBX 12 12 0 -2
BITMAP
0000
0600
0600
0600
0d00
0d00
1980
1980
30c0
30c0
7fe0
0000
ENDCHAR
STARTCHAR 2625
ENCODING 9765
SWIDTH 960 0
DWIDTH 12 0
BBX 12 12 0 -2
BITMAP
0000
3fc0
1860
1800
1980
1f80
1980
1800
1860
1860
3fc0
0000
ENDCHAR
STARTCHAR 2626
ENCODING 9766
SWIDTH 960 0
DWIDTH 12 0
BBX 12 12 0 -2
BITMAP
0000
3fe0
30c0
6180
0300
0600
0600
0c00
1860
3060
7fe0
0000
ENDCHAR
STARTCHAR 2627
ENCODING 9767
SWIDTH 960 0
DWIDTH 12 0
BBX 12 12 0 -2
BITMAP
0000
79e0
30c0
30c0
30c0
3fc0
30c0
30c0
30c0
30c0
79e0
0000
ENDCHAR
STARTCHAR 2628
ENCODING 9768
SWIDTH 960 0
DWIDTH 12 0
BBX 12 12 0 -2
BITMAP
0000
0f00
1980
30c0
69a0
6fa0
69a0
6060
30c0
1980
0f00
0000
ENDCHAR
STARTCHAR 2629
ENCODING 9769
SWIDTH 960 0
DWIDTH 12 0
BBX 12 12 0 -2
BITMAP
0000
0f00
0600
0600
0600
0600
0600
0600
0600
0600
0f00
0000
ENDCHAR
STARTCHAR 262a
ENCODING 9770
SWIDTH 960 0
DWIDTH 12 0
BBX 12 12 0 -2
BITMAP
0000
3dc0
1980
1b00
1a00
1c00
1a00
1b00
1980
18c0
3de0
0000
ENDCHAR
STARTCHAR 262b
ENCODING 9771
SWIDTH 960 0
DWIDTH 12 0
BBX 12 12 0 -2
BITMAP
0000
0600
0600
0d00
0d00
1980
1980
1980
30c0
30c0
79e0
0000
ENDCHAR
STARTCHAR 262c
ENCODING 9772
SWIDTH 960 0
DWIDTH 12 0
BBX 12 12 0 -2
BITMAP
0000
e070
6060
70e0
70e0
69a0
69a0
6d60
6d60
6660
f6f0
0000
ENDCHAR
STARTCHAR 262d
ENCODING 9773
SWIDTH 960 0
DWIDTH 12 0
BBX 12 12 0 -2
BITMAP
0000
39e0
1cc0
1ac0
1ac0
1b40
1b40
19c0
19c0
18c0
3cc0
0000
ENDCHAR
STARTCHAR 262e
ENCODING 9774
SWIDTH 960 0
DWIDTH 12 0
BBX 12 12 0 -2
BITMAP
0000
3fe0
3060
0000
18c0
1fc0
18c0
0000
0000
3060
3fe0
0000
ENDCHAR
STARTCHAR 262f
ENCODING 9775
SWIDTH 960 0
DWIDTH 12 0
BBX 12 12 0 -2
BITMAP
0000
0f00
1980
30c0
6060
6060
6060
6060
30c0
1980
0f00
0000
ENDCHAR
STARTCHAR 2630
ENCODING 9776
SWIDTH 960 0
DWIDTH 12 0
BBX 12 12 0 -2
BITMAP
0000
7fe0
30c0
30c0
30c0
30c0
30c0
30c0
30c0
30c0
79e0
0000
ENDCHAR
STARTCHAR 2631
ENCODING 9777
SWIDTH 960 0
DWIDTH 12 0
BBX 12 12 0 -2
BITMAP
0000
3f00
1980
18c0
18c0
1980
1f00
1800
1800
1800
3c00
0000
ENDCHAR
STARTCHAR 2632
ENCODING 9778
SWIDTH 960 0
DWIDTH 12 0
BBX 12 12 0 -2
BITMAP
0000
7f80
3180
18c0
0c00
0600
0600
0c00
1860
3060
7fc0
0000
ENDCHAR
STARTCHAR 2633
ENCODING 9779
SWIDTH 960 0
DWIDTH 12 0
BBX 12 12 0 -2
BITMAP
0000
7fe0
6660
6660
0600
0600
0600
0600
0600
0600
0f00
0000
ENDCHAR
STARTCHAR 2634
ENCODING 9780
SWIDTH 960 0
DWIDTH 12 0
BBX 12 12 0 -2
BITMAP
0000
3dc0
6660
6660
0600
0600
0600
0600
0600
0600
0f00
0000
ENDCHAR
STARTCHAR 2635
ENCODING 9781
SWIDTH 960 0
DWIDTH 12 0
BBX 12 12 0 -2
BITMAP
0000
0f00
0600
1f80
36c0
36c0
36c0
1f80
0600
0600
0f00
0000
ENDCHAR
STARTCHAR 2636
ENCODING 9782
SWIDTH 960 0
DWIDTH 12 0
BBX 12 12 0 -2
BITMAP
0000
79e0
30c0
1980
0d00
0600
0600
0d00
1980
30c0
79e0
0000
ENDCHAR
STARTCHAR 2637
ENCODING 9783
SWIDTH 960 0
DWIDTH 12 0
BBX 12 12 0 -2
BITMAP
0000
0f00
6660
36c0
36c0
36c0
1a80
0f00
0600
0600
0f00
0000
ENDCHAR
STARTCHAR 2638
ENCODING 9784
SWIDTH 960 0
DWIDTH 12 0
BBX 12 12 0 -2
BITMAP
0000
0f00
1980
30c0
30c0
30c0
30c0
1980
6d60
6d60
7de0
0000
ENDCHAR
STARTCHAR 2641
ENCODING 9793
SWIDTH 960 0
DWIDTH 12 0
BBX 12 12 0 -2
BITMAP
0000
0000
0000
0000
0ec0
1b40
3380
3300
3600
3700
1dc0
0000
ENDCHAR
STARTCHAR 2642
ENCODING 9794
SWIDTH 960 0
DWIDTH 12 0
BBX 12 12 0 -2
BITMAP
0000
0380
06c0
06c0
0d80
0d00
1980
1980
3b00
3600
6000
6000
ENDCHAR
STARTCHAR 2643
ENCODING 9795
SWIDTH 960 0
DWIDTH 12 0
BBX 12 12 0 -2
BITMAP
0000
0000
0000
1ce0
3680
0300
0600
0600
0c00
0c00
1800
0000
ENDCHAR
STARTCHAR 2644
ENCODING 9796
SWIDTH 960 0
DWIDTH 12 0
BBX 12 12 0 -2
BITMAP
0000
0700
0dc0
0600
0300
0700
0d80
1980
3180
3300
1e00
0000
ENDCHAR
STARTCHAR 2645
ENCODING 9797
SWIDTH 960 0
DWIDTH 12 0
BBX 12 12 0 -2
BITMAP
0000
0000
0000
0f00
1980
1800
0e00
1800
3180
3300
1e00
0000
ENDCHAR
STARTCHAR 2646
ENCODING 9798
SWIDTH 960 0
DWIDTH 12 0
BBX 12 12 0 -2
BITMAP
0000
0c00
0dc0
0780
0600
0c00
1800
1800
1800
0e00
3300
1e00
ENDCHAR
STARTCHAR 2647
ENCODING 9799
SWIDTH 960 0
DWIDTH 12 0
BBX 12 12 0 -2
BITMAP
0000
0000
0000
0000
1b80
36c0
0cc0
1980
1980
3300
0300
0300
ENDCHAR
STARTCHAR 2648
ENCODING 9800
SWIDTH 960 0
DWIDTH 12 0
BBX 12 12 0 -2
BITMAP
0000
0380
06c0
0cc0
18c0
1fc0
3180
3180
3300
3600
1c00
0000
ENDCHAR
STARTCHAR 2649
ENCODING 9801
SWIDTH 960 0
DWIDTH 12 0
BBX 12 12 0 -2
BITMAP
0000
0000
0000
0300
0600
0c00
0c00
1800
18c0
1b80
0e00
0000
ENDCHAR
STARTCHAR 264a
ENCODING 9802
SWIDTH 960 0
DWIDTH 12 0
BBX 12 12 0 -2
BITMAP
0000
0000
0000
18c0
0d80
0d00
1e00
1a00
36c0
36c0
6380
0000
ENDCHAR
STARTCHAR 264b
ENCODING 9803
SWIDTH 960 0
DWIDTH 12 0
BBX 12 12 0 -2
BITMAP
0000
0000
0e00
0300
0300
0300
0700
0d00
1980
3180
30e0
0000
ENDCHAR
STARTCHAR 264c
ENCODING 9804
SWIDTH 960 0
DWIDTH 12 0
BBX 12 12 0 -2
BITMAP
0000
0000
0000
0cc0
0cc0
18c0
1980
3180
3b80
36e0
6000
6000
ENDCHAR
STARTCHAR 264d
ENCODING 9805
SWIDTH 960 0
DWIDTH 12 0
BBX 12 12 0 -2
BITMAP
0000
0000
0000
0000
18c0
0cc0
0d80
1980
1b00
1a00
3c00
0000
ENDCHAR
STARTCHAR 264e
ENCODING 9806
SWIDTH 960 0
DWIDTH 12 0
BBX 12 12 0 -2
BITMAP
0000
0600
03c0
0600
0c00
0700
0c00
1800
0f00
0180
1980
0f00
ENDCHAR
STARTCHAR 264f
ENCODING 9807
SWIDTH 960 0
DWIDTH 12 0
BBX 12 12 0 -2
BITMAP
0000
0000
0000
0000
0f00
1980
3180
3180
3180
3300
1e00
0000
ENDCHAR
STARTCHAR 2650
ENCODING 9808
SWIDTH 960 0
DWIDTH 12 0
BBX 12 12 0 -2
BITMAP
0000
0000
0000
0060
1fc0
3580
0d00
1b00
1a00
36c0
6380
0000
ENDCHAR
STARTCHAR 2651
ENCODING 9809
SWIDTH 960 0
DWIDTH 12 0
BBX 12 12 0 -2
BITMAP
0000
0000
0000
0780
0cc0
18c0
18c0
1d80
1b00
3000
3000
3000
ENDCHAR
STARTCHAR 2652
ENCODING 9810
SWIDTH 960 0
DWIDTH 12 0
BBX 12 12 0 -2
BITMAP
0000
0000
0000
0060
07c0
1d00
3180
3180
3180
1b00
0e00
0000
ENDCHAR
STARTCHAR 2653
ENCODING 9811
SWIDTH 960 0
DWIDTH 12 0
BBX 12 12 0 -2
BITMAP
0000
0000
00c0
1f80
3600
0600
0c00
0c00
1800
1b00
0e00
0000
ENDCHAR
STARTCHAR 2654
ENCODING 9812
SWIDTH 960 0
DWIDTH 12 0
BBX 12 12 0 -2
BITMAP
0000
0000
0000
0000
3180
68c0
18c0
1980
3180
3700
1c00
0000
ENDCHAR
STARTCHAR 2655
ENCODING 9813
SWIDTH 960 0
DWIDTH 12 0
BBX 12 12 0 -2
BITMAP
0000
0180
0180
0300
0f80
1b40
3360
3660
36c0
1f80
0c00
0c00
ENDCHAR
STARTCHAR 2656
ENCODING 9814
SWIDTH 960 0
DWIDTH 12 0
BBX 12 12 0 -2
BITMAP
0000
0000
00c0
18c0
3580
3700
0600
0e00
1a00
3340
3180
0000
ENDCHAR
STARTCHAR 2657
ENCODING 9815
SWIDTH 960 0
DWIDTH 12 0
BBX 12 12 0 -2
BITMAP
0000
0180
0180
3340
1b60
1b60
3660
36c0
1f80
0c00
0c00
0c00
ENDCHAR
STARTCHAR 2658
ENCODING 9816
SWIDTH 960 0
DWIDTH 12 0
BBX 12 12 0 -2
BITMAP
0000
0000
0000
0000
18c0
3060
3060
6660
6660
6ec0
3b80
0000
ENDCHAR
STARTCHAR 2721
ENCODING 10017
SWIDTH 960 0
DWIDTH 12 0
BBX 12 12 0 -2
BITMAP
0000
0600
0600
0d00
0d00
1980
1980
1f80
30c0
30c0
79e0
0000
ENDCHAR
STARTCHAR 2722
ENCODING 10018
SWIDTH 960 0
DWIDTH 12 0
BBX 12 12 0 -2
BITMAP
0000
3fc0
18c0
1800
1800
1f00
1980
18c0
18c0
1980
3f00
0000
ENDCHAR
STARTCHAR 2723
ENCODING 10019
SWIDTH 960 0
DWIDTH 12 0
BBX 12 12 0 -2
BITMAP
0000
3f00
1980
18c0
1980
1f00
1980
18c0
18c0
1980
3f00
0000
ENDCHAR
STARTCHAR 2724
ENCODING 10020
SWIDTH 960 0
DWIDTH 12 0
BBX 12 12 0 -2
BITMAP
0000
3f80
1980
18c0
1800
1800
1800
1800
1800
1800
3c00
0000
ENDCHAR
STARTCHAR 2725
ENCODING 10021
SWIDTH 960 0
DWIDTH 12 0
BBX 12 12 0 -2
BITMAP
0000
1fe0
0d80
0d80
0d80
0d80
0d80
1980
1980
3180
7fe0
6060
ENDCHAR
STARTCHAR 2726
ENCODING 10022
SWIDTH 960 0
DWIDTH 12 0
BBX 12 12 0 -2
BITMAP
0000
3fc0
1860
1800
1980
1f80
1980
1800
1860
1860
3fc0
0000
ENDCHAR
STARTCHAR 2727
ENCODING 10023
SWIDTH 960 0
DWIDTH 12 0
BBX 12 12 0 -2
BITMAP
1dc0
0000
3fc0
1860
1800
1980
1f80
1980
1860
1860
3fc0
0000
ENDCHAR
STARTCHAR 2728
ENCODING 10024
SWIDTH 960 0
DWIDTH 12 0
BBX 12 12 0 -2
BITMAP
0000
6f60
36c0
36c0
1a80
0f00
1a80
3680
36c0
36c0
7760
0000
ENDCHAR
STARTCHAR 2729
ENCODING 10025
SWIDTH 960 0
DWIDTH 12 0
BBX 12 12 0 -2
BITMAP
0000
0f00
1980
3180
0180
0700
0180
00c0
30c0
3980
3700
0000
ENDCHAR
STARTCHAR 272a
ENCODING 10026
SWIDTH 960 0
DWIDTH 12 0
BBX 12 12 0 -2
BITMAP
0000
3ce0
19c0
1b40
1b40
1ac0
1ac0
1cc0
1cc0
18c0
3de0
0000
ENDCHAR
STARTCHAR 272b
ENCODING 10027
SWIDTH 960 0
DWIDTH 12 0
BBX 12 12 0 -2
BITMAP
0d80
0700
3ce0
19c0
1b40
1b40
1ac0
1cc0
1cc0
18c0
3de0
0000
ENDCHAR
STARTCHAR 272c
ENCODING 10028
SWIDTH 960 0
DWIDTH 12 0
BBX 12 12 0 -2
BITMAP
0000
3cc0
19a0
1b00
1a00
1c00
1a00
1b00
1980
18c0
3de0
0000
ENDCHAR
STARTCHAR 272d
ENCODING 10029
SWIDTH 960 0
DWIDTH 12 0
BBX 12 12 0 -2
BITMAP
0000
1fe0
06c0
06c0
06c0
06c0
0cc0
0cc0
0cc0
68c0
31e0
0000
ENDCHAR
STARTCHAR 272e
ENCODING 10030
SWIDTH 960 0
DWIDTH 12 0
BBX 12 12 0 -2
BITMAP
0000
70e0
30c0
39c0
39c0
3540
3540
6660
6660
6660
f0f0
0000
ENDCHAR
STARTCHAR 272f
ENCODING 10031
SWIDTH 960 0
DWIDTH 12 0
BBX 12 12 0 -2
BITMAP
0000
79e0
30c0
30c0
30c0
3fc0
30c0
30c0
30c0
30c0
79e0
0000
ENDCHAR
STARTCHAR 2730
ENCODING 10032
SWIDTH 960 0
DWIDTH 12 0
BBX 12 12 0 -2
BITMAP
0000
0f00
1980
30c0
6060
6060
6060
6060
30c0
1980
0f00
0000
ENDCHAR
STARTCHAR 2731
ENCODING 10033
SWIDTH 960 0
DWIDTH 12 0
BBX 12 12 0 -2
BITMAP
0000
7fc0
3180
3180
3180
3180
3180
3180
3180
3180
7bc0
0000
ENDCHAR
STARTCHAR 2732
ENCODING 10034
SWIDTH 960 0
DWIDTH 12 0
BBX 12 12 0 -2
BITMAP
0000
3f00
1980
18c0
18c0
1980
1f00
1800
1800
1800
3c00
0000
ENDCHAR
STARTCHAR 2733
ENCODING 10035
SWIDTH 960 0
DWIDTH 12 0
BBX 12 12 0 -2
BITMAP
0000
07a0
0ce0
1860
3000
3000
3000
3000
1860
0cc0
0780
0000
ENDCHAR
STARTCHAR 2734
ENCODING 10036
SWIDTH 960 0
DWIDTH 12 0
BBX 12 12 0 -2
BITMAP
0000
7fe0
6660
6660
0600
0600
0600
0600
0600
0600
0f00
0000
ENDCHAR
STARTCHAR 2735
ENCODING 10037
SWIDTH 960 0
DWIDTH 12 0
BBX 12 12 0 -2
BITMAP
0000
79e0
30c0
1980
1980
0d00
0d00
0600
0600
3600
1c00
0000
ENDCHAR
STARTCHAR 2736
ENCODING 10038
SWIDTH 960 0
DWIDTH 12 0
BBX 12 12 0 -2
BITMAP
0000
0f00
0600
1f80
36c0
6660
6660
36c0
1f80
0600
0f00
0000
ENDCHAR
STARTCHAR 2737
ENCODING 10039
SWIDTH 960 0
DWIDTH 12 0
BBX 12 12 0 -2
BITMAP
0000
79e0
30c0
1980
0d00
0600
0600
0d00
1980
30c0
79e0
0000
ENDCHAR
STARTCHAR 2738
ENCODING 10040
SWIDTH 960 0
DWIDTH 12 0
BBX 12 12 0 -2
BITMAP
0000
7bc0
3180
3180
3180
3180
3180
3180
3180
3180
7fe0
0060
ENDCHAR
STARTCHAR 2739
ENCODING 10041
SWIDTH 960 0
DWIDTH 12 0
BBX 12 12 0 -2
BITMAP
0000
7bc0
3180
3180
3180
3180
1b80
0e80
0180
0180
03c0
0000
ENDCHAR
STARTCHAR 273a
ENCODING 10042
SWIDTH 960 0
DWIDTH 12 0
BBX 12 12 0 -2
BITMAP
0000
f770
6660
6660
6660
6660
6660
6660
6660
6660
fff0
0000
ENDCHAR
STARTCHAR 273b
ENCODING 10043
SWIDTH 960 0
DWIDTH 12 0
BBX 12 12 0 -2
BITMAP
0000
f770
6660
6660
6660
6660
6660
6660
6660
6660
fff8
0018
ENDCHAR
STARTCHAR 273c
ENCODING 10044
SWIDTH 960 0
DWIDTH 12 0
BBX 12 12 0 -2
BITMAP
0000
3c00
6c00
0c00
0c00
0f80
0cc0
0c60
0c60
0cc0
1f80
0000
ENDCHAR
STARTCHAR 273d
ENCODING 10045
SWIDTH 960 0
DWIDTH 12 0
BBX 12 12 0 -2
BITMAP
0000
71e0
30c0
30c0
30c0
3cc0
36c0
3340
3340
36c0
7de0
0000
ENDCHAR
STARTCHAR 273e
ENCODING 10046
SWIDTH 960 0
DWIDTH 12 0
BBX 12 12 0 -2
BITMAP
0000
3800
1800
1800
1f00
1980
18c0
18c0
18c0
1980
1f00
0000
ENDCHAR
STARTCHAR 273f
ENCODING 10047
SWIDTH 960 0
DWIDTH 12 0
BBX 12 12 0 -2
BITMAP
0000
3700
3980
30c0
00c0
0ec0
1bc0
00c0
30c0
1980
0f00
0000
ENDCHAR
STARTCHAR 2740
ENCODING 10048
SWIDTH 960 0
DWIDTH 12 0
BBX 12 12 0 -2
BITMAP
0000
f380
66c0
6c60
6c60
7c60
6c60
6c60
6c60
66c0
f380
0000
ENDCHAR
STARTCHAR 2741
ENCODING 10049
SWIDTH 960 0
DWIDTH 12 0
BBX 12 12 0 -2
BITMAP
0000
0fe0
18c0
30c0
18c0
0fc0
0340
06c0
0cc0
18c0
79e0
0000
ENDCHAR
STARTCHAR 2751
ENCODING 10065
SWIDTH 960 0
DWIDTH 12 0
BBX 12 12 0 -2
BITMAP
0000
0000
0000
0000
0700
0d80
0780
0d80
1980
1b00
0ec0
0000
ENDCHAR
STARTCHAR 2752
ENCODING 10066
SWIDTH 960 0
DWIDTH 12 0
BBX 12 12 0 -2
BITMAP
0000
0380
0e00
1800
3000
3600
3b00
3180
3180
1b00
0e00
0000
ENDCHAR
STARTCHAR 2753
ENCODING 10067
SWIDTH 960 0
DWIDTH 12 0
BBX 12 12 0 -2
BITMAP
0000
0000
0000
0000
3f00
1980
1980
1f00
1980
1980
3f00
0000
ENDCHAR
STARTCHAR 2754
ENCODING 10068
SWIDTH 960 0
DWIDTH 12 0
BBX 12 12 0 -2
BITMAP
0000
0000
0000
0000
3f00
1980
1800
1800
1800
1800
3c00
0000
ENDCHAR
STARTCHAR 2755
ENCODING 10069
SWIDTH 960 0
DWIDTH 12 0
BBX 12 12 0 -2
BITMAP
0000
0000
0000
0000
1fc0
0d80
0d80
0d80
1980
1980
7fc0
60c0
ENDCHAR
STARTCHAR 2756
ENCODING 10070
SWIDTH 960 0
DWIDTH 12 0
BBX 12 12 0 -2
BITMAP
0000
0000
0000
0000
0e00
1b00
3180
3f80
3000
1980
0f00
0000
ENDCHAR
STARTCHAR 2757
ENCODING 10071
SWIDTH 960 0
DWIDTH 12 0
BBX 12 12 0 -2
BITMAP
0000
0000
1b00
0000
0e00
1b00
3180
3f80
3000
1980
0f00
0000
ENDCHAR
STARTCHAR 2758
ENCODING 10072
SWIDTH 960 0
DWIDTH 12 0
BBX 12 12 0 -2
BITMAP
0000
0000
0000
0000
7760
1a80
1a80
0f00
1a80
36c0
7760
0000
ENDCHAR
STARTCHAR 2759
ENCODING 10073
SWIDTH 960 0
DWIDTH 12 0
BBX 12 12 0 -2
BITMAP
0000
0000
0000
0000
0780
1cc0
00c0
0780
00c0
18c0
0f80
0000
ENDCHAR
STARTCHAR 275a
ENCODING 10074
SWIDTH 960 0
DWIDTH 12 0
BBX 12 12 0 -2
BITMAP
0000
0000
0000
0000
3de0
19c0
1b40
1ac0
1cc0
18c0
3de0
0000
ENDCHAR
STARTCHAR 275b
ENCODING 10075
SWIDTH 960 0
DWIDTH 12 0
BBX 12 12 0 -2
BITMAP
0000
0d80
0700
0000
3de0
19c0
1b40
1ac0
1cc0
18c0
3de0
0000
ENDCHAR
STARTCHAR 275c
ENCODING 10076
SWIDTH 960 0
DWIDTH 12 0
BBX 12 12 0 -2
BITMAP
0000
0000
0000
0000
3d80
1b40
1a00
1c00
1a00
1b00
3dc0
0000
ENDCHAR
STARTCHAR 275d
ENCODING 10077
SWIDTH 960 0
DWIDTH 12 0
BBX 12 12 0 -2
BITMAP
0000
0000
0000
0000
1f80
0d00
0d00
0d00
1b00
6b00
3780
0000
ENDCHAR
STARTCHAR 275e
ENCODING 10078
SWIDTH 960 0
DWIDTH 12 0
BBX 12 12 0 -2
BITMAP
0000
0000
0000
0000
70e0
39c0
39c0
3540
3540
36c0
7ae0
0000
ENDCHAR
STARTCHAR 275f
ENCODING 10079
SWIDTH 960 0
DWIDTH 12 0
BBX 12 12 0 -2
BITMAP
0000
0000
0000
0000
3dc0
1980
1980
1f80
1980
1980
3dc0
0000
ENDCHAR
STARTCHAR 2760
ENCODING 10080
SWIDTH 960 0
DWIDTH 12 0
BBX 12 12 0 -2
BITMAP
0000
0000
0000
0000
0f00
1980
30c0
30c0
30c0
1980
0f00
0000
ENDCHAR
STARTCHAR 2761
ENCODING 10081
SWIDTH 960 0
DWIDTH 12 0
BBX 12 12 0 -2
BITMAP
0000
0000
0000
0000
3fc0
1980
1980
1980
1980
1980
3dc0
0000
ENDCHAR
STARTCHAR 2762
ENCODING 10082
SWIDTH 960 0
DWIDTH 12 0
BBX 12 12 0 -2
BITMAP
0000
0000
0000
0000
3b00
1d80
18c0
18c0
1d80
1b00
1800
3c00
ENDCHAR
STARTCHAR 2763
ENCODING 10083
SWIDTH 960 0
DWIDTH 12 0
BBX 12 12 0 -2
BITMAP
0000
0000
0000
0000
0f00
1980
3000
3000
3000
1980
0f00
0000
ENDCHAR
STARTCHAR 2764
ENCODING 10084
SWIDTH 960 0
DWIDTH 12 0
BBX 12 12 0 -2
BITMAP
0000
0000
0000
0000
3fc0
36c0
0600
0600
0600
0600
0f00
0000
ENDCHAR
STARTCHAR 2765
ENCODING 10085
SWIDTH 960 0
DWIDTH 12 0
BBX 12 12 0 -2
BITMAP
0000
0000
0000
3de0
18c0
0cc0
0680
0380
0300
0600
3600
1c00
ENDCHAR
STARTCHAR 2766
ENCODING 10086
SWIDTH 960 0
DWIDTH 12 0
BBX 12 12 0 -2
BITMAP
0000
0f00
0600
1a80
3740
6660
6660
6660
3740
1a80
0600
0f00
ENDCHAR
STARTCHAR 2767
ENCODING 10087
SWIDTH 960 0
DWIDTH 12 0
BBX 12 12 0 -2
BITMAP
0000
0000
0000
0000
3dc0
1980
0d00
0600
0d00
1980
3dc0
0000
ENDCHAR
STARTCHAR 2768
ENCODING 10088
SWIDTH 960 0
DWIDTH 12 0
BBX 12 12 0 -2
BITMAP
0000
0000
0000
0000
3dc0
1980
1980
1980
1980
1980
3fc0
00c0
ENDCHAR
STARTCHAR 2769
ENCODING 10089
SWIDTH 960 0
DWIDTH 12 0
BBX 12 12 0 -2
BITMAP
0000
0000
0000
0000
3dc0
1980
1980
0f80
0180
0180
03c0
0000
ENDCHAR
STARTCHAR 276a
ENCODING 10090
SWIDTH 960 0
DWIDTH 12 0
BBX 12 12 0 -2
BITMAP
0000
0000
0000
0000
36c0
36c0
36c0
36c0
36c0
36c0
3fc0
0000
ENDCHAR
STARTCHAR 276b
ENCODING 10091
SWIDTH 960 0
DWIDTH 12 0
BBX 12 12 0 -2
BITMAP
0000
0000
0000
0000
6d80
6d80
6d80
6d80
6d80
6d80
7fe0
0060
ENDCHAR
STARTCHAR 276c
ENCODING 10092
SWIDTH 960 0
DWIDTH 12 0
BBX 12 12 0 -2
BITMAP
0000
0000
0000
0000
3800
6800
1f00
1980
1980
1980
3f00
0000
ENDCHAR
STARTCHAR 276d
ENCODING 10093
SWIDTH 960 0
DWIDTH 12 0
BBX 12 12 0 -2
BITMAP
0000
0000
0000
0000
7bc0
3180
3180
3d80
3680
3680
7dc0
0000
ENDCHAR
STARTCHAR 276e
ENCODING 10094
SWIDTH 960 0
DWIDTH 12 0
BBX 12 12 0 -2
BITMAP
0000
0000
0000
0000
3c00
1800
1f00
1980
1980
1980
3f00
0000
ENDCHAR
STARTCHAR 276f
ENCODING 10095
SWIDTH 960 0
DWIDTH 12 0
BBX 12 12 0 -2
BITMAP
0000
0000
0000
0000
1f00
3180
0d80
1a80
0180
3180
1f00
0000
ENDCHAR
STARTCHAR 2770
ENCODING 10096
SWIDTH 960 0
DWIDTH 12 0
BBX 12 12 0 -2
BITMAP
0000
0000
0000
0000
7b80
36c0
3460
3c60
3460
36c0
7b80
0000
ENDCHAR
STARTCHAR 2771
ENCODING 10097
SWIDTH 960 0
DWIDTH 12 0
BBX 12 12 0 -2
BITMAP
0000
0000
0000
0000
0fc0
1980
1980
0f80
0d80
1980
3dc0
0000
ENDCHAR
STARTCHAR 2821
ENCODING 10273
SWIDTH 960 0
DWIDTH 12 0
BBX 12 12 0 -2
BITMAP
0000
0000
0000
0000
0000
fff8
0000
0000
0000
0000
0000
0000
ENDCHAR
STARTCHAR 2822
ENCODING 10274
SWIDTH 960 0
DWIDTH 12 0
BBX 12 12 0 -2
BITMAP
0600
0600
0600
0600
0600
0600
0600
0600
0600
0600
0600
0600
ENDCHAR
STARTCHAR 2823
ENCODING 10275
SWIDTH 960 0
DWIDTH 12 0
BBX 12 12 0 -2
BITMAP
0000
0000
0000
0000
0000
07f8
0600
0600
0600
0600
0600
0600
ENDCHAR
STARTCHAR 2824
ENCODING 10276
SWIDTH 960 0
DWIDTH 12 0
BBX 12 12 0 -2
BITMAP
0000
0000
0000
0000
0000
fe00
0600
0600
0600
0600
0600
0600
ENDCHAR
STARTCHAR 2825
ENCODING 10277
SWIDTH 960 0
DWIDTH 12 0
BBX 12 12 0 -2
BITMAP
0600
0600
0600
0600
0600
fe00
0000
0000
0000
0000
0000
0000
ENDCHAR
STARTCHAR 2826
ENCODING 10278
SWIDTH 960 0
DWIDTH 12 0
BBX 12 12 0 -2
BITMAP
0600
0600
0600
0600
0600
07f8
0000
0000
0000
0000
0000
0000
ENDCHAR
STARTCHAR 2827
ENCODING 10279
SWIDTH 960 0
DWIDTH 12 0
BBX 12 12 0 -2
BITMAP
0600
0600
0600
0600
0600
07f8
0600
0600
0600
0600
0600
0600
ENDCHAR
STARTCHAR 2828
ENCODING 10280
SWIDTH 960 0
DWIDTH 12 0
BBX 12 12 0 -2
BITMAP
0000
0000
0000
0000
0000
fff8
0600
0600
0600
0600
0600
0600
ENDCHAR
STARTCHAR 2829
ENCODING 10281
SWIDTH 960 0
DWIDTH 12 0
BBX 12 12 0 -2
BITMAP
0600
0600
0600
0600
0600
fe00
0600
0600
0600
0600
0600
0600
ENDCHAR
STARTCHAR 282a
ENCODING 10282
SWIDTH 960 0
DWIDTH 12 0
BBX 12 12 0 -2
BITMAP
0600
0600
0600
0600
0600
fff8
0000
0000
0000
0000
0000
0000
ENDCHAR
STARTCHAR 282b
ENCODING 10283
SWIDTH 960 0
DWIDTH 12 0
BBX 12 12 0 -2
BITMAP
0600
0600
0600
0600
0600
fff8
0600
0600
0600
0600
0600
0600
ENDCHAR
STARTCHAR 282c
ENCODING 10284
SWIDTH 960 0
DWIDTH 12 0
BBX 12 12 0 -2
BITMAP
0000
0000
0000
0000
0000
fff8
fff8
0000
0000
0000
0000
0000
ENDCHAR
STARTCHAR 282d
ENCODING 10285
SWIDTH 960 0
DWIDTH 12 0
BBX 12 12 0 -2
BITMAP
0700
0700
0700
0700
0700
0700
0700
0700
0700
0700
0700
0700
ENDCHAR
STARTCHAR 282e
ENCODING 10286
SWIDTH 960 0
DWIDTH 12 0
BBX 12 12 0 -2
BITMAP
0000
0000
0000
0000
0000
07f8
07f8
0700
0700
0700
0700
0700
ENDCHAR
STARTCHAR 282f
ENCODING 10287
SWIDTH 960 0
DWIDTH 12 0
BBX 12 12 0 -2
BITMAP
0000
0000
0000
0000
0000
ff00
ff00
0700
0700
0700
0700
0700
ENDCHAR
STARTCHAR 2830
ENCODING 10288
SWIDTH 960 0
DWIDTH 12 0
BBX 12 12 0 -2
BITMAP
0700
0700
0700
0700
0700
ff00
ff00
0000
0000
0000
0000
0000
ENDCHAR
STARTCHAR 2831
ENCODING 10289
SWIDTH 960 0
DWIDTH 12 0
BBX 12 12 0 -2
BITMAP
0700
0700
0700
0700
0700
07f8
07f8
0000
0000
0000
0000
0000
ENDCHAR
STARTCHAR 2832
ENCODING 10290
SWIDTH 960 0
DWIDTH 12 0
BBX 12 12 0 -2
BITMAP
0700
0700
0700
0700
0700
07f8
07f8
0700
0700
0700
0700
0700
ENDCHAR
STARTCHAR 2833
ENCODING 10291
SWIDTH 960 0
DWIDTH 12 0
BBX 12 12 0 -2
BITMAP
0000
0000
0000
0000
0000
fff8
fff8
0700
0700
0700
0700
0700
ENDCHAR
STARTCHAR 2834
ENCODING 10292
SWIDTH 960 0
DWIDTH 12 0
BBX 12 12 0 -2
BITMAP
0700
0700
0700
0700
0700
ff00
ff00
0700
0700
0700
0700
0700
ENDCHAR
STARTCHAR 2835
ENCODING 10293
SWIDTH 960 0
DWIDTH 12 0
BBX 12 12 0 -2
BITMAP
0700
0700
0700
0700
0700
fff8
fff8
0000
0000
0000
0000
0000
ENDCHAR
STARTCHAR 2836
ENCODING 10294
SWIDTH 960 0
DWIDTH 12 0
BBX 12 12 0 -2
BITMAP
0700
0700
0700
0700
0700
fff8
fff8
0700
0700
0700
0700
0700
ENDCHAR
STARTCHAR 2837
ENCODING 10295
SWIDTH 960 0
DWIDTH 12 0
BBX 12 12 0 -2
BITMAP
0700
0700
0700
0700
0700
07f8
0700
0700
0700
0700
0700
0700
ENDCHAR
STARTCHAR 2838
ENCODING 10296
SWIDTH 960 0
DWIDTH 12 0
BBX 12 12 0 -2
BITMAP
0000
0000
0000
0000
0000
fff8
fff8
0600
0600
0600
0600
0600
ENDCHAR
STARTCHAR 2839
ENCODING 10297
SWIDTH 960 0
DWIDTH 12 0
BBX 12 12 0 -2
BITMAP
0700
0700
0700
0700
0700
ff00
0700
0700
0700
0700
0700
0700
ENDCHAR
STARTCHAR 283a
ENCODING 10298
SWIDTH 960 0
DWIDTH 12 0
BBX 12 12 0 -2
BITMAP
0600
0600
0600
0600
0600
fff8
fff8
0000
0000
0000
0000
0000
ENDCHAR
STARTCHAR 283b
ENCODING 10299
SWIDTH 960 0
DWIDTH 12 0
BBX 12 12 0 -2
BITMAP
0600
0600
0600
0600
0600
fff8
fff8
0600
0600
0600
0600
0600
ENDCHAR
STARTCHAR 283c
ENCODING 10300
SWIDTH 960 0
DWIDTH 12 0
BBX 12 12 0 -2
BITMAP
0600
0600
0600
0600
0600
07f8
07f8
0600
0600
0600
0600
0600
ENDCHAR
STARTCHAR 283d
ENCODING 10301
SWIDTH 960 0
DWIDTH 12 0
BBX 12 12 0 -2
BITMAP
0000
0000
0000
0000
0000
fff8
0700
0700
0700
0700
0700
0700
ENDCHAR
STARTCHAR 283e
ENCODING 10302
SWIDTH 960 0
DWIDTH 12 0
BBX 12 12 0 -2
BITMAP
0600
0600
0600
0600
0600
fe00
fe00
0600
0600
0600
0600
0600
ENDCHAR
STARTCHAR 283f
ENCODING 10303
SWIDTH 960 0
DWIDTH 12 0
BBX 12 12 0 -2
BITMAP
0700
0700
0700
0700
0700
fff8
0000
0000
0000
0000
0000
0000
ENDCHAR
STARTCHAR 2840
ENCODING 10304
SWIDTH 960 0
DWIDTH 12 0
BBX 12 12 0 -2
BITMAP
0700
0700
0700
0700
0700
fff8
0700
0700
0700
0700
0700
0700
ENDCHAR
STARTCHAR 3021
ENCODING 12321
SWIDTH 960 0
DWIDTH 12 0
BBX 12 12 0 -2
BITMAP
0000
7ff0
0d80
0d80
3fe0
35a0
35a0
35a0
3fe0
0d80
0d80
7ff0
ENDCHAR
STARTCHAR 3022
ENCODING 12322
SWIDTH 960 0
DWIDTH 12 0
BBX 12 12 0 -2
BITMAP
0000
1ff0
f340
d340
d7f0
d550
d550
d550
d7f0
f340
0340
1ff0
ENDCHAR
STARTCHAR 3023
ENCODING 12323
SWIDTH 960 0
DWIDTH 12 0
BBX 12 12 0 -2
BITMAP
6180
6180
6be0
fd80
6980
6ff0
6980
d980
fbe0
3580
6180
cff0
ENDCHAR
STARTCHAR 3024
ENCODING 12324
SWIDTH 960 0
DWIDTH 12 0
BBX 12 12 0 -2
BITMAP
0000
fff0
d060
d7a0
eda0
d5a0
d5a0
d7a0
ec60
c060
c060
c0e0
ENDCHAR
STARTCHAR 3025
ENCODING 12325
SWIDTH 960 0
DWIDTH 12 0
BBX 12 12 0 -2
BITMAP
0600
fff0
0000
3fc0
30c0
30c0
3fc0
0c60
3ac0
eb00
1ec0
7870
ENDCHAR
STARTCHAR 3026
ENCODING 12326
SWIDTH 960 0
DWIDTH 12 0
BBX 12 12 0 -2
BITMAP
01e0
7f40
1a80
fff0
cd30
d5a0
37d0
6fb0
7980
0f00
1d80
f0f0
ENDCHAR
STARTCHAR 3027
ENCODING 12327
SWIDTH 960 0
DWIDTH 12 0
BBX 12 12 0 -2
BITMAP
3300
3340
3660
fbd0
3430
37e0
3980
f7f0
3180
3340
3660
7438
ENDCHAR
STARTCHAR 3028
ENCODING 12328
SWIDTH 960 0
DWIDTH 12 0
BBX 12 12 0 -2
BITMAP
6180
6180
6b40
fd40
6a60
6dd0
d800
ebe0
3a60
3660
6660
c7e0
ENDCHAR
STARTCHAR 3029
ENCODING 12329
SWIDTH 960 0
DWIDTH 12 0
BBX 12 12 0 -2
BITMAP
0300
63e0
36c0
0380
0ee0
fff0
3300
37e0
3300
37e0
6d00
c7f8
ENDCHAR
STARTCHAR 302a
ENCODING 12330
SWIDTH 960 0
DWIDTH 12 0
BBX 12 12 0 -2
BITMAP
1980
fff0
1980
1f80
6da0
38d0
3fe0
e638
3fe0
0700
1dc0
7070
ENDCHAR
STARTCHAR 302b
ENCODING 12331
SWIDTH 960 0
DWIDTH 12 0
BBX 12 12 0 -2
BITMAP
1980
fff0
1980
fff0
0d00
7fe0
6d60
6d60
69e0
7060
6060
7fe0
ENDCHAR
STARTCHAR 302c
ENCODING 12332
SWIDTH 960 0
DWIDTH 12 0
BBX 12 12 0 -2
BITMAP
1d00
f3e0
36c0
37e0
fea0
37e0
7aa0
77f0
d5b0
d7f0
3198
30f8
ENDCHAR
STARTCHAR 302d
ENCODING 12333
SWIDTH 960 0
DWIDTH 12 0
BBX 12 12 0 -2
BITMAP
0000
fff0
0d00
7fe0
6d60
7fe0
0d00
fff0
6a00
6b60
d8d0
0fc0
ENDCHAR
STARTCHAR 302e
ENCODING 12334
SWIDTH 960 0
DWIDTH 12 0
BBX 12 12 0 -2
BITMAP
6000
6fe0
6860
ffe0
6800
6ff0
7b60
efd0
6980
6be0
7180
eff0
ENDCHAR
STARTCHAR 302f
ENCODING 12335
SWIDTH 960 0
DWIDTH 12 0
BBX 12 12 0 -2
BITMAP
c000
6fe0
1860
dfe0
6800
1ff0
1b60
3bd0
6980
6be0
d980
d7f0
ENDCHAR
STARTCHAR 3030
ENCODING 12336
SWIDTH 960 0
DWIDTH 12 0
BBX 12 12 0 -2
BITMAP
3000
33f0
3330
fd30
35f0
3530
3530
3530
3530
6df0
6c18
c7f8
ENDCHAR
STARTCHAR 3031
ENCODING 12337
SWIDTH 960 0
DWIDTH 12 0
BBX 12 12 0 -2
BITMAP
1980
fff0
1a80
7fc0
0cc0
fff0
18c0
1fc0
3fe0
3600
fff0
0600
ENDCHAR
STARTCHAR 3032
ENCODING 12338
SWIDTH 960 0
DWIDTH 12 0
BBX 12 12 0 -2
BITMAP
1980
fff0
1980
7fe0
0000
3fe0
3060
3fe0
3000
6000
6000
c000
ENDCHAR
STARTCHAR 3033
ENCODING 12339
SWIDTH 960 0
DWIDTH 12 0
BBX 12 12 0 -2
BITMAP
3180
7d60
dbd0
fd80
d7f0
fdc0
d560
fed0
1b98
7460
69c0
c700
ENDCHAR
STARTCHAR 3034
ENCODING 12340
SWIDTH 960 0
DWIDTH 12 0
BBX 12 12 0 -2
BITMAP
3180
3180
37f0
fa60
3340
77f0
7980
7180
d7f0
d180
3180
3180
ENDCHAR
STARTCHAR 3035
ENCODING 12341
SWIDTH 960 0
DWIDTH 12 0
BBX 12 12 0 -2
BITMAP
0000
3ff0
3000
3300
3300
3fe0
3300
3300
3300
6300
6ff0
c000
ENDCHAR
STARTCHAR 3036
ENCODING 12342
SWIDTH 960 0
DWIDTH 12 0
BBX 12 12 0 -2
BITMAP
3180
fd80
3340
ff60
cdd0
fcc0
cec0
fd40
31f0
ff40
30c0
30c0
ENDCHAR
STARTCHAR 3037
ENCODING 12343
SWIDTH 960 0
DWIDTH 12 0
BBX 12 12 0 -2
BITMAP
3000
37e0
3360
fd40
3370
3330
3ab0
f6a0
36e0
35a0
3530
7a18
ENDCHAR
STARTCHAR 3038
ENCODING 12344
SWIDTH 960 0
DWIDTH 12 0
BBX 12 12 0 -2
BITMAP
0600
fff0
c030
d030
3de0
3560
6d60
d560
1bc0
1b30
3330
61f0
ENDCHAR
STARTCHAR 3039
ENCODING 12345
SWIDTH 960 0
DWIDTH 12 0
BBX 12 12 0 -2
BITMAP
6000
67e0
6a60
fe60
6be0
6a60
6a60
dbe0
fa60
3660
6660
cff0
ENDCHAR
STARTCHAR 303a
ENCODING 12346
SWIDTH 960 0
DWIDTH 12 0
BBX 12 12 0 -2
BITMAP
30c0
30c0
fcc0
d7f0
d500
fd00
3300
3b00
3500
3d00
e6f0
0600
ENDCHAR
STARTCHAR 303b
ENCODING 12347
SWIDTH 960 0
DWIDTH 12 0
BBX 12 12 0 -2
BITMAP
3180
3980
6d80
dac0
6d60
7de0
6f30
7de0
6b60
6d60
6b60
f3e0
ENDCHAR
STARTCHAR 303c
ENCODING 12348
SWIDTH 960 0
DWIDTH 12 0
BBX 12 12 0 -2
BITMAP
3180
6180
dbf0
7630
6bd0
fd50
35d0
db50
d550
d5d0
d030
30e0
ENDCHAR
STARTCHAR 303d
ENCODING 12349
SWIDTH 960 0
DWIDTH 12 0
BBX 12 12 0 -2
BITMAP
3180
67e0
d980
77f0
6b40
fd60
36f0
db60
d740
d580
d340
3670
ENDCHAR
STARTCHAR 303e
ENCODING 12350
SWIDTH 960 0
DWIDTH 12 0
BBX 12 12 0 -2
BITMAP
3180
3d80
6980
fdf0
d580
fd80
d5e0
fd60
1b60
7560
6b60
c3e0
ENDCHAR
STARTCHAR 303f
ENCODING 12351
SWIDTH 960 0
DWIDTH 12 0
BBX 12 12 0 -2
BITMAP
0340
0360
fff0
0300
7d60
6d60
6d60
7dc0
01c0
1d50
f670
1c30
ENDCHAR
STARTCHAR 3040
ENCODING 12352
SWIDTH 960 0
DWIDTH 12 0
BBX 12 12 0 -2
BITMAP
fff0
0d00
7fe0
6d60
7fe0
76e0
1a80
fff0
0f00
3ac0
e670
0600
ENDCHAR
STARTCHAR 3041
ENCODING 12353
SWIDTH 960 0
DWIDTH 12 0
BBX 12 12 0 -2
BITMAP
3180
3180
fd40
1b40
3660
3dd0
7800
d7e0
3660
3660
3660
37e0
ENDCHAR
STARTCHAR 3042
ENCODING 12354
SWIDTH 960 0
DWIDTH 12 0
BBX 12 12 0 -2
BITMAP
0600
fff0
cc30
cc30
0c00
fff0
1980
1980
3e80
0700
1dc0
7060
ENDCHAR
STARTCHAR 3043
ENCODING 12355
SWIDTH 960 0
DWIDTH 12 0
BBX 12 12 0 -2
BITMAP
0300
7ff0
6300
7ff0
6d40
6fe0
7b70
6fe0
6b60
6fe0
c330
c1f0
ENDCHAR
STARTCHAR 3044
ENCODING 12356
SWIDTH 960 0
DWIDTH 12 0
BBX 12 12 0 -2
BITMAP
3180
37f0
3430
fd30
3300
37f8
3b60
f360
3760
31c0
3360
7630
ENDCHAR
STARTCHAR 3045
ENCODING 12357
SWIDTH 960 0
DWIDTH 12 0
BBX 12 12 0 -2
BITMAP
0180
fff0
da60
dac0
dff0
f800
dbe0
da60
dbe0
fa60
0660
07e0
ENDCHAR
STARTCHAR 3046
ENCODING 12358
SWIDTH 960 0
DWIDTH 12 0
BBX 12 12 0 -2
BITMAP
0600
fff0
cc30
dfd0
1980
0f00
3ac0
fff0
0f00
3ac0
e670
0600
ENDCHAR
STARTCHAR 3047
ENCODING 12359
SWIDTH 960 0
DWIDTH 12 0
BBX 12 12 0 -2
BITMAP
fdf0
cd30
fdf0
fdf0
c630
dfd0
cd30
fff0
d9b0
dfb0
d9b0
dfb0
ENDCHAR
STARTCHAR 3048
ENCODING 12360
SWIDTH 960 0
DWIDTH 12 0
BBX 12 12 0 -2
BITMAP
6980
fff0
6d30
7b00
37f8
fd60
d560
fd60
3740
fdc0
3360
3630
ENDCHAR
STARTCHAR 3049
ENCODING 12361
SWIDTH 960 0
DWIDTH 12 0
BBX 12 12 0 -2
BITMAP
0600
0600
fff0
0f00
1a80
36c0
e670
3fc0
30c0
30c0
30c0
3fc0
ENDCHAR
STARTCHAR 304a
ENCODING 12362
SWIDTH 960 0
DWIDTH 12 0
BBX 12 12 0 -2
BITMAP
3060
3060
3460
3660
3660
3360
3060
3460
38e0
60d0
c398
0e00
ENDCHAR
STARTCHAR 304b
ENCODING 12363
SWIDTH 960 0
DWIDTH 12 0
BBX 12 12 0 -2
BITMAP
1800
1fe0
1b60
3360
7ff0
d360
3360
37e0
3300
3300
3600
3400
ENDCHAR
STARTCHAR 304c
ENCODING 12364
SWIDTH 960 0
DWIDTH 12 0
BBX 12 12 0 -2
BITMAP
1980
1980
1980
37f0
3060
7460
d660
3660
36c0
36c0
3180
3ff0
ENDCHAR
STARTCHAR 304d
ENCODING 12365
SWIDTH 960 0
DWIDTH 12 0
BBX 12 12 0 -2
BITMAP
1980
1980
1ff0
3180
3330
76a0
d6c0
3a80
36c0
36c0
37a0
3630
ENDCHAR
STARTCHAR 304e
ENCODING 12366
SWIDTH 960 0
DWIDTH 12 0
BBX 12 12 0 -2
BITMAP
1b00
1be0
1b60
3ff8
3660
77e0
d180
37e0
3580
3ff0
3180
3180
ENDCHAR
STARTCHAR 304f
ENCODING 12367
SWIDTH 960 0
DWIDTH 12 0
BBX 12 12 0 -2
BITMAP
0000
7ff0
6db0
6db0
7ff0
6db0
6db0
7ff0
6db0
6db0
6830
7ff0
ENDCHAR
STARTCHAR 3050
ENCODING 12368
SWIDTH 960 0
DWIDTH 12 0
BBX 12 12 0 -2
BITMAP
0600
fff0
0600
7fc0
06c0
7fc0
6600
7ff0
0d30
19a0
30c0
e070
ENDCHAR
STARTCHAR 3051
ENCODING 12369
SWIDTH 960 0
DWIDTH 12 0
BBX 12 12 0 -2
BITMAP
01c0
3f00
0600
fff0
0f00
3ac0
ec70
7fe0
1980
3f00
0ec0
7860
ENDCHAR
STARTCHAR 3052
ENCODING 12370
SWIDTH 960 0
DWIDTH 12 0
BBX 12 12 0 -2
BITMAP
01a0
61b0
7ff8
6180
7eb0
6ab0
7fa0
6ae0
6ad8
6ae8
cdb8
db18
ENDCHAR
STARTCHAR 3053
ENCODING 12371
SWIDTH 960 0
DWIDTH 12 0
BBX 12 12 0 -2
BITMAP
0060
7e60
6660
7ff0
6060
7ea0
61a0
7ea0
6c60
d560
d560
1ce0
ENDCHAR
STARTCHAR 3054
ENCODING 12372
SWIDTH 960 0
DWIDTH 12 0
BBX 12 12 0 -2
BITMAP
3660
36c0
37f0
76c0
7ac0
dbf0
d6c0
36c0
37f0
36c0
36c0
37f0
ENDCHAR
STARTCHAR 3055
ENCODING 12373
SWIDTH 960 0
DWIDTH 12 0
BBX 12 12 0 -2
BITMAP
0600
7fe0
1980
fff0
30c0
3fc0
30c0
3fc0
6a00
6b60
d8d0
0fc0
ENDCHAR
STARTCHAR 3056
ENCODING 12374
SWIDTH 960 0
DWIDTH 12 0
BBX 12 12 0 -2
BITMAP
7e60
6660
7ff0
6360
7ea0
6c60
d560
d560
1a00
6b60
d8d0
0fc0
ENDCHAR
STARTCHAR 3057
ENCODING 12375
SWIDTH 960 0
DWIDTH 12 0
BBX 12 12 0 -2
BITMAP
0000
1fe0
1860
1fe0
1860
1fe0
0c00
1ff0
76d0
0db0
3b30
0ee0
ENDCHAR
STARTCHAR 3058
ENCODING 12376
SWIDTH 960 0
DWIDTH 12 0
BBX 12 12 0 -2
BITMAP
3180
37f0
3180
fb40
3660
77f0
7860
77a0
d6a0
d7a0
3060
30e0
ENDCHAR
STARTCHAR 3059
ENCODING 12377
SWIDTH 960 0
DWIDTH 12 0
BBX 12 12 0 -2
BITMAP
3300
1b00
0600
7f80
0d80
1fe0
1860
3ff0
6030
dab0
3550
60e0
ENDCHAR
STARTCHAR 305a
ENCODING 12378
SWIDTH 960 0
DWIDTH 12 0
BBX 12 12 0 -2
BITMAP
0000
3fe0
3660
3fe0
3660
3fe0
0000
fff0
3660
3340
3ec0
f070
ENDCHAR
STARTCHAR 305b
ENCODING 12379
SWIDTH 960 0
DWIDTH 12 0
BBX 12 12 0 -2
BITMAP
0000
7fe0
6660
7fe0
6660
7fe0
1980
7fe0
1980
fff0
31c0
e060
ENDCHAR
STARTCHAR 305c
ENCODING 12380
SWIDTH 960 0
DWIDTH 12 0
BBX 12 12 0 -2
BITMAP
1d00
f3e0
3660
fd40
3180
7b40
75f0
7330
d6a0
d0c0
3380
3600
ENDCHAR
STARTCHAR 305d
ENCODING 12381
SWIDTH 960 0
DWIDTH 12 0
BBX 12 12 0 -2
BITMAP
3360
3340
ebf0
6ec0
36c0
6be0
fec0
36c0
dbe0
d6c0
d6c0
37f0
ENDCHAR
STARTCHAR 305e
ENCODING 12382
SWIDTH 960 0
DWIDTH 12 0
BBX 12 12 0 -2
BITMAP
3180
37f0
e9b0
6bf8
3330
6bf0
fcc0
33f0
d540
d7f8
d0c0
30c0
ENDCHAR
STARTCHAR 305f
ENCODING 12383
SWIDTH 960 0
DWIDTH 12 0
BBX 12 12 0 -2
BITMAP
0000
7fe0
6660
7fe0
6660
7fe0
30c0
3fc0
30c0
3fc0
30c0
31c0
ENDCHAR
STARTCHAR 3060
ENCODING 12384
SWIDTH 960 0
DWIDTH 12 0
BBX 12 12 0 -2
BITMAP
1980
fff0
1980
7fe0
0600
fff0
3ac0
e670
7fe0
1980
0f80
7ce0
ENDCHAR
STARTCHAR 3061
ENCODING 12385
SWIDTH 960 0
DWIDTH 12 0
BBX 12 12 0 -2
BITMAP
0600
0600
fff0
0c00
0e60
1a60
3b40
eb00
1980
18c0
1e60
7830
ENDCHAR
STARTCHAR 3062
ENCODING 12386
SWIDTH 960 0
DWIDTH 12 0
BBX 12 12 0 -2
BITMAP
7800
0ff0
fdb0
0ff0
fdb0
0ff0
fa60
07e0
fa60
dbe0
da60
fae0
ENDCHAR
STARTCHAR 3063
ENCODING 12387
SWIDTH 960 0
DWIDTH 12 0
BBX 12 12 0 -2
BITMAP
0300
6fe0
3360
1ff0
0660
f7e0
3180
37e0
3580
3ff0
6980
cff8
ENDCHAR
STARTCHAR 3064
ENCODING 12388
SWIDTH 960 0
DWIDTH 12 0
BBX 12 12 0 -2
BITMAP
0300
6fe0
3560
1ff0
0000
f7e0
3460
37e0
3460
37e0
6e70
cff8
ENDCHAR
STARTCHAR 3065
ENCODING 12389
SWIDTH 960 0
DWIDTH 12 0
BBX 12 12 0 -2
BITMAP
0000
7ff0
6c00
6fc0
6b00
7300
6fe0
6300
6680
6cc0
6800
7ff0
ENDCHAR
STARTCHAR 3066
ENCODING 12390
SWIDTH 960 0
DWIDTH 12 0
BBX 12 12 0 -2
BITMAP
0cc0
0cc0
0cc0
7ff0
0cc0
0cc0
0cc0
7ff0
0cc0
0cc0
18c0
30c0
ENDCHAR
STARTCHAR 3067
ENCODING 12391
SWIDTH 960 0
DWIDTH 12 0
BBX 12 12 0 -2
BITMAP
0600
fff0
0c00
0d00
7b00
1a00
0ec0
1d80
7300
0e80
38c0
e060
ENDCHAR
STARTCHAR 3068
ENCODING 12392
SWIDTH 960 0
DWIDTH 12 0
BBX 12 12 0 -2
BITMAP
01c0
61a0
6ff0
6180
feb0
6ab0
6aa0
6ee0
7340
eed0
39b0
0330
ENDCHAR
STARTCHAR 3069
ENCODING 12393
SWIDTH 960 0
DWIDTH 12 0
BBX 12 12 0 -2
BITMAP
0600
fff0
0d80
1bc0
7e60
3fc0
30c0
3fc0
30c0
3fc0
30c0
31c0
ENDCHAR
STARTCHAR 306a
ENCODING 12394
SWIDTH 960 0
DWIDTH 12 0
BBX 12 12 0 -2
BITMAP
1800
19f0
ffb0
31a0
3ec0
76e0
7eb0
d6b0
3eb0
36e0
3680
3680
ENDCHAR
STARTCHAR 306b
ENCODING 12395
SWIDTH 960 0
DWIDTH 12 0
BBX 12 12 0 -2
BITMAP
0660
fd50
36e0
36b0
6ff0
79d0
eff8
6ad0
6ae0
6dd0
7b70
0e30
ENDCHAR
STARTCHAR 306c
ENCODING 12396
SWIDTH 960 0
DWIDTH 12 0
BBX 12 12 0 -2
BITMAP
0000
0000
0000
0000
0000
7ff0
0000
0000
0000
0000
0000
0000
ENDCHAR
STARTCHAR 306d
ENCODING 12397
SWIDTH 960 0
DWIDTH 12 0
BBX 12 12 0 -2
BITMAP
0600
3fc0
0600
fff0
0000
fff0
d830
d830
1f80
1800
1860
0fe0
ENDCHAR
STARTCHAR 306e
ENCODING 12398
SWIDTH 960 0
DWIDTH 12 0
BBX 12 12 0 -2
BITMAP
6cc0
36c0
0680
dff0
6cc0
0cc0
1860
3ff0
6aa0
6aa0
daa0
dff0
ENDCHAR
STARTCHAR 306f
ENCODING 12399
SWIDTH 960 0
DWIDTH 12 0
BBX 12 12 0 -2
BITMAP
0300
63e0
36c0
0ff0
0db0
f7f0
3380
3380
36b0
34f0
6c00
c7f8
ENDCHAR
STARTCHAR 3070
ENCODING 12400
SWIDTH 960 0
DWIDTH 12 0
BBX 12 12 0 -2
BITMAP
1cf0
f7d0
3350
fd60
3340
7af0
76b0
76b0
d6f0
d6b0
36b0
36f0
ENDCHAR
STARTCHAR 3071
ENCODING 12401
SWIDTH 960 0
DWIDTH 12 0
BBX 12 12 0 -2
BITMAP
1980
fff0
1980
1a80
67f0
36b0
35a0
0d80
1980
3340
ee60
3830
ENDCHAR
STARTCHAR 3072
ENCODING 12402
SWIDTH 960 0
DWIDTH 12 0
BBX 12 12 0 -2
BITMAP
1980
fff0
1980
3fc0
0600
0600
fff0
0600
0600
0600
0600
0e00
ENDCHAR
STARTCHAR 3073
ENCODING 12403
SWIDTH 960 0
DWIDTH 12 0
BBX 12 12 0 -2
BITMAP
3000
3ff0
69b0
fdf0
d6c0
fff0
d5b0
fed0
1bb0
76d0
69b0
c760
ENDCHAR
STARTCHAR 3074
ENCODING 12404
SWIDTH 960 0
DWIDTH 12 0
BBX 12 12 0 -2
BITMAP
0c00
0c00
1b80
30e0
7fb0
0d00
0d00
0d00
1b00
1b30
3330
61f0
ENDCHAR
STARTCHAR 3075
ENCODING 12405
SWIDTH 960 0
DWIDTH 12 0
BBX 12 12 0 -2
BITMAP
0c00
7bf0
6330
6330
7d30
6330
6330
6330
7d60
6300
0300
0300
ENDCHAR
STARTCHAR 3076
ENCODING 12406
SWIDTH 960 0
DWIDTH 12 0
BBX 12 12 0 -2
BITMAP
0000
0ff0
f5b0
d5b0
d7f0
d5b0
d5b0
d5d0
d570
f570
0e30
0ff0
ENDCHAR
STARTCHAR 3077
ENCODING 12407
SWIDTH 960 0
DWIDTH 12 0
BBX 12 12 0 -2
BITMAP
1fc0
18c0
1fc0
3fe0
3060
3fe0
3060
3fe0
3060
3fe0
1dc0
7070
ENDCHAR
STARTCHAR 3078
ENCODING 12408
SWIDTH 960 0
DWIDTH 12 0
BBX 12 12 0 -2
BITMAP
0000
7ff0
6630
6630
7fd0
6630
6630
6d30
69b0
70d0
6030
7ff0
ENDCHAR
STARTCHAR 3079
ENCODING 12409
SWIDTH 960 0
DWIDTH 12 0
BBX 12 12 0 -2
BITMAP
6000
67f0
6ab0
feb0
6bf0
6ab0
6ab0
dad0
fab0
3770
6730
c7f0
ENDCHAR
STARTCHAR 307a
ENCODING 12410
SWIDTH 960 0
DWIDTH 12 0
BBX 12 12 0 -2
BITMAP
0060
7e60
0660
0660
7e60
6060
7e60
0660
0660
0660
0660
3c60
ENDCHAR
STARTCHAR 307b
ENCODING 12411
SWIDTH 960 0
DWIDTH 12 0
BBX 12 12 0 -2
BITMAP
3180
3980
6e80
d9f8
6d50
7d50
6ec0
7cc0
69a0
6da0
6b30
f618
ENDCHAR
STARTCHAR 307c
ENCODING 12412
SWIDTH 960 0
DWIDTH 12 0
BBX 12 12 0 -2
BITMAP
60f0
3780
1b60
cd60
6cc0
37f0
0300
3300
6fe0
6300
c300
dff0
ENDCHAR
STARTCHAR 307d
ENCODING 12413
SWIDTH 960 0
DWIDTH 12 0
BBX 12 12 0 -2
BITMAP
6660
6da0
6b60
6e60
6da0
7fe0
69a0
6fa0
69a0
6fa8
69a8
dbb8
ENDCHAR
STARTCHAR 307e
ENCODING 12414
SWIDTH 960 0
DWIDTH 12 0
BBX 12 12 0 -2
BITMAP
1980
fff0
1980
f380
d7c0
ec60
dbf0
d0c0
dff0
e6c0
c6e0
cf60
ENDCHAR
STARTCHAR 3121
ENCODING 12577
SWIDTH 960 0
DWIDTH 12 0
BBX 12 12 0 -2
BITMAP
f180
dff0
d830
efd0
d000
dff0
d340
d340
e6c0
c6d0
ccd0
d870
ENDCHAR
STARTCHAR 3122
ENCODING 12578
SWIDTH 960 0
DWIDTH 12 0
BBX 12 12 0 -2
BITMAP
0300
f380
d6c0
d7e0
e830
d7e0
d180
dff0
d340
e6e0
dfa0
c060
ENDCHAR
STARTCHAR 3123
ENCODING 12579
SWIDTH 960 0
DWIDTH 12 0
BBX 12 12 0 -2
BITMAP
f3e0
df60
d540
efe0
e060
d7e0
d060
dfe0
e6a0
dad0
d630
d3f0
ENDCHAR
STARTCHAR 3124
ENCODING 12580
SWIDTH 960 0
DWIDTH 12 0
BBX 12 12 0 -2
BITMAP
33e0
fd60
6b60
6bf0
fd30
03f0
7d30
6df0
7d30
6df0
7da0
0730
ENDCHAR
STARTCHAR 3125
ENCODING 12581
SWIDTH 960 0
DWIDTH 12 0
BBX 12 12 0 -2
BITMAP
00c0
00c0
f8c0
dff0
d8c0
dac0
db40
db40
d8c0
f8c0
00c0
01c0
ENDCHAR
STARTCHAR 3126
ENCODING 12582
SWIDTH 960 0
DWIDTH 12 0
BBX 12 12 0 -2
BITMAP
0c00
0c00
0c00
fff0
0c00
0c00
1800
1fe0
3860
6860
d860
1fe0
ENDCHAR
STARTCHAR 3127
ENCODING 12583
SWIDTH 960 0
DWIDTH 12 0
BBX 12 12 0 -2
BITMAP
0600
fff0
c030
dfd0
0600
0600
7fe0
0600
0600
0600
0600
0e00
ENDCHAR
STARTCHAR 3128
ENCODING 12584
SWIDTH 960 0
DWIDTH 12 0
BBX 12 12 0 -2
BITMAP
0c00
3fc0
30c0
3fc0
3000
3ff0
3000
3ff0
01b0
6ad0
6d30
c0e0
ENDCHAR
STARTCHAR 3129
ENCODING 12585
SWIDTH 960 0
DWIDTH 12 0
BBX 12 12 0 -2
BITMAP
0000
fff0
0c30
6d30
35b0
0c30
1c70
34d0
edb0
0c30
0c30
1c70
ENDCHAR
STARTCHAR 312a
ENCODING 12586
SWIDTH 960 0
DWIDTH 12 0
BBX 12 12 0 -2
BITMAP
0000
6fe0
3180
0180
1ff0
f180
3180
3180
3180
3380
6c00
c7f8
ENDCHAR
STARTCHAR 312b
ENCODING 12587
SWIDTH 960 0
DWIDTH 12 0
BBX 12 12 0 -2
BITMAP
0000
7ff0
0600
0600
7ff0
76b0
6ad0
6630
76b0
6ad0
6630
6670
ENDCHAR
STARTCHAR 312c
ENCODING 12588
SWIDTH 960 0
DWIDTH 12 0
BBX 12 12 0 -2
BITMAP
0e00
79f0
61b0
6db0
6db0
6db0
6db0
6db0
f5e0
0d80
1980
3180
ENDCHAR
STARTCHAR 312d
ENCODING 12589
SWIDTH 960 0
DWIDTH 12 0
BBX 12 12 0 -2
BITMAP
6d80
3be0
fd60
35e0
fd60
d3f0
fd00
35f0
75b0
7d50
d630
30e0
ENDCHAR
STARTCHAR 312e
ENCODING 12590
SWIDTH 960 0
DWIDTH 12 0
BBX 12 12 0 -2
BITMAP
0600
fff0
cd30
7be0
3000
7de0
3360
ffe0
3b60
35e0
6350
cef0
ENDCHAR
STARTCHAR 312f
ENCODING 12591
SWIDTH 960 0
DWIDTH 12 0
BBX 12 12 0 -2
BITMAP
0000
3fc0
06c0
06c0
06c0
7ff0
06c0
0cc0
0cc0
0cc0
0cc0
7ff0
ENDCHAR
STARTCHAR 3130
ENCODING 12592
SWIDTH 960 0
DWIDTH 12 0
BBX 12 12 0 -2
BITMAP
0360
fac0
37f0
36c0
6ac0
7bf0
eac0
6ac0
6bf0
6ac0
7ac0
07f0
ENDCHAR
STARTCHAR 3131
ENCODING 12593
SWIDTH 960 0
DWIDTH 12 0
BBX 12 12 0 -2
BITMAP
0600
0c00
3be0
3060
3060
3060
3de0
3060
3060
3060
3fe0
0000
ENDCHAR
STARTCHAR 3132
ENCODING 12594
SWIDTH 960 0
DWIDTH 12 0
BBX 12 12 0 -2
BITMAP
6000
37e0
0c60
cde0
6d60
1ff0
1830
3bd0
6ad0
6bd0
d830
d870
ENDCHAR
STARTCHAR 3133
ENCODING 12595
SWIDTH 960 0
DWIDTH 12 0
BBX 12 12 0 -2
BITMAP
0300
03e0
f300
d7f0
d500
d7f0
d560
d5e0
d550
f560
1b40
37f0
ENDCHAR
STARTCHAR 3134
ENCODING 12596
SWIDTH 960 0
DWIDTH 12 0
BBX 12 12 0 -2
BITMAP
0000
07e0
fa60
da60
dbe0
da60
dbe0
da60
da60
fbe0
0360
0e30
ENDCHAR
STARTCHAR 3135
ENCODING 12597
SWIDTH 960 0
DWIDTH 12 0
BBX 12 12 0 -2
BITMAP
36c0
fdf0
7ae0
d550
7fe0
6d60
7fe0
6cc0
7ff0
6b40
6cc0
fac0
ENDCHAR
STARTCHAR 3136
ENCODING 12598
SWIDTH 960 0
DWIDTH 12 0
BBX 12 12 0 -2
BITMAP
1980
fff0
1980
7e60
6660
7ff0
6060
7ea0
6da0
7660
d560
3560
ENDCHAR
STARTCHAR 3137
ENCODING 12599
SWIDTH 960 0
DWIDTH 12 0
BBX 12 12 0 -2
BITMAP
33e0
7d60
dbe0
fd60
d7f0
fd50
d7f0
fd60
19a0
75c0
6b60
c630
ENDCHAR
STARTCHAR 3138
ENCODING 12600
SWIDTH 960 0
DWIDTH 12 0
BBX 12 12 0 -2
BITMAP
6180
6180
6bf0
fda0
69c0
6ff0
6980
db00
fbe0
3500
6330
c1f0
ENDCHAR
STARTCHAR 3139
ENCODING 12601
SWIDTH 960 0
DWIDTH 12 0
BBX 12 12 0 -2
BITMAP
7ff0
6000
6ef0
6aa0
6ea0
6bf0
6ec0
69c0
6dc0
6b40
dd50
3a70
ENDCHAR
STARTCHAR 313a
ENCODING 12602
SWIDTH 960 0
DWIDTH 12 0
BBX 12 12 0 -2
BITMAP
61b0
3198
0ff0
c180
6ff0
0db0
0ff0
35b0
6ff0
6db0
cdb0
cdb0
ENDCHAR
STARTCHAR 313b
ENCODING 12603
SWIDTH 960 0
DWIDTH 12 0
BBX 12 12 0 -2
BITMAP
00e0
3f80
3680
3680
3680
3680
36c0
3740
36c0
67a0
7da0
c030
ENDCHAR
STARTCHAR 313c
ENCODING 12604
SWIDTH 960 0
DWIDTH 12 0
BBX 12 12 0 -2
BITMAP
fdf0
cd30
fdf0
cd30
fdf0
c030
dfd0
c630
dfb0
c630
dfd0
c070
ENDCHAR
STARTCHAR 313d
ENCODING 12605
SWIDTH 960 0
DWIDTH 12 0
BBX 12 12 0 -2
BITMAP
0cc0
1ff0
f680
dfe0
daa0
dde0
dfe0
d0c0
dff0
f4c0
06c0
01c0
ENDCHAR
STARTCHAR 313e
ENCODING 12606
SWIDTH 960 0
DWIDTH 12 0
BBX 12 12 0 -2
BITMAP
0000
3fc0
0000
0000
fff0
0600
0600
0d80
0cc0
1bc0
7e60
0060
ENDCHAR
STARTCHAR 313f
ENCODING 12607
SWIDTH 960 0
DWIDTH 12 0
BBX 12 12 0 -2
BITMAP
1ff0
69b0
3ff0
0da0
0fe0
f5a0
37e0
3180
3ff0
3180
6d80
c7f8
ENDCHAR
STARTCHAR 3140
ENCODING 12608
SWIDTH 960 0
DWIDTH 12 0
BBX 12 12 0 -2
BITMAP
7fe0
0600
fff0
c630
dad0
0600
3fc0
0000
fff0
0d80
1bc0
7e60
ENDCHAR
STARTCHAR 3141
ENCODING 12609
SWIDTH 960 0
DWIDTH 12 0
BBX 12 12 0 -2
BITMAP
1980
fff0
1980
18e0
1b80
3180
3180
7ff0
d180
3180
37e0
3000
ENDCHAR
STARTCHAR 3142
ENCODING 12610
SWIDTH 960 0
DWIDTH 12 0
BBX 12 12 0 -2
BITMAP
3000
3bf0
6d60
dbe0
6d60
7d60
6de0
7d60
6b60
6df0
6b60
f060
ENDCHAR
STARTCHAR 3143
ENCODING 12611
SWIDTH 960 0
DWIDTH 12 0
BBX 12 12 0 -2
BITMAP
3c00
33f0
fe30
d6b0
79a0
cea0
30c0
7cc0
eee0
7da0
6d30
7e18
ENDCHAR
STARTCHAR 3144
ENCODING 12612
SWIDTH 960 0
DWIDTH 12 0
BBX 12 12 0 -2
BITMAP
34c0
1a80
fff0
c030
dfb0
3180
3f80
0c00
7fc0
60c0
60c0
7fc0
ENDCHAR
STARTCHAR 3145
ENCODING 12613
SWIDTH 960 0
DWIDTH 12 0
BBX 12 12 0 -2
BITMAP
fdf0
cd30
fdf0
cd30
fdf0
69a0
cd30
fff0
1980
3980
0f00
79e0
ENDCHAR
STARTCHAR 3146
ENCODING 12614
SWIDTH 960 0
DWIDTH 12 0
BBX 12 12 0 -2
BITMAP
7ec0
66c0
7e80
6760
7e60
18c0
ff40
66b0
7e30
6a60
db40
3980
ENDCHAR
STARTCHAR 3147
ENCODING 12615
SWIDTH 960 0
DWIDTH 12 0
BBX 12 12 0 -2
BITMAP
0300
f300
d7e0
d560
d560
f560
dff0
d380
d680
f6c0
0c60
3830
ENDCHAR
STARTCHAR 3148
ENCODING 12616
SWIDTH 960 0
DWIDTH 12 0
BBX 12 12 0 -2
BITMAP
0c00
0c00
7fc0
6cc0
7fc0
6cc0
7fe0
0cc0
0780
1d30
f1d0
0070
ENDCHAR
STARTCHAR 3149
ENCODING 12617
SWIDTH 960 0
DWIDTH 12 0
BBX 12 12 0 -2
BITMAP
6c60
36c0
3680
fff0
c630
c630
7fe0
0f00
1a80
36c0
e670
0600
ENDCHAR
STARTCHAR 314a
ENCODING 12618
SWIDTH 960 0
DWIDTH 12 0
BBX 12 12 0 -2
BITMAP
0e00
0300
0000
1e60
0740
ff80
1a80
1ac0
3660
e630
0600
0e00
ENDCHAR
STARTCHAR 314b
ENCODING 12619
SWIDTH 960 0
DWIDTH 12 0
BBX 12 12 0 -2
BITMAP
6380
30c0
0000
c7b0
61e0
1ec0
06c0
36a0
6db0
6998
c180
c380
ENDCHAR
STARTCHAR 314c
ENCODING 12620
SWIDTH 960 0
DWIDTH 12 0
BBX 12 12 0 -2
BITMAP
6300
3300
1fe0
db60
6fe0
1b60
1fe0
3300
6340
6180
c750
dc70
ENDCHAR
STARTCHAR 314d
ENCODING 12621
SWIDTH 960 0
DWIDTH 12 0
BBX 12 12 0 -2
BITMAP
06c0
fff0
66c0
66c0
6fe0
fda0
6da0
6ff0
7980
e340
0660
1c30
ENDCHAR
STARTCHAR 314e
ENCODING 12622
SWIDTH 960 0
DWIDTH 12 0
BBX 12 12 0 -2
BITMAP
0000
7f80
1980
1fe0
3560
3660
6d60
c1c0
7fe0
6d60
6d60
fff0
ENDCHAR
STARTCHAR 314f
ENCODING 12623
SWIDTH 960 0
DWIDTH 12 0
BBX 12 12 0 -2
BITMAP
c000
fbf0
c180
7df0
0330
7df0
3330
fdf0
3330
7bf0
d560
3630
ENDCHAR
STARTCHAR 3150
ENCODING 12624
SWIDTH 960 0
DWIDTH 12 0
BBX 12 12 0 -2
BITMAP
c000
fdf0
c180
7df0
0330
7df0
0330
fdf0
3330
d5f0
d5a0
3730
ENDCHAR
STARTCHAR 3151
ENCODING 12625
SWIDTH 960 0
DWIDTH 12 0
BBX 12 12 0 -2
BITMAP
1980
7fe0
1a80
0600
3fc0
36c0
36c0
fff0
0600
0d00
39c0
e070
ENDCHAR
STARTCHAR 3152
ENCODING 12626
SWIDTH 960 0
DWIDTH 12 0
BBX 12 12 0 -2
BITMAP
3400
3f70
6d00
df80
3bf8
6f60
e660
6f60
6a60
7fa0
6660
66e0
ENDCHAR
STARTCHAR 3153
ENCODING 12627
SWIDTH 960 0
DWIDTH 12 0
BBX 12 12 0 -2
BITMAP
7b80
00c0
fb80
01b0
79e0
0fc0
7bc0
03a0
faa0
ddb0
d980
fb80
ENDCHAR
STARTCHAR 3154
ENCODING 12628
SWIDTH 960 0
DWIDTH 12 0
BBX 12 12 0 -2
BITMAP
3660
3b60
6d40
c7e0
7e60
3660
ffe0
3340
d540
7b40
3ed0
ec70
ENDCHAR
STARTCHAR 3155
ENCODING 12629
SWIDTH 960 0
DWIDTH 12 0
BBX 12 12 0 -2
BITMAP
6180
37f0
0680
c6f0
6db0
0dd0
1d60
75a0
6ec0
6da0
cd30
ce30
ENDCHAR
STARTCHAR 3156
ENCODING 12630
SWIDTH 960 0
DWIDTH 12 0
BBX 12 12 0 -2
BITMAP
0300
3ff0
d7c0
76c0
36d0
3470
7bc0
d0c0
36c0
6380
66c0
dc70
ENDCHAR
STARTCHAR 3157
ENCODING 12631
SWIDTH 960 0
DWIDTH 12 0
BBX 12 12 0 -2
BITMAP
30c0
18c0
0d80
fff0
1980
1980
30c0
7fe0
d550
3540
3540
fff0
ENDCHAR
STARTCHAR 3158
ENCODING 12632
SWIDTH 960 0
DWIDTH 12 0
BBX 12 12 0 -2
BITMAP
0000
fdf0
d330
fb30
d3f0
fb40
d340
fd40
0d60
d560
cd30
3a18
ENDCHAR
STARTCHAR 3159
ENCODING 12633
SWIDTH 960 0
DWIDTH 12 0
BBX 12 12 0 -2
BITMAP
3660
3340
37e0
7a60
7660
d660
d7e0
3340
3340
36d0
34d0
3870
ENDCHAR
STARTCHAR 315a
ENCODING 12634
SWIDTH 960 0
DWIDTH 12 0
BBX 12 12 0 -2
BITMAP
7be0
0660
ffe0
0660
7be0
0300
7bf0
06d0
fbb0
dd50
dbd0
f8e0
ENDCHAR
STARTCHAR 315b
ENCODING 12635
SWIDTH 960 0
DWIDTH 12 0
BBX 12 12 0 -2
BITMAP
18c0
18d0
7df0
1b40
ff50
1b50
6f60
6b70
7bb0
6830
ce00
c3f8
ENDCHAR
STARTCHAR 315c
ENCODING 12636
SWIDTH 960 0
DWIDTH 12 0
BBX 12 12 0 -2
BITMAP
fdf0
cd30
fdf0
cd30
fdf0
cd30
dfb0
d9b0
dfb0
cd30
dbd0
d070
ENDCHAR
STARTCHAR 315d
ENCODING 12637
SWIDTH 960 0
DWIDTH 12 0
BBX 12 12 0 -2
BITMAP
37f0
3180
37f0
fa30
37f0
3630
7bf0
73e0
d760
d5c0
31a0
3738
ENDCHAR
STARTCHAR 315e
ENCODING 12638
SWIDTH 960 0
DWIDTH 12 0
BBX 12 12 0 -2
BITMAP
0000
7ff0
6ae0
6ed0
60c0
6ff0
6ac0
6ec0
6aa0
6ea0
daa0
db30
ENDCHAR
STARTCHAR 315f
ENCODING 12639
SWIDTH 960 0
DWIDTH 12 0
BBX 12 12 0 -2
BITMAP
0000
7fe0
6660
6660
6660
7fe0
6060
6060
6060
6060
6060
60e0
ENDCHAR
STARTCHAR 3160
ENCODING 12640
SWIDTH 960 0
DWIDTH 12 0
BBX 12 12 0 -2
BITMAP
0000
7ff0
6630
6fd0
6630
7ff0
68d0
6fd0
6f50
7ab0
66d0
7ff0
ENDCHAR
STARTCHAR 3161
ENCODING 12641
SWIDTH 960 0
DWIDTH 12 0
BBX 12 12 0 -2
BITMAP
3000
37f0
3560
35e0
fd60
35e0
3580
37f0
3d60
edc0
0f60
0ff0
ENDCHAR
STARTCHAR 3162
ENCODING 12642
SWIDTH 960 0
DWIDTH 12 0
BBX 12 12 0 -2
BITMAP
0600
0600
fff0
1a80
36c0
fff0
36c0
3fc0
36c0
3fc0
0630
03f0
ENDCHAR
STARTCHAR 3163
ENCODING 12643
SWIDTH 960 0
DWIDTH 12 0
BBX 12 12 0 -2
BITMAP
0600
fff0
dfb0
d9b0
1f80
1980
1f80
0c00
fff0
3980
0f00
79c0
ENDCHAR
STARTCHAR 3164
ENCODING 12644
SWIDTH 960 0
DWIDTH 12 0
BBX 12 12 0 -2
BITMAP
0070
fbc0
1980
3180
66f0
7a80
1a80
6a80
3680
3ff0
6e00
c3f8
ENDCHAR
STARTCHAR 3165
ENCODING 12645
SWIDTH 960 0
DWIDTH 12 0
BBX 12 12 0 -2
BITMAP
3000
3de0
6d60
d560
1b60
3330
e1f0
0600
6b60
6b30
d8d0
0fc0
ENDCHAR
STARTCHAR 3166
ENCODING 12646
SWIDTH 960 0
DWIDTH 12 0
BBX 12 12 0 -2
BITMAP
3180
3180
37f8
faa0
35b0
3be8
3aa0
f7e0
36a0
37e0
3198
70f8
ENDCHAR
STARTCHAR 3167
ENCODING 12647
SWIDTH 960 0
DWIDTH 12 0
BBX 12 12 0 -2
BITMAP
30f0
37a0
3560
fac0
37e0
3600
3ff0
f600
37e0
3560
39c0
7770
ENDCHAR
STARTCHAR 3168
ENCODING 12648
SWIDTH 960 0
DWIDTH 12 0
BBX 12 12 0 -2
BITMAP
6680
3680
0680
0cc0
ccc0
6860
37d0
34c0
6cc0
6cc0
ccc0
cfc0
ENDCHAR
STARTCHAR 3169
ENCODING 12649
SWIDTH 960 0
DWIDTH 12 0
BBX 12 12 0 -2
BITMAP
c300
7ff0
3030
1fe0
c300
6fe0
1b60
3fe0
6b60
6fe0
cc60
d830
ENDCHAR
STARTCHAR 316a
ENCODING 12650
SWIDTH 960 0
DWIDTH 12 0
BBX 12 12 0 -2
BITMAP
0600
1a60
36c0
0700
1dc0
7660
1a00
1a60
3740
0d80
38c0
e070
ENDCHAR
STARTCHAR 316b
ENCODING 12651
SWIDTH 960 0
DWIDTH 12 0
BBX 12 12 0 -2
BITMAP
30c0
30f0
33b0
7460
d8c0
d6f0
36b0
36b0
6af0
6eb0
c6b0
06f0
ENDCHAR
STARTCHAR 316c
ENCODING 12652
SWIDTH 960 0
DWIDTH 12 0
BBX 12 12 0 -2
BITMAP
3000
37f0
3340
77f0
dd50
d550
37f0
3180
6be0
6d80
c180
0ff0
ENDCHAR
STARTCHAR 316d
ENCODING 12653
SWIDTH 960 0
DWIDTH 12 0
BBX 12 12 0 -2
BITMAP
0d00
fff0
0d00
3740
30f0
f740
3550
f750
3070
3560
6db0
cdb0
ENDCHAR
STARTCHAR 316e
ENCODING 12654
SWIDTH 960 0
DWIDTH 12 0
BBX 12 12 0 -2
BITMAP
d980
77f0
6180
dff8
37e0
3660
77e0
d3b0
36b0
3ee0
36a0
ef30
ENDCHAR
STARTCHAR 316f
ENCODING 12655
SWIDTH 960 0
DWIDTH 12 0
BBX 12 12 0 -2
BITMAP
37c0
30c0
ebc0
68c0
37f0
6bb0
fea0
3340
dae0
d550
d6c0
31c0
ENDCHAR
STARTCHAR 3170
ENCODING 12656
SWIDTH 960 0
DWIDTH 12 0
BBX 12 12 0 -2
BITMAP
34c0
ff70
d5a0
fff0
d550
ff50
7df0
6d00
7d00
6b30
3f30
f1f0
ENDCHAR
STARTCHAR 3171
ENCODING 12657
SWIDTH 960 0
DWIDTH 12 0
BBX 12 12 0 -2
BITMAP
1980
fff0
1980
3000
3de0
3560
6d60
7560
ddc0
1b30
3330
61f0
ENDCHAR
STARTCHAR 3172
ENCODING 12658
SWIDTH 960 0
DWIDTH 12 0
BBX 12 12 0 -2
BITMAP
1980
fff0
1980
7ff0
6fb0
7ff0
68d0
6fd0
6d50
7db0
6ed0
7ff0
ENDCHAR
STARTCHAR 3173
ENCODING 12659
SWIDTH 960 0
DWIDTH 12 0
BBX 12 12 0 -2
BITMAP
0300
6fe0
3300
1ff0
0fe0
f460
37e0
37a0
3540
3b70
6d80
c7f8
ENDCHAR
STARTCHAR 3174
ENCODING 12660
SWIDTH 960 0
DWIDTH 12 0
BBX 12 12 0 -2
BITMAP
3340
3340
6b40
6e60
fc60
3030
ffe0
3660
da60
7660
3e60
f7e0
ENDCHAR
STARTCHAR 3175
ENCODING 12661
SWIDTH 960 0
DWIDTH 12 0
BBX 12 12 0 -2
BITMAP
1ef0
36b0
eab0
3d80
f6f0
3fc0
30c0
3fe0
3000
3ff0
6ab0
d6e0
ENDCHAR
STARTCHAR 3176
ENCODING 12662
SWIDTH 960 0
DWIDTH 12 0
BBX 12 12 0 -2
BITMAP
3600
37f0
3400
fbe0
3660
37e0
3000
7ff0
ed50
0d50
0d50
3ff8
ENDCHAR
STARTCHAR 3177
ENCODING 12663
SWIDTH 960 0
DWIDTH 12 0
BBX 12 12 0 -2
BITMAP
3180
3180
fd40
3340
3660
3db0
34c0
3500
6d80
6cc0
cc60
3860
ENDCHAR
STARTCHAR 3178
ENCODING 12664
SWIDTH 960 0
DWIDTH 12 0
BBX 12 12 0 -2
BITMAP
6000
37e0
0300
c300
6ff0
0600
07e0
3460
6c60
6060
c060
c1c0
ENDCHAR
STARTCHAR 3179
ENCODING 12665
SWIDTH 960 0
DWIDTH 12 0
BBX 12 12 0 -2
BITMAP
1800
6bf0
6ab0
7ff0
dab0
1bf0
7d80
1bf0
19b0
3d30
e330
0ee0
ENDCHAR
STARTCHAR 317a
ENCODING 12666
SWIDTH 960 0
DWIDTH 12 0
BBX 12 12 0 -2
BITMAP
0000
f9f0
d9b0
d9b0
d9b0
d9b0
dfb0
c030
c030
c030
fff0
0000
ENDCHAR
STARTCHAR 317b
ENCODING 12667
SWIDTH 960 0
DWIDTH 12 0
BBX 12 12 0 -2
BITMAP
0600
0600
3fc0
36c0
36c0
36c0
fff0
0e00
0d00
1980
30c0
e070
ENDCHAR
STARTCHAR 317c
ENCODING 12668
SWIDTH 960 0
DWIDTH 12 0
BBX 12 12 0 -2
BITMAP
0c00
1800
7fe0
6aa0
6f60
7fe0
6aa0
76e0
fff0
0d00
39c0
e070
ENDCHAR
STARTCHAR 317d
ENCODING 12669
SWIDTH 960 0
DWIDTH 12 0
BBX 12 12 0 -2
BITMAP
3300
3180
6ff0
6980
d980
3180
37e0
7180
d180
3180
3180
37f0
ENDCHAR
STARTCHAR 317e
ENCODING 12670
SWIDTH 960 0
DWIDTH 12 0
BBX 12 12 0 -2
BITMAP
0600
0600
7ff0
6300
6180
6680
6a60
6a30
6a30
d6c0
d6c0
03c0
ENDCHAR
STARTCHAR 3221
ENCODING 12833
SWIDTH 960 0
DWIDTH 12 0
BBX 12 12 0 -2
BITMAP
3000
37f0
35b0
fdb0
37f0
35b0
3db0
f7f0
3180
3180
3180
7180
ENDCHAR
STARTCHAR 3222
ENCODING 12834
SWIDTH 960 0
DWIDTH 12 0
BBX 12 12 0 -2
BITMAP
0000
fff0
d980
d980
d980
f980
dfe0
d980
d980
f980
0180
1ff0
ENDCHAR
STARTCHAR 3223
ENCODING 12835
SWIDTH 960 0
DWIDTH 12 0
BBX 12 12 0 -2
BITMAP
3360
37f0
fb60
37f8
3180
77f0
7ab0
77f0
d6b0
d7f0
3360
3630
ENDCHAR
STARTCHAR 3224
ENCODING 12836
SWIDTH 960 0
DWIDTH 12 0
BBX 12 12 0 -2
BITMAP
0300
fd00
c300
edf0
d550
dae0
dac0
d4c0
edc0
c1a0
fd60
0e30
ENDCHAR
STARTCHAR 3225
ENCODING 12837
SWIDTH 960 0
DWIDTH 12 0
BBX 12 12 0 -2
BITMAP
03c0
fd40
c340
ed50
d670
dbe0
d860
d560
edc0
c0c0
fda0
0e30
ENDCHAR
STARTCHAR 3226
ENCODING 12838
SWIDTH 960 0
DWIDTH 12 0
BBX 12 12 0 -2
BITMAP
0000
7fe0
0600
0600
0600
0600
3fc0
0600
0600
0600
0600
fff0
ENDCHAR
STARTCHAR 3227
ENCODING 12839
SWIDTH 960 0
DWIDTH 12 0
BBX 12 12 0 -2
BITMAP
0d80
1ac0
3660
edb8
3fc0
0060
fff0
6db0
34d0
3cf0
edb0
1c70
ENDCHAR
STARTCHAR 3228
ENCODING 12840
SWIDTH 960 0
DWIDTH 12 0
BBX 12 12 0 -2
BITMAP
3180
37f0
fb70
1ad0
1bf0
36d0
7770
dad0
34c0
37f8
31a0
3738
ENDCHAR
STARTCHAR 3229
ENCODING 12841
SWIDTH 960 0
DWIDTH 12 0
BBX 12 12 0 -2
BITMAP
34c0
1a80
fff0
cc30
3f80
3180
3ff0
3000
3fe0
1aa0
6d60
c1c0
ENDCHAR
STARTCHAR 322a
ENCODING 12842
SWIDTH 960 0
DWIDTH 12 0
BBX 12 12 0 -2
BITMAP
0180
fde0
c360
cde0
ed60
dbf0
db00
d5f0
edb0
c350
fe30
c0e0
ENDCHAR
STARTCHAR 322b
ENCODING 12843
SWIDTH 960 0
DWIDTH 12 0
BBX 12 12 0 -2
BITMAP
1980
7fe0
1980
fff0
0600
3fc0
36c0
3fc0
36c0
3fc0
19c0
f070
ENDCHAR
STARTCHAR 322c
ENCODING 12844
SWIDTH 960 0
DWIDTH 12 0
BBX 12 12 0 -2
BITMAP
0000
fff0
d9b0
cdb0
cd30
fff0
c630
d6d0
d6d0
dfd0
c030
c070
ENDCHAR
STARTCHAR 322d
ENCODING 12845
SWIDTH 960 0
DWIDTH 12 0
BBX 12 12 0 -2
BITMAP
6180
3180
0ff0
cdb0
6db0
0db0
0ff0
3180
6180
6180
c180
c180
ENDCHAR
STARTCHAR 322e
ENCODING 12846
SWIDTH 960 0
DWIDTH 12 0
BBX 12 12 0 -2
BITMAP
1980
fff0
1980
1980
d1a0
66a0
d6c0
3a80
6b80
db40
1a60
7430
ENDCHAR
STARTCHAR 322f
ENCODING 12847
SWIDTH 960 0
DWIDTH 12 0
BBX 12 12 0 -2
BITMAP
3180
37e0
36c0
3ff0
6c60
6fe0
ec60
6fe0
6b00
6aa0
76d0
63c0
ENDCHAR
STARTCHAR 3230
ENCODING 12848
SWIDTH 960 0
DWIDTH 12 0
BBX 12 12 0 -2
BITMAP
3fe0
3060
3fe0
3000
3ff0
3680
34e0
3fb0
6300
6fe0
c300
7ff0
ENDCHAR
STARTCHAR 3231
ENCODING 12849
SWIDTH 960 0
DWIDTH 12 0
BBX 12 12 0 -2
BITMAP
3300
37e0
36c0
3ff0
7460
77e0
d460
37e0
3680
36a0
3ad0
33d0
ENDCHAR
STARTCHAR 3232
ENCODING 12850
SWIDTH 960 0
DWIDTH 12 0
BBX 12 12 0 -2
BITMAP
0180
f7e0
d6c0
dff0
f460
d7e0
d460
f7e0
d680
d6a0
dad0
d3d0
ENDCHAR
STARTCHAR 3233
ENCODING 12851
SWIDTH 960 0
DWIDTH 12 0
BBX 12 12 0 -2
BITMAP
37e0
36c0
3380
fff0
35b0
75b0
7ff0
75b0
d7f0
d5b0
35b0
35b0
ENDCHAR
STARTCHAR 3234
ENCODING 12852
SWIDTH 960 0
DWIDTH 12 0
BBX 12 12 0 -2
BITMAP
1980
6980
6980
7d80
dbf0
1980
1d80
f980
1980
1980
1980
1ff8
ENDCHAR
STARTCHAR 3235
ENCODING 12853
SWIDTH 960 0
DWIDTH 12 0
BBX 12 12 0 -2
BITMAP
0000
3fc0
00c0
0180
0300
0600
0c00
1800
3000
6030
6030
3ff0
ENDCHAR
STARTCHAR 3236
ENCODING 12854
SWIDTH 960 0
DWIDTH 12 0
BBX 12 12 0 -2
BITMAP
3300
3300
3ff0
6680
ed60
6fd0
7540
6fc0
6d40
6fc0
6330
61f0
ENDCHAR
STARTCHAR 3237
ENCODING 12855
SWIDTH 960 0
DWIDTH 12 0
BBX 12 12 0 -2
BITMAP
3000
3ef0
69b0
d9b0
7fb0
19b0
6eb0
69b0
69e0
6e80
f180
0180
ENDCHAR
STARTCHAR 3238
ENCODING 12856
SWIDTH 960 0
DWIDTH 12 0
BBX 12 12 0 -2
BITMAP
0000
7fe0
6660
7fe0
6d60
79e0
7fe0
1a00
6b60
6b30
d8d0
0fc0
ENDCHAR
STARTCHAR 3239
ENCODING 12857
SWIDTH 960 0
DWIDTH 12 0
BBX 12 12 0 -2
BITMAP
6000
37c0
0cc0
cfc0
6cc0
0fc0
0000
3fe0
6aa0
6aa0
daa0
dff0
ENDCHAR
STARTCHAR 323a
ENCODING 12858
SWIDTH 960 0
DWIDTH 12 0
BBX 12 12 0 -2
BITMAP
39f0
f760
35a0
36c0
ffe0
3060
7be0
7060
d7e0
d5a0
3550
35f0
ENDCHAR
STARTCHAR 323b
ENCODING 12859
SWIDTH 960 0
DWIDTH 12 0
BBX 12 12 0 -2
BITMAP
0600
7fe0
1980
0d00
fff0
0000
1fc0
18c0
1fc0
18c0
18c0
1fc0
ENDCHAR
STARTCHAR 323c
ENCODING 12860
SWIDTH 960 0
DWIDTH 12 0
BBX 12 12 0 -2
BITMAP
0000
fff0
0600
0600
0780
06c0
0660
0600
0600
0600
0600
0600
ENDCHAR
STARTCHAR 323d
ENCODING 12861
SWIDTH 960 0
DWIDTH 12 0
BBX 12 12 0 -2
BITMAP
1b00
1b00
1b60
3360
3340
7380
d300
3300
3300
3330
3330
31f0
ENDCHAR
STARTCHAR 323e
ENCODING 12862
SWIDTH 960 0
DWIDTH 12 0
BBX 12 12 0 -2
BITMAP
1800
1bf0
1a00
3600
37e0
7760
d6a0
36c0
34c0
35c0
3b60
3630
ENDCHAR
STARTCHAR 323f
ENCODING 12863
SWIDTH 960 0
DWIDTH 12 0
BBX 12 12 0 -2
BITMAP
1800
1ff8
1860
3060
37a0
75a0
d5a0
35a0
37a0
3060
3060
30e0
ENDCHAR
STARTCHAR 3240
ENCODING 12864
SWIDTH 960 0
DWIDTH 12 0
BBX 12 12 0 -2
BITMAP
3400
3400
34f0
6f50
6d50
ed50
6d50
6d50
6b50
6b50
7370
6e00
ENDCHAR
STARTCHAR 3241
ENCODING 12865
SWIDTH 960 0
DWIDTH 12 0
BBX 12 12 0 -2
BITMAP
1800
1ff0
1b40
3340
37f0
7550
d550
3550
3550
3550
37f0
3400
ENDCHAR
STARTCHAR 3242
ENCODING 12866
SWIDTH 960 0
DWIDTH 12 0
BBX 12 12 0 -2
BITMAP
3300
3300
3fe0
6300
6300
eff0
6300
6300
6fe0
6300
6300
7ff0
ENDCHAR
STARTCHAR 3243
ENCODING 12867
SWIDTH 960 0
DWIDTH 12 0
BBX 12 12 0 -2
BITMAP
3000
3000
31f0
feb0
36b0
36b0
36b0
36b0
36b0
66b0
66f0
dc00
ENDCHAR
STARTCHAR 3244
ENCODING 12868
SWIDTH 960 0
DWIDTH 12 0
BBX 12 12 0 -2
BITMAP
0000
fff0
00c0
3f40
3340
3340
3340
3f40
30c0
00c0
00c0
01c0
ENDCHAR
STARTCHAR 3245
ENCODING 12869
SWIDTH 960 0
DWIDTH 12 0
BBX 12 12 0 -2
BITMAP
0600
fff0
0600
3fc0
30c0
7fe0
0d80
fff0
1800
fdf0
3530
edf0
ENDCHAR
STARTCHAR 3246
ENCODING 12870
SWIDTH 960 0
DWIDTH 12 0
BBX 12 12 0 -2
BITMAP
0000
fff0
0c00
3fc0
30c0
3fc0
30c0
3fc0
1f80
7980
0f00
f9f0
ENDCHAR
STARTCHAR 3247
ENCODING 12871
SWIDTH 960 0
DWIDTH 12 0
BBX 12 12 0 -2
BITMAP
6180
6ff0
6c30
fbe0
6980
6fb0
6b60
dec0
fb60
36d0
60c0
c380
ENDCHAR
STARTCHAR 3248
ENCODING 12872
SWIDTH 960 0
DWIDTH 12 0
BBX 12 12 0 -2
BITMAP
0600
fff0
c030
dfd0
0c00
1aa0
75a0
1b40
7540
1b60
7330
0e00
ENDCHAR
STARTCHAR 3249
ENCODING 12873
SWIDTH 960 0
DWIDTH 12 0
BBX 12 12 0 -2
BITMAP
0600
fff0
cc30
dfb0
1980
1f80
1980
fff0
34e0
efd8
0cc0
3b80
ENDCHAR
STARTCHAR 324a
ENCODING 12874
SWIDTH 960 0
DWIDTH 12 0
BBX 12 12 0 -2
BITMAP
1c60
f360
31a0
3060
fd60
39a0
7460
70f8
d7a0
3060
3060
3060
ENDCHAR
STARTCHAR 324b
ENCODING 12875
SWIDTH 960 0
DWIDTH 12 0
BBX 12 12 0 -2
BITMAP
0f70
f530
d530
d770
d400
f5f0
d730
d4d0
d460
f760
0cd0
0d98
ENDCHAR
STARTCHAR 324c
ENCODING 12876
SWIDTH 960 0
DWIDTH 12 0
BBX 12 12 0 -2
BITMAP
0000
3fe0
3660
3fe0
3660
3fe0
0600
7ff0
0f00
3ac0
e670
0600
ENDCHAR
STARTCHAR 324d
ENCODING 12877
SWIDTH 960 0
DWIDTH 12 0
BBX 12 12 0 -2
BITMAP
3000
fde0
3560
3560
6d60
dbe0
0600
fff0
0f00
3ac0
e670
0600
ENDCHAR
STARTCHAR 324e
ENCODING 12878
SWIDTH 960 0
DWIDTH 12 0
BBX 12 12 0 -2
BITMAP
0180
fe80
f5f0
d550
f560
0ec0
fcc0
0dc0
f5a0
d560
f630
1c18
ENDCHAR
STARTCHAR 324f
ENCODING 12879
SWIDTH 960 0
DWIDTH 12 0
BBX 12 12 0 -2
BITMAP
6000
37f0
0060
c060
6fa0
0da0
0da0
37a0
6060
6060
c060
c0e0
ENDCHAR
STARTCHAR 3250
ENCODING 12880
SWIDTH 960 0
DWIDTH 12 0
BBX 12 12 0 -2
BITMAP
0600
0600
0660
3660
36c0
6680
6600
0700
0d00
0d80
38c0
e070
ENDCHAR
STARTCHAR 3251
ENCODING 12881
SWIDTH 960 0
DWIDTH 12 0
BBX 12 12 0 -2
BITMAP
0000
0ff0
f860
37a0
36a0
36a0
faa0
37a0
3060
3860
e060
00e0
ENDCHAR
STARTCHAR 3252
ENCODING 12882
SWIDTH 960 0
DWIDTH 12 0
BBX 12 12 0 -2
BITMAP
37e0
3660
fae0
1aa0
36a0
37f0
7c30
d5d0
3550
3550
35d0
3470
ENDCHAR
STARTCHAR 3253
ENCODING 12883
SWIDTH 960 0
DWIDTH 12 0
BBX 12 12 0 -2
BITMAP
01c0
7f00
0600
0600
fff0
0600
0f00
1a80
36c0
e670
0600
0600
ENDCHAR
STARTCHAR 3254
ENCODING 12884
SWIDTH 960 0
DWIDTH 12 0
BBX 12 12 0 -2
BITMAP
3980
f7f0
3430
37e0
fd00
3bb0
76a0
dbc0
d6a0
39b0
3180
3700
ENDCHAR
STARTCHAR 3255
ENCODING 12885
SWIDTH 960 0
DWIDTH 12 0
BBX 12 12 0 -2
BITMAP
3180
7df0
dac0
7ff0
6630
6fd0
6630
6fd0
68d0
6fd0
6030
7ff0
ENDCHAR
STARTCHAR 3256
ENCODING 12886
SWIDTH 960 0
DWIDTH 12 0
BBX 12 12 0 -2
BITMAP
1980
1980
fff0
1d80
0d00
1b30
3b60
6b80
db00
1b30
1b30
19f0
ENDCHAR
STARTCHAR 3257
ENCODING 12887
SWIDTH 960 0
DWIDTH 12 0
BBX 12 12 0 -2
BITMAP
1980
fff0
1980
0000
fff0
00c0
3f40
3340
3340
3f40
00c0
01c0
ENDCHAR
STARTCHAR 3258
ENCODING 12888
SWIDTH 960 0
DWIDTH 12 0
BBX 12 12 0 -2
BITMAP
1980
fff0
1980
3180
31f0
feb0
36b0
36b0
36b0
66b0
66f0
dc00
ENDCHAR
STARTCHAR 3259
ENCODING 12889
SWIDTH 960 0
DWIDTH 12 0
BBX 12 12 0 -2
BITMAP
1980
fff0
0d80
3000
3ff0
60c0
6f40
eb40
6b40
6f40
60c0
61c0
ENDCHAR
STARTCHAR 325a
ENCODING 12890
SWIDTH 960 0
DWIDTH 12 0
BBX 12 12 0 -2
BITMAP
1980
fff0
1980
7fe0
36c0
fff0
36c0
7fe0
0600
fff0
0600
0600
ENDCHAR
STARTCHAR 325b
ENCODING 12891
SWIDTH 960 0
DWIDTH 12 0
BBX 12 12 0 -2
BITMAP
1980
fff0
1980
3fc0
36c0
3fc0
36c0
fff0
0f00
3ac0
e670
0600
ENDCHAR
STARTCHAR 325c
ENCODING 12892
SWIDTH 960 0
DWIDTH 12 0
BBX 12 12 0 -2
BITMAP
3000
37f0
36b0
ffb0
d600
d6f0
ffb0
36d0
3a60
37a0
3ed0
e6b0
ENDCHAR
STARTCHAR 325d
ENCODING 12893
SWIDTH 960 0
DWIDTH 12 0
BBX 12 12 0 -2
BITMAP
7bf0
06b0
fbf0
06b0
7ab0
07f0
7980
0ff0
fbc0
daa0
ddb0
f980
ENDCHAR
STARTCHAR 325e
ENCODING 12894
SWIDTH 960 0
DWIDTH 12 0
BBX 12 12 0 -2
BITMAP
0cc0
3ff0
f4c0
dfe0
d540
dff0
d540
dfe0
f300
3ff0
0300
0300
ENDCHAR
STARTCHAR 325f
ENCODING 12895
SWIDTH 960 0
DWIDTH 12 0
BBX 12 12 0 -2
BITMAP
0d70
3bc0
eb30
3ff0
30c0
3fc0
30c0
3fc0
30c0
3fc0
39c0
e060
ENDCHAR
STARTCHAR 3260
ENCODING 12896
SWIDTH 960 0
DWIDTH 12 0
BBX 12 12 0 -2
BITMAP
0c00
6cf0
3f50
0d50
0d50
f550
3550
3550
3570
3b00
6c00
c7f8
ENDCHAR
STARTCHAR 3261
ENCODING 12897
SWIDTH 960 0
DWIDTH 12 0
BBX 12 12 0 -2
BITMAP
07e0
6660
36e0
06a0
0ff0
f430
35d0
3550
35d0
3470
6c00
c7f8
ENDCHAR
STARTCHAR 3262
ENCODING 12898
SWIDTH 960 0
DWIDTH 12 0
BBX 12 12 0 -2
BITMAP
7fe0
0600
fff0
c630
dad0
0000
7de0
6c60
7de0
61a0
7cc0
63b0
ENDCHAR
STARTCHAR 3263
ENCODING 12899
SWIDTH 960 0
DWIDTH 12 0
BBX 12 12 0 -2
BITMAP
3180
3180
37f0
fd60
d560
d540
fdc0
3980
35c0
3d40
e660
0c30
ENDCHAR
STARTCHAR 3264
ENCODING 12900
SWIDTH 960 0
DWIDTH 12 0
BBX 12 12 0 -2
BITMAP
3680
3da0
35b0
3580
7ff0
6d80
eea0
6da0
6cc0
75d0
6d70
6c30
ENDCHAR
STARTCHAR 3265
ENCODING 12901
SWIDTH 960 0
DWIDTH 12 0
BBX 12 12 0 -2
BITMAP
0340
36e0
36d0
36c0
37f0
d6c0
d750
d6d0
d660
fee0
06b0
0e30
ENDCHAR
STARTCHAR 3266
ENCODING 12902
SWIDTH 960 0
DWIDTH 12 0
BBX 12 12 0 -2
BITMAP
0d00
7b40
1b60
1b00
fff0
1b60
1b60
1ea0
f9c0
1b50
1a70
3830
ENDCHAR
STARTCHAR 3267
ENCODING 12903
SWIDTH 960 0
DWIDTH 12 0
BBX 12 12 0 -2
BITMAP
0000
1fe0
1980
1980
1980
fff0
0380
0680
0d80
3980
e180
0380
ENDCHAR
STARTCHAR 3268
ENCODING 12904
SWIDTH 960 0
DWIDTH 12 0
BBX 12 12 0 -2
BITMAP
0000
fff0
0600
3fc0
d6d0
d6d0
dfd0
d6d0
d6d0
dfd0
c030
fff0
ENDCHAR
STARTCHAR 3269
ENCODING 12905
SWIDTH 960 0
DWIDTH 12 0
BBX 12 12 0 -2
BITMAP
00c0
fec0
d8c0
d8c0
fec0
c6c0
fec0
d9a0
d9a0
d9a0
ff30
0618
ENDCHAR
STARTCHAR 326a
ENCODING 12906
SWIDTH 960 0
DWIDTH 12 0
BBX 12 12 0 -2
BITMAP
1980
fff0
1980
7ff0
3180
3180
fff0
0680
0d80
3980
e180
0380
ENDCHAR
STARTCHAR 326b
ENCODING 12907
SWIDTH 960 0
DWIDTH 12 0
BBX 12 12 0 -2
BITMAP
0340
36e0
36d0
fec0
d7f0
d6c0
ff50
36d0
3660
3ee0
e6b0
0e30
ENDCHAR
STARTCHAR 326c
ENCODING 12908
SWIDTH 960 0
DWIDTH 12 0
BBX 12 12 0 -2
BITMAP
3000
fdf0
3530
6d30
ddf0
3fc0
30c0
3fc0
30c0
3fc0
1980
f0e0
ENDCHAR
STARTCHAR 326d
ENCODING 12909
SWIDTH 960 0
DWIDTH 12 0
BBX 12 12 0 -2
BITMAP
0360
fd40
6bf0
6ac0
fec0
1be0
3ac0
3ac0
6be0
dac0
1ac0
3bf0
ENDCHAR
STARTCHAR 326e
ENCODING 12910
SWIDTH 960 0
DWIDTH 12 0
BBX 12 12 0 -2
BITMAP
3340
3ae0
6ed0
fac0
6ff0
7ac0
6b50
7ed0
6660
6ae0
6eb0
f630
ENDCHAR
STARTCHAR 326f
ENCODING 12911
SWIDTH 960 0
DWIDTH 12 0
BBX 12 12 0 -2
BITMAP
3000
fdf0
3530
6df0
dc00
3fe0
3600
3fc0
3600
3ff0
6d50
d8e0
ENDCHAR
STARTCHAR 3270
ENCODING 12912
SWIDTH 960 0
DWIDTH 12 0
BBX 12 12 0 -2
BITMAP
0600
0600
0d00
1980
30c0
e9b0
1980
1980
1980
3180
3180
6180
ENDCHAR
STARTCHAR 3271
ENCODING 12913
SWIDTH 960 0
DWIDTH 12 0
BBX 12 12 0 -2
BITMAP
0600
0600
0d00
1980
3fc0
e070
0000
7fe0
0d00
1b80
7ec0
00c0
ENDCHAR
STARTCHAR 3272
ENCODING 12914
SWIDTH 960 0
DWIDTH 12 0
BBX 12 12 0 -2
BITMAP
3000
3ff0
6db0
db30
7ee0
6af0
7f40
6ac0
7ff8
66c0
66c0
cec0
ENDCHAR
STARTCHAR 3273
ENCODING 12915
SWIDTH 960 0
DWIDTH 12 0
BBX 12 12 0 -2
BITMAP
0000
7ff0
6030
6030
6fb0
6db0
6db0
6fb0
6030
6030
7ff0
0000
ENDCHAR
STARTCHAR 3274
ENCODING 12916
SWIDTH 960 0
DWIDTH 12 0
BBX 12 12 0 -2
BITMAP
3180
3300
37e0
fda0
37e0
35a0
37e0
33a0
3dd0
e6f0
0db0
38f0
ENDCHAR
STARTCHAR 3275
ENCODING 12917
SWIDTH 960 0
DWIDTH 12 0
BBX 12 12 0 -2
BITMAP
0180
37f0
3180
37f0
fd50
37f0
3180
3ff8
36a0
eac0
37a0
0e30
ENDCHAR
STARTCHAR 3276
ENCODING 12918
SWIDTH 960 0
DWIDTH 12 0
BBX 12 12 0 -2
BITMAP
0000
f7f0
3430
35d0
6d50
f550
35d0
d430
77f0
3000
6c00
c7f0
ENDCHAR
STARTCHAR 3277
ENCODING 12919
SWIDTH 960 0
DWIDTH 12 0
BBX 12 12 0 -2
BITMAP
3300
3300
37e0
3360
7b60
77f0
d300
3380
3380
36c0
3460
3830
ENDCHAR
STARTCHAR 3278
ENCODING 12920
SWIDTH 960 0
DWIDTH 12 0
BBX 12 12 0 -2
BITMAP
37e0
3660
3340
3180
7b40
7670
d180
3180
37e0
3180
3180
3ff0
ENDCHAR
STARTCHAR 3279
ENCODING 12921
SWIDTH 960 0
DWIDTH 12 0
BBX 12 12 0 -2
BITMAP
3300
33f0
3600
37e0
76a0
7aa0
d7f0
35a0
35a0
37f0
3060
31c0
ENDCHAR
STARTCHAR 327a
ENCODING 12922
SWIDTH 960 0
DWIDTH 12 0
BBX 12 12 0 -2
BITMAP
3000
37f0
36c0
36d0
76d0
7ae0
7740
d6c0
34c0
35a0
3b60
3c30
ENDCHAR
STARTCHAR 327b
ENCODING 12923
SWIDTH 960 0
DWIDTH 12 0
BBX 12 12 0 -2
BITMAP
3180
37f0
3180
3ff0
7550
77f0
d180
3ff8
36a0
36c0
3ba0
3630
ENDCHAR
STARTCHAR 327c
ENCODING 12924
SWIDTH 960 0
DWIDTH 12 0
BBX 12 12 0 -2
BITMAP
0340
0360
fff0
0300
3560
3560
ff40
35c0
3580
6d50
ce70
0c30
ENDCHAR
STARTCHAR 327d
ENCODING 12925
SWIDTH 960 0
DWIDTH 12 0
BBX 12 12 0 -2
BITMAP
3000
37f0
3630
fa30
37f0
3000
3ff0
f1b0
31b0
3330
3630
74e0
ENDCHAR
STARTCHAR 327e
ENCODING 12926
SWIDTH 960 0
DWIDTH 12 0
BBX 12 12 0 -2
BITMAP
0300
fd00
0df0
0d60
fe60
c760
cd40
c180
cdc0
7d40
0660
1c30
ENDCHAR
STARTCHAR 3321
ENCODING 13089
SWIDTH 960 0
DWIDTH 12 0
BBX 12 12 0 -2
BITMAP
3060
6060
fda0
d560
fda0
d560
fc70
3be0
3d60
6f60
69b0
cff0
ENDCHAR
STARTCHAR 3322
ENCODING 13090
SWIDTH 960 0
DWIDTH 12 0
BBX 12 12 0 -2
BITMAP
0600
f7f0
d600
d7e0
daa0
f6a0
dff0
d5a0
d5a0
f7f0
0060
01c0
ENDCHAR
STARTCHAR 3323
ENCODING 13091
SWIDTH 960 0
DWIDTH 12 0
BBX 12 12 0 -2
BITMAP
3070
3068
37f8
f860
36a0
7aa0
77e8
76a8
d6b0
d5b0
38d8
3198
ENDCHAR
STARTCHAR 3324
ENCODING 13092
SWIDTH 960 0
DWIDTH 12 0
BBX 12 12 0 -2
BITMAP
6600
37f0
0600
cfe0
6aa0
06a0
07f0
35a0
6da0
6ff0
c060
c1c0
ENDCHAR
STARTCHAR 3325
ENCODING 13093
SWIDTH 960 0
DWIDTH 12 0
BBX 12 12 0 -2
BITMAP
0000
3ff0
3300
3360
3560
3560
3b40
3300
6680
6680
ccc0
3870
ENDCHAR
STARTCHAR 3326
ENCODING 13094
SWIDTH 960 0
DWIDTH 12 0
BBX 12 12 0 -2
BITMAP
0000
3fe0
3660
3fe0
3660
3fe0
0d00
39c0
edb0
0d80
1980
3180
ENDCHAR
STARTCHAR 3327
ENCODING 13095
SWIDTH 960 0
DWIDTH 12 0
BBX 12 12 0 -2
BITMAP
6300
6370
7dc0
6300
6d30
f6f0
0c00
3fc0
30c0
3fc0
30c0
3fc0
ENDCHAR
STARTCHAR 3328
ENCODING 13096
SWIDTH 960 0
DWIDTH 12 0
BBX 12 12 0 -2
BITMAP
3180
3180
eb40
6a60
35d0
6800
fff0
3300
db40
d6c0
d7a0
3060
ENDCHAR
STARTCHAR 3329
ENCODING 13097
SWIDTH 960 0
DWIDTH 12 0
BBX 12 12 0 -2
BITMAP
18c0
fff0
1980
1a80
0d00
1980
35c0
edb0
0d80
1980
1980
3180
ENDCHAR
STARTCHAR 332a
ENCODING 13098
SWIDTH 960 0
DWIDTH 12 0
BBX 12 12 0 -2
BITMAP
3df0
e8d0
7ea0
6bf0
7ec0
67f0
cec0
3fc0
36c0
3fc0
06e0
ffb0
ENDCHAR
STARTCHAR 332b
ENCODING 13099
SWIDTH 960 0
DWIDTH 12 0
BBX 12 12 0 -2
BITMAP
fdf0
cd30
fdf0
cd30
fdf0
c030
dfd0
cd30
dfd0
db30
d330
c370
ENDCHAR
STARTCHAR 332c
ENCODING 13100
SWIDTH 960 0
DWIDTH 12 0
BBX 12 12 0 -2
BITMAP
0d80
f5b0
d7e0
d580
edb0
d6f0
db00
d7e0
f460
cfe0
cc60
cfe0
ENDCHAR
STARTCHAR 332d
ENCODING 13101
SWIDTH 960 0
DWIDTH 12 0
BBX 12 12 0 -2
BITMAP
0000
3fc0
30c0
30c0
3fc0
30c0
3fc0
30c0
30c0
3fc0
1d80
70e0
ENDCHAR
STARTCHAR 332e
ENCODING 13102
SWIDTH 960 0
DWIDTH 12 0
BBX 12 12 0 -2
BITMAP
3000
d5e0
fd60
0360
fd60
0360
fd60
cd60
fd60
6b60
7e60
ec78
ENDCHAR
STARTCHAR 332f
ENCODING 13103
SWIDTH 960 0
DWIDTH 12 0
BBX 12 12 0 -2
BITMAP
1980
1980
fe80
37f0
69b0
e9b0
35b0
6db0
db30
3530
6630
cce0
ENDCHAR
STARTCHAR 3330
ENCODING 13104
SWIDTH 960 0
DWIDTH 12 0
BBX 12 12 0 -2
BITMAP
3180
3180
3e80
3680
6680
76c0
dda0
0db0
1980
1980
3180
6180
ENDCHAR
STARTCHAR 3331
ENCODING 13105
SWIDTH 960 0
DWIDTH 12 0
BBX 12 12 0 -2
BITMAP
0180
0180
fff0
d980
db60
db40
d980
db60
dec0
fbc0
0760
1c30
ENDCHAR
STARTCHAR 3332
ENCODING 13106
SWIDTH 960 0
DWIDTH 12 0
BBX 12 12 0 -2
BITMAP
0600
fff0
c630
dfd0
0600
3fc0
0600
7fe0
0000
3fc0
30c0
3fc0
ENDCHAR
STARTCHAR 3333
ENCODING 13107
SWIDTH 960 0
DWIDTH 12 0
BBX 12 12 0 -2
BITMAP
6660
7fe0
0000
7ff0
6300
6fe0
6300
7ff0
6300
6fe0
c300
3ff0
ENDCHAR
STARTCHAR 3334
ENCODING 13108
SWIDTH 960 0
DWIDTH 12 0
BBX 12 12 0 -2
BITMAP
3000
3770
3550
3750
7d50
75f8
d760
3660
3560
3768
3da8
3338
ENDCHAR
STARTCHAR 3335
ENCODING 13109
SWIDTH 960 0
DWIDTH 12 0
BBX 12 12 0 -2
BITMAP
3000
3770
3550
ff50
3550
75f8
7f60
7660
d560
d768
35a8
3338
ENDCHAR
STARTCHAR 3336
ENCODING 13110
SWIDTH 960 0
DWIDTH 12 0
BBX 12 12 0 -2
BITMAP
6000
3ff0
1980
dbe0
6980
1ff0
1980
3980
6be0
6980
d980
d7f0
ENDCHAR
STARTCHAR 3337
ENCODING 13111
SWIDTH 960 0
DWIDTH 12 0
BBX 12 12 0 -2
BITMAP
0000
fbe0
3660
37e0
6660
7ff0
e860
6ff0
6b60
69a0
7860
00e0
ENDCHAR
STARTCHAR 3338
ENCODING 13112
SWIDTH 960 0
DWIDTH 12 0
BBX 12 12 0 -2
BITMAP
1980
fff0
1980
0600
7fe0
0600
fff0
18c0
7fe0
3550
3540
fff0
ENDCHAR
STARTCHAR 3339
ENCODING 13113
SWIDTH 960 0
DWIDTH 12 0
BBX 12 12 0 -2
BITMAP
3600
36f0
6f00
d6f0
3660
6fa0
6660
efa0
6660
67a0
6c60
60e0
ENDCHAR
STARTCHAR 333a
ENCODING 13114
SWIDTH 960 0
DWIDTH 12 0
BBX 12 12 0 -2
BITMAP
3cc0
00c0
fff0
0180
79a0
0360
7ac0
01b0
7d60
6ec0
6da0
7f30
ENDCHAR
STARTCHAR 333b
ENCODING 13115
SWIDTH 960 0
DWIDTH 12 0
BBX 12 12 0 -2
BITMAP
36a0
3aa0
6fe0
cc00
fff0
3000
7fe0
3660
d7e0
7a60
3d40
e7f0
ENDCHAR
STARTCHAR 333c
ENCODING 13116
SWIDTH 960 0
DWIDTH 12 0
BBX 12 12 0 -2
BITMAP
7cc0
6cc0
6ff0
fe80
c680
7d60
6ec0
7db0
6d60
7ec0
6da0
6f30
ENDCHAR
STARTCHAR 333d
ENCODING 13117
SWIDTH 960 0
DWIDTH 12 0
BBX 12 12 0 -2
BITMAP
6000
3fe0
1b60
dfe0
6b60
1b60
1fe0
3300
6fe0
6300
c300
dff0
ENDCHAR
STARTCHAR 333e
ENCODING 13118
SWIDTH 960 0
DWIDTH 12 0
BBX 12 12 0 -2
BITMAP
7ee0
19a0
ffb0
6ae0
7ea0
df40
c6b0
fff0
1ac0
3fe0
e8d0
1fc0
ENDCHAR
STARTCHAR 333f
ENCODING 13119
SWIDTH 960 0
DWIDTH 12 0
BBX 12 12 0 -2
BITMAP
3180
3180
37e0
fd80
d580
d7f0
fd80
3180
3be0
3580
3d80
e7f0
ENDCHAR
STARTCHAR 3340
ENCODING 13120
SWIDTH 960 0
DWIDTH 12 0
BBX 12 12 0 -2
BITMAP
0ff0
3000
37e0
3660
fe60
37e0
3660
3660
3be0
f000
0000
1ff0
ENDCHAR
STARTCHAR 3341
ENCODING 13121
SWIDTH 960 0
DWIDTH 12 0
BBX 12 12 0 -2
BITMAP
3180
3180
37f0
f980
37f0
76b0
7ab0
76b0
d6b0
d6b0
3180
3180
ENDCHAR
STARTCHAR 3342
ENCODING 13122
SWIDTH 960 0
DWIDTH 12 0
BBX 12 12 0 -2
BITMAP
3000
33f0
3300
fdf0
d540
d540
fd70
3b50
35b0
3eb0
ed30
06e0
ENDCHAR
STARTCHAR 3343
ENCODING 13123
SWIDTH 960 0
DWIDTH 12 0
BBX 12 12 0 -2
BITMAP
3180
3180
69f0
6d30
fdb0
36b0
fdb0
3350
dbd0
74d0
3830
e0e0
ENDCHAR
STARTCHAR 3344
ENCODING 13124
SWIDTH 960 0
DWIDTH 12 0
BBX 12 12 0 -2
BITMAP
1830
7eb0
1ab0
ffb0
1ab0
ffb0
6ab0
7eb0
6ab0
7e30
1f30
f070
ENDCHAR
STARTCHAR 3345
ENCODING 13125
SWIDTH 960 0
DWIDTH 12 0
BBX 12 12 0 -2
BITMAP
0660
f660
d770
d660
dff8
d6a0
d6b0
d7f0
fbe8
daa8
36a8
0760
ENDCHAR
STARTCHAR 3346
ENCODING 13126
SWIDTH 960 0
DWIDTH 12 0
BBX 12 12 0 -2
BITMAP
0c00
0fc0
18c0
3580
6700
0d80
18c0
3fe0
e8d0
18c0
18c0
1fc0
ENDCHAR
STARTCHAR 3347
ENCODING 13127
SWIDTH 960 0
DWIDTH 12 0
BBX 12 12 0 -2
BITMAP
0600
7ff0
6c00
7ff0
6eb0
6aa0
6ec0
7eb0
6db0
dfb0
cde0
1d80
ENDCHAR
STARTCHAR 3348
ENCODING 13128
SWIDTH 960 0
DWIDTH 12 0
BBX 12 12 0 -2
BITMAP
3180
3180
37f0
fc00
3580
3580
3d80
f540
3560
3570
3bb0
7030
ENDCHAR
STARTCHAR 3349
ENCODING 13129
SWIDTH 960 0
DWIDTH 12 0
BBX 12 12 0 -2
BITMAP
3530
36a0
37f0
fc30
37e0
3660
3be0
f660
37e0
3340
36d0
7470
ENDCHAR
STARTCHAR 334a
ENCODING 13130
SWIDTH 960 0
DWIDTH 12 0
BBX 12 12 0 -2
BITMAP
3300
33e0
3360
fb60
35c0
71a0
7b30
77e8
d360
d360
3360
33e0
ENDCHAR
STARTCHAR 334b
ENCODING 13131
SWIDTH 960 0
DWIDTH 12 0
BBX 12 12 0 -2
BITMAP
3180
3180
37f0
fb00
3340
7b40
7580
7360
d6c0
d1c0
3360
3630
ENDCHAR
STARTCHAR 334c
ENCODING 13132
SWIDTH 960 0
DWIDTH 12 0
BBX 12 12 0 -2
BITMAP
33c0
fd40
3340
7d50
0670
fc00
cde0
7860
6b40
6d80
6b40
ce60
ENDCHAR
STARTCHAR 334d
ENCODING 13133
SWIDTH 960 0
DWIDTH 12 0
BBX 12 12 0 -2
BITMAP
dac0
7ff0
6680
d4c0
37f0
3d80
77f0
d580
37f0
36c0
e380
6ef0
ENDCHAR
STARTCHAR 334e
ENCODING 13134
SWIDTH 960 0
DWIDTH 12 0
BBX 12 12 0 -2
BITMAP
0180
fff0
3530
3340
67f0
7ec0
ebe0
6ac0
6be0
6ac0
7ac0
07f0
ENDCHAR
STARTCHAR 334f
ENCODING 13135
SWIDTH 960 0
DWIDTH 12 0
BBX 12 12 0 -2
BITMAP
3b40
f7f0
3340
fa80
37f0
7680
7be0
7680
d7f0
d6c0
3380
36f0
ENDCHAR
STARTCHAR 3350
ENCODING 13136
SWIDTH 960 0
DWIDTH 12 0
BBX 12 12 0 -2
BITMAP
34c0
1a80
fff0
d0d0
dfd0
30c0
3fc0
30c0
3fc0
0d00
3b30
e1f0
ENDCHAR
STARTCHAR 3351
ENCODING 13137
SWIDTH 960 0
DWIDTH 12 0
BBX 12 12 0 -2
BITMAP
0c00
1f80
3300
ffe0
3660
3fe0
3660
3fe0
3060
3060
3060
60e0
ENDCHAR
STARTCHAR 3352
ENCODING 13138
SWIDTH 960 0
DWIDTH 12 0
BBX 12 12 0 -2
BITMAP
1980
1980
7fe0
1980
fff0
3540
3540
7760
d550
3540
6ec0
6ec0
ENDCHAR
STARTCHAR 3353
ENCODING 13139
SWIDTH 960 0
DWIDTH 12 0
BBX 12 12 0 -2
BITMAP
3180
f980
37f0
fd40
d660
fcd0
d6c0
fd40
3180
fd40
3660
3430
ENDCHAR
STARTCHAR 3354
ENCODING 13140
SWIDTH 960 0
DWIDTH 12 0
BBX 12 12 0 -2
BITMAP
1800
ffe0
7ea0
66a0
7ec0
01a0
7eb0
0db0
feb0
19e0
1980
3980
ENDCHAR
STARTCHAR 3355
ENCODING 13141
SWIDTH 960 0
DWIDTH 12 0
BBX 12 12 0 -2
BITMAP
fdf0
cd30
fdf0
cd30
fff0
db30
d630
db30
dfb0
eb50
df30
c070
ENDCHAR
STARTCHAR 3356
ENCODING 13142
SWIDTH 960 0
DWIDTH 12 0
BBX 12 12 0 -2
BITMAP
f7f0
d000
d7e0
ec60
d7e0
d000
d7f0
d550
f6f0
cdd0
cdb0
cdb0
ENDCHAR
STARTCHAR 3357
ENCODING 13143
SWIDTH 960 0
DWIDTH 12 0
BBX 12 12 0 -2
BITMAP
1980
fff0
1980
1f80
0600
7fe0
6660
7fe0
0600
fff0
0600
0600
ENDCHAR
STARTCHAR 3358
ENCODING 13144
SWIDTH 960 0
DWIDTH 12 0
BBX 12 12 0 -2
BITMAP
3660
1b40
fff0
c030
dfb0
0300
0600
7ff0
0600
0600
0600
0e00
ENDCHAR
STARTCHAR 3359
ENCODING 13145
SWIDTH 960 0
DWIDTH 12 0
BBX 12 12 0 -2
BITMAP
01c0
3f00
3000
3fe0
3180
3180
fff0
0600
6660
6660
6660
7fe0
ENDCHAR
STARTCHAR 335a
ENCODING 13146
SWIDTH 960 0
DWIDTH 12 0
BBX 12 12 0 -2
BITMAP
0c00
dfb0
69a0
1f80
39e0
efb0
0600
fff0
0f00
3ac0
e670
0600
ENDCHAR
STARTCHAR 335b
ENCODING 13147
SWIDTH 960 0
DWIDTH 12 0
BBX 12 12 0 -2
BITMAP
1800
fff0
c680
7df0
6d30
6bf0
db30
6df0
ff30
6df0
6da0
7d30
ENDCHAR
STARTCHAR 335c
ENCODING 13148
SWIDTH 960 0
DWIDTH 12 0
BBX 12 12 0 -2
BITMAP
0000
fff0
d580
fdf0
0330
7df0
0330
fff0
3330
7df0
0db0
3b18
ENDCHAR
STARTCHAR 335d
ENCODING 13149
SWIDTH 960 0
DWIDTH 12 0
BBX 12 12 0 -2
BITMAP
3360
3360
37a0
fb60
37e0
3370
3b68
f7a8
3360
33a0
3660
7060
ENDCHAR
STARTCHAR 335e
ENCODING 13150
SWIDTH 960 0
DWIDTH 12 0
BBX 12 12 0 -2
BITMAP
6300
6300
7df0
6ac0
cd80
0600
fff0
0180
3180
1980
1b00
fff0
ENDCHAR
STARTCHAR 335f
ENCODING 13151
SWIDTH 960 0
DWIDTH 12 0
BBX 12 12 0 -2
BITMAP
37f0
3550
37d0
fda0
37a0
7550
7fb0
7180
d7e0
d180
3180
37f0
ENDCHAR
STARTCHAR 3360
ENCODING 13152
SWIDTH 960 0
DWIDTH 12 0
BBX 12 12 0 -2
BITMAP
3000
37f0
36a0
fbe0
36a0
7be0
7400
77f0
d6a0
d7e0
36a0
37f0
ENDCHAR
STARTCHAR 3361
ENCODING 13153
SWIDTH 960 0
DWIDTH 12 0
BBX 12 12 0 -2
BITMAP
3000
37f0
3630
fbf0
3600
77f0
7ac0
77f0
d6c0
37e8
34d8
3478
ENDCHAR
STARTCHAR 3362
ENCODING 13154
SWIDTH 960 0
DWIDTH 12 0
BBX 12 12 0 -2
BITMAP
31e0
3f60
6b60
fd68
d7b0
fd70
d7a0
fd60
1b50
7550
6bb0
cd18
ENDCHAR
STARTCHAR 3363
ENCODING 13155
SWIDTH 960 0
DWIDTH 12 0
BBX 12 12 0 -2
BITMAP
6300
36e0
0c60
0f60
cc60
6fe0
0600
37f0
6c30
6ab0
c6d0
c0e0
ENDCHAR
STARTCHAR 3364
ENCODING 13156
SWIDTH 960 0
DWIDTH 12 0
BBX 12 12 0 -2
BITMAP
1830
ffb0
dbb0
7eb0
19b0
7eb0
19b0
ffb0
01b0
7e30
6630
7e70
ENDCHAR
STARTCHAR 3365
ENCODING 13157
SWIDTH 960 0
DWIDTH 12 0
BBX 12 12 0 -2
BITMAP
0fe0
f460
d7e0
d460
d7e0
d600
d7f0
f5b0
1f30
34d0
07d0
00e0
ENDCHAR
STARTCHAR 3366
ENCODING 13158
SWIDTH 960 0
DWIDTH 12 0
BBX 12 12 0 -2
BITMAP
3180
3180
3340
3340
7a60
75d0
d800
37e0
3660
3660
3660
37e0
ENDCHAR
STARTCHAR 3367
ENCODING 13159
SWIDTH 960 0
DWIDTH 12 0
BBX 12 12 0 -2
BITMAP
30e0
3780
3180
f980
37f0
3180
3980
f7e0
3660
3660
3660
77e0
ENDCHAR
STARTCHAR 3368
ENCODING 13160
SWIDTH 960 0
DWIDTH 12 0
BBX 12 12 0 -2
BITMAP
60e0
3780
0300
c300
6ff0
0300
0300
37e0
6c60
6c60
cc60
cfe0
ENDCHAR
STARTCHAR 3369
ENCODING 13161
SWIDTH 960 0
DWIDTH 12 0
BBX 12 12 0 -2
BITMAP
6fe0
3460
0fe0
cc60
6fe0
0600
0ff0
3ad0
67b0
66d0
c3d0
c0e0
ENDCHAR
STARTCHAR 336a
ENCODING 13162
SWIDTH 960 0
DWIDTH 12 0
BBX 12 12 0 -2
BITMAP
67e0
3660
06e0
c6a0
6ff8
1a68
1be8
3660
67e0
6660
c660
c6e0
ENDCHAR
STARTCHAR 336b
ENCODING 13163
SWIDTH 960 0
DWIDTH 12 0
BBX 12 12 0 -2
BITMAP
1980
fff0
1980
3fc0
30c0
3fc0
30c0
3ff0
3bb0
eed0
0fd0
00e0
ENDCHAR
STARTCHAR 336c
ENCODING 13164
SWIDTH 960 0
DWIDTH 12 0
BBX 12 12 0 -2
BITMAP
37e0
3660
fbe0
1a60
37e0
3500
7bf0
d6d0
3bb0
36d0
33d0
30e0
ENDCHAR
STARTCHAR 336d
ENCODING 13165
SWIDTH 960 0
DWIDTH 12 0
BBX 12 12 0 -2
BITMAP
3180
fff0
35b0
ffe0
d580
ffe0
d580
fff0
3000
ffe0
3660
37e0
ENDCHAR
STARTCHAR 336e
ENCODING 13166
SWIDTH 960 0
DWIDTH 12 0
BBX 12 12 0 -2
BITMAP
0000
1fc0
18c0
18c0
1fc0
18c0
18c0
1fc0
18c0
18c0
18c0
7ff0
ENDCHAR
STARTCHAR 336f
ENCODING 13167
SWIDTH 960 0
DWIDTH 12 0
BBX 12 12 0 -2
BITMAP
3000
3bf0
6ad0
ffd0
d7a0
fed0
d798
fcc0
1bf0
74c0
68c0
c7f8
ENDCHAR
STARTCHAR 3370
ENCODING 13168
SWIDTH 960 0
DWIDTH 12 0
BBX 12 12 0 -2
BITMAP
0180
0180
f980
d980
dff0
d980
d980
d980
d980
f980
0180
0180
ENDCHAR
STARTCHAR 3371
ENCODING 13169
SWIDTH 960 0
DWIDTH 12 0
BBX 12 12 0 -2
BITMAP
36c0
3ff0
36c0
fb00
3380
76b0
76e0
7a80
d680
d680
36b0
36f0
ENDCHAR
STARTCHAR 3372
ENCODING 13170
SWIDTH 960 0
DWIDTH 12 0
BBX 12 12 0 -2
BITMAP
36c0
37f0
36c0
fff0
36a0
77f0
7aa0
77f0
d180
d7f0
3180
3180
ENDCHAR
STARTCHAR 3373
ENCODING 13171
SWIDTH 960 0
DWIDTH 12 0
BBX 12 12 0 -2
BITMAP
6b00
fd00
6bf0
7a30
35d0
fcd0
d4d0
fdd0
3360
fd00
3330
31f0
ENDCHAR
STARTCHAR 3374
ENCODING 13172
SWIDTH 960 0
DWIDTH 12 0
BBX 12 12 0 -2
BITMAP
3180
3680
37e0
fe80
3580
77f0
7980
75c0
d3c0
d6a0
35b0
3180
ENDCHAR
STARTCHAR 3375
ENCODING 13173
SWIDTH 960 0
DWIDTH 12 0
BBX 12 12 0 -2
BITMAP
1a00
77e0
6d60
6f60
6d60
7de0
6f60
0000
0d00
1b30
3330
e1f0
ENDCHAR
STARTCHAR 3376
ENCODING 13174
SWIDTH 960 0
DWIDTH 12 0
BBX 12 12 0 -2
BITMAP
0600
fff0
dab0
7760
0600
7fe0
36c0
7fe0
6660
7fe0
0630
03f0
ENDCHAR
STARTCHAR 3377
ENCODING 13175
SWIDTH 960 0
DWIDTH 12 0
BBX 12 12 0 -2
BITMAP
1980
fff0
1b40
6fe0
3300
cfe0
6d60
0fe0
3560
6fe0
6d60
cd60
ENDCHAR
STARTCHAR 3378
ENCODING 13176
SWIDTH 960 0
DWIDTH 12 0
BBX 12 12 0 -2
BITMAP
0d00
1980
3540
e670
1d80
f0f0
3fc0
0600
7fe0
36c0
1a80
fff0
ENDCHAR
STARTCHAR 3379
ENCODING 13177
SWIDTH 960 0
DWIDTH 12 0
BBX 12 12 0 -2
BITMAP
3340
37f0
6b40
6ff0
fd50
37f0
fd50
37f0
db40
7760
3d50
e340
ENDCHAR
STARTCHAR 337a
ENCODING 13178
SWIDTH 960 0
DWIDTH 12 0
BBX 12 12 0 -2
BITMAP
0180
06f0
f680
dff8
d5b0
d6b0
d5d0
d7f0
f5b0
cdd0
0eb0
0ff0
ENDCHAR
STARTCHAR 337b
ENCODING 13179
SWIDTH 960 0
DWIDTH 12 0
BBX 12 12 0 -2
BITMAP
0180
fde0
d560
d5e0
fd00
d5f0
d500
fdf0
3030
36b0
36b0
34e0
ENDCHAR
STARTCHAR 337c
ENCODING 13180
SWIDTH 960 0
DWIDTH 12 0
BBX 12 12 0 -2
BITMAP
3000
37f0
3180
fb00
37e0
7660
7a60
77e0
d660
d660
3660
37e0
ENDCHAR
STARTCHAR 337d
ENCODING 13181
SWIDTH 960 0
DWIDTH 12 0
BBX 12 12 0 -2
BITMAP
1980
fff0
1980
7fc0
1980
0d00
fff0
0e60
1ac0
3600
e600
0e00
ENDCHAR
STARTCHAR 337e
ENCODING 13182
SWIDTH 960 0
DWIDTH 12 0
BBX 12 12 0 -2
BITMAP
1980
fff0
1a80
fff0
c030
7fe0
30c0
3fc0
30c0
3fc0
0000
fff0
ENDCHAR
STARTCHAR 3421
ENCODING 13345
SWIDTH 960 0
DWIDTH 12 0
BBX 12 12 0 -2
BITMAP
0600
faf0
36b0
3730
fff0
c6c0
f770
3730
3ab0
3630
3630
e6e0
ENDCHAR
STARTCHAR 3422
ENCODING 13346
SWIDTH 960 0
DWIDTH 12 0
BBX 12 12 0 -2
BITMAP
0030
06b0
06b0
06b0
edb0
35b0
19b0
1db0
36b0
3630
6030
c070
ENDCHAR
STARTCHAR 3423
ENCODING 13347
SWIDTH 960 0
DWIDTH 12 0
BBX 12 12 0 -2
BITMAP
1980
fff0
1980
0c60
0d60
ed60
3560
1b60
1b60
3560
6c60
c0e0
ENDCHAR
STARTCHAR 3424
ENCODING 13348
SWIDTH 960 0
DWIDTH 12 0
BBX 12 12 0 -2
BITMAP
0000
ffe0
1800
1800
1f80
1980
1d80
1a80
31b0
37b0
3db0
e0f0
ENDCHAR
STARTCHAR 3425
ENCODING 13349
SWIDTH 960 0
DWIDTH 12 0
BBX 12 12 0 -2
BITMAP
3300
fd00
33f0
fe00
cde0
fc60
ccc0
fd80
3300
fe30
3630
33f0
ENDCHAR
STARTCHAR 3426
ENCODING 13350
SWIDTH 960 0
DWIDTH 12 0
BBX 12 12 0 -2
BITMAP
1800
1fe0
1c60
3460
3460
77e0
d000
3540
3540
3550
3b50
3070
ENDCHAR
STARTCHAR 3427
ENCODING 13351
SWIDTH 960 0
DWIDTH 12 0
BBX 12 12 0 -2
BITMAP
0000
fff0
c0d0
fed0
03f0
fec0
3540
3540
34c0
6dd0
6c30
c7f0
ENDCHAR
STARTCHAR 3428
ENCODING 13352
SWIDTH 960 0
DWIDTH 12 0
BBX 12 12 0 -2
BITMAP
0600
fff0
db30
ffd0
1b00
7fc0
1b00
ffe0
3580
66c0
dc70
0700
ENDCHAR
STARTCHAR 3429
ENCODING 13353
SWIDTH 960 0
DWIDTH 12 0
BBX 12 12 0 -2
BITMAP
0030
7eb0
19b0
19b0
19b0
feb0
19b0
19b0
19b0
1830
1830
1870
ENDCHAR
STARTCHAR 342a
ENCODING 13354
SWIDTH 960 0
DWIDTH 12 0
BBX 12 12 0 -2
BITMAP
6d80
fe80
6d80
7ff0
6db0
7db0
6db0
feb0
d5b0
eeb0
c330
7ee0
ENDCHAR
STARTCHAR 342b
ENCODING 13355
SWIDTH 960 0
DWIDTH 12 0
BBX 12 12 0 -2
BITMAP
6180
7e80
6d80
7ff0
d9b0
7eb0
e9b0
7eb0
69b0
7eb0
6b30
7ee0
ENDCHAR
STARTCHAR 342c
ENCODING 13356
SWIDTH 960 0
DWIDTH 12 0
BBX 12 12 0 -2
BITMAP
0600
36c0
1a80
7fe0
0d00
fff0
1980
3fc0
e1b0
1f80
1860
0fe0
ENDCHAR
STARTCHAR 342d
ENCODING 13357
SWIDTH 960 0
DWIDTH 12 0
BBX 12 12 0 -2
BITMAP
0300
03e0
f6c0
d7f0
d550
d550
d6f0
d5b0
fff8
0340
0670
1c18
ENDCHAR
STARTCHAR 342e
ENCODING 13358
SWIDTH 960 0
DWIDTH 12 0
BBX 12 12 0 -2
BITMAP
0660
37f0
3660
37e0
fa60
37e0
3660
3ff0
3540
ef60
0c00
07f0
ENDCHAR
STARTCHAR 342f
ENCODING 13359
SWIDTH 960 0
DWIDTH 12 0
BBX 12 12 0 -2
BITMAP
0600
7fe0
0d80
1d00
0700
3dc0
18c0
fff0
35a0
75a0
39c0
ef70
ENDCHAR
STARTCHAR 3430
ENCODING 13360
SWIDTH 960 0
DWIDTH 12 0
BBX 12 12 0 -2
BITMAP
0600
fff0
c030
dfb0
0000
0000
fff0
0d00
0d00
1b30
3330
e1f0
ENDCHAR
STARTCHAR 3431
ENCODING 13361
SWIDTH 960 0
DWIDTH 12 0
BBX 12 12 0 -2
BITMAP
0600
fff0
c030
dfb0
1980
1980
1f80
1800
1fc0
18c0
18c0
1fc0
ENDCHAR
STARTCHAR 3432
ENCODING 13362
SWIDTH 960 0
DWIDTH 12 0
BBX 12 12 0 -2
BITMAP
0600
fff0
d9b0
7fe0
1980
3fc0
30c0
3fc0
30c0
3fc0
1d30
f1f0
ENDCHAR
STARTCHAR 3433
ENCODING 13363
SWIDTH 960 0
DWIDTH 12 0
BBX 12 12 0 -2
BITMAP
0000
7fe0
0600
0600
0600
fff0
0600
0600
0600
0600
0600
0600
ENDCHAR
STARTCHAR 3434
ENCODING 13364
SWIDTH 960 0
DWIDTH 12 0
BBX 12 12 0 -2
BITMAP
30c0
fcc0
31a0
fd30
cfe8
fcc0
ccc0
fff0
30c0
fcc0
30c0
30c0
ENDCHAR
STARTCHAR 3435
ENCODING 13365
SWIDTH 960 0
DWIDTH 12 0
BBX 12 12 0 -2
BITMAP
0600
3fc0
36c0
3fc0
0600
7fe0
6660
7fe0
0600
6b60
d8d0
0fc0
ENDCHAR
STARTCHAR 3436
ENCODING 13366
SWIDTH 960 0
DWIDTH 12 0
BBX 12 12 0 -2
BITMAP
0360
7ff0
6300
7ea0
61a0
7ed0
d6b0
3f30
0600
6b60
d8d0
0fc0
ENDCHAR
STARTCHAR 3437
ENCODING 13367
SWIDTH 960 0
DWIDTH 12 0
BBX 12 12 0 -2
BITMAP
33f0
3350
37f0
7aa0
77e0
d7f0
d630
37f0
3630
37f0
3360
3630
ENDCHAR
STARTCHAR 3438
ENCODING 13368
SWIDTH 960 0
DWIDTH 12 0
BBX 12 12 0 -2
BITMAP
60d0
6ff0
74c0
6fd0
ef60
ed60
efb0
7330
6680
6ad0
7630
63f0
ENDCHAR
STARTCHAR 3439
ENCODING 13369
SWIDTH 960 0
DWIDTH 12 0
BBX 12 12 0 -2
BITMAP
3300
33e0
36c0
fff0
3550
3550
3ef0
f5b0
3ff8
31c0
3360
7638
ENDCHAR
STARTCHAR 343a
ENCODING 13370
SWIDTH 960 0
DWIDTH 12 0
BBX 12 12 0 -2
BITMAP
0180
7e80
19f0
ff60
6d60
7e60
6da0
7da0
6ec0
7dc0
ed60
0e30
ENDCHAR
STARTCHAR 343b
ENCODING 13371
SWIDTH 960 0
DWIDTH 12 0
BBX 12 12 0 -2
BITMAP
3660
3660
37f0
fe60
3660
7660
7be0
7660
d660
d660
3660
37e0
ENDCHAR
STARTCHAR 343c
ENCODING 13372
SWIDTH 960 0
DWIDTH 12 0
BBX 12 12 0 -2
BITMAP
3000
37f0
3000
fbe0
3660
7660
7be0
7660
d660
d7e0
3000
37f0
ENDCHAR
STARTCHAR 343d
ENCODING 13373
SWIDTH 960 0
DWIDTH 12 0
BBX 12 12 0 -2
BITMAP
3180
37f0
3430
fff0
3660
7660
7be0
7600
d7f0
d630
3630
37f0
ENDCHAR
STARTCHAR 343e
ENCODING 13374
SWIDTH 960 0
DWIDTH 12 0
BBX 12 12 0 -2
BITMAP
3300
fd00
3300
7df0
06b0
7aa0
0180
fd80
3b40
d540
d660
7430
ENDCHAR
STARTCHAR 343f
ENCODING 13375
SWIDTH 960 0
DWIDTH 12 0
BBX 12 12 0 -2
BITMAP
6180
7e80
6980
7ef0
d550
7ee0
68c0
fec0
69c0
7ea0
6b60
7e30
ENDCHAR
STARTCHAR 3440
ENCODING 13376
SWIDTH 960 0
DWIDTH 12 0
BBX 12 12 0 -2
BITMAP
6000
3fe0
0300
c300
6300
3ff0
0300
3300
6300
6300
c300
c300
ENDCHAR
STARTCHAR 3441
ENCODING 13377
SWIDTH 960 0
DWIDTH 12 0
BBX 12 12 0 -2
BITMAP
cd80
7ff0
0d80
1fe0
db60
6fe0
0300
3fe0
6300
6fe0
c6c0
dc70
ENDCHAR
STARTCHAR 3442
ENCODING 13378
SWIDTH 960 0
DWIDTH 12 0
BBX 12 12 0 -2
BITMAP
6ef0
3ab0
1ef0
dab0
6ef0
1830
1bd0
3ad0
6bd0
6ad0
dbd0
d870
ENDCHAR
STARTCHAR 3443
ENCODING 13379
SWIDTH 960 0
DWIDTH 12 0
BBX 12 12 0 -2
BITMAP
6c00
37e0
1b00
d7f0
6680
0ff0
1d80
37e0
6d80
6fe0
cd80
cff0
ENDCHAR
STARTCHAR 3444
ENCODING 13380
SWIDTH 960 0
DWIDTH 12 0
BBX 12 12 0 -2
BITMAP
1fe0
faa0
3fe0
3000
fff0
3460
37e0
3b60
eec0
1ac0
3670
0600
ENDCHAR
STARTCHAR 3445
ENCODING 13381
SWIDTH 960 0
DWIDTH 12 0
BBX 12 12 0 -2
BITMAP
18c0
18c0
18c0
fff0
18c0
18c0
1fc0
18c0
18c0
18c0
18c0
1fc0
ENDCHAR
STARTCHAR 3446
ENCODING 13382
SWIDTH 960 0
DWIDTH 12 0
BBX 12 12 0 -2
BITMAP
fd00
d300
fdf0
ce00
fc00
d3e0
fc00
0000
7fe0
6d60
6d60
fff0
ENDCHAR
STARTCHAR 3447
ENCODING 13383
SWIDTH 960 0
DWIDTH 12 0
BBX 12 12 0 -2
BITMAP
00e0
7f80
0c00
fff0
1800
fff0
38c0
6fc0
d8c0
1fc0
18c0
1fc0
ENDCHAR
STARTCHAR 3448
ENCODING 13384
SWIDTH 960 0
DWIDTH 12 0
BBX 12 12 0 -2
BITMAP
6300
7df0
dac0
3180
7fe0
0600
0600
fff0
0600
0600
0600
0600
ENDCHAR
STARTCHAR 3449
ENCODING 13385
SWIDTH 960 0
DWIDTH 12 0
BBX 12 12 0 -2
BITMAP
6180
7ef0
db60
fff0
c030
dfb0
1980
1f80
1800
1fc0
18c0
1fc0
ENDCHAR
STARTCHAR 344a
ENCODING 13386
SWIDTH 960 0
DWIDTH 12 0
BBX 12 12 0 -2
BITMAP
6180
7ef8
db60
7df0
6d30
7df0
6f30
7df0
6fb0
6db0
6fb0
6070
ENDCHAR
STARTCHAR 344b
ENCODING 13387
SWIDTH 960 0
DWIDTH 12 0
BBX 12 12 0 -2
BITMAP
30e0
37a0
eb40
6ff0
3300
6bf0
fd00
33e0
daa0
d6c0
d560
3630
ENDCHAR
STARTCHAR 344c
ENCODING 13388
SWIDTH 960 0
DWIDTH 12 0
BBX 12 12 0 -2
BITMAP
3000
3000
3fe0
6600
c600
fff0
0600
6660
6660
6660
7fe0
6060
ENDCHAR
STARTCHAR 344d
ENCODING 13389
SWIDTH 960 0
DWIDTH 12 0
BBX 12 12 0 -2
BITMAP
30c0
fda0
3330
fe18
cff0
fdb0
ced0
fdb0
31b0
fdb0
36d0
31b0
ENDCHAR
STARTCHAR 344e
ENCODING 13390
SWIDTH 960 0
DWIDTH 12 0
BBX 12 12 0 -2
BITMAP
7df0
6cc0
6cc0
6cc0
7ff8
6cc0
6cc0
7cc0
6cc0
6cc0
6cc0
dcc0
ENDCHAR
STARTCHAR 344f
ENCODING 13391
SWIDTH 960 0
DWIDTH 12 0
BBX 12 12 0 -2
BITMAP
6f40
f4f0
d740
f580
d700
fcf0
d700
f000
d7e0
d6a0
d6a0
d7f0
ENDCHAR
STARTCHAR 3450
ENCODING 13392
SWIDTH 960 0
DWIDTH 12 0
BBX 12 12 0 -2
BITMAP
1980
fff0
1980
0600
fff0
c030
3fc0
0000
fff0
0d00
3b30
e1f0
ENDCHAR
STARTCHAR 3451
ENCODING 13393
SWIDTH 960 0
DWIDTH 12 0
BBX 12 12 0 -2
BITMAP
63f0
7f30
6b30
7ff0
d530
7ff0
6b30
fff0
69a0
7ea0
6b68
7e38
ENDCHAR
STARTCHAR 3452
ENCODING 13394
SWIDTH 960 0
DWIDTH 12 0
BBX 12 12 0 -2
BITMAP
f180
0ff0
f980
0fe0
fda0
0fe0
f5a0
0fe0
fbc0
daa0
ddb0
f980
ENDCHAR
STARTCHAR 3453
ENCODING 13395
SWIDTH 960 0
DWIDTH 12 0
BBX 12 12 0 -2
BITMAP
0000
3fc0
36c0
fff0
6d80
7fc0
30c0
3fc0
30c0
3fc0
1dc0
7070
ENDCHAR
STARTCHAR 3454
ENCODING 13396
SWIDTH 960 0
DWIDTH 12 0
BBX 12 12 0 -2
BITMAP
0fe0
6da0
3ff0
0000
0fe0
f460
37e0
37b0
3560
3370
6d80
c7f8
ENDCHAR
STARTCHAR 3455
ENCODING 13397
SWIDTH 960 0
DWIDTH 12 0
BBX 12 12 0 -2
BITMAP
37a0
3678
6ba0
6ec0
ff80
3678
ff80
3000
dbf0
7550
3b50
e7f8
ENDCHAR
STARTCHAR 3456
ENCODING 13398
SWIDTH 960 0
DWIDTH 12 0
BBX 12 12 0 -2
BITMAP
fdf0
cd30
fdf0
cd30
fdf0
c030
dfb0
d9b0
dfb0
d9b0
dfb0
c070
ENDCHAR
STARTCHAR 3457
ENCODING 13399
SWIDTH 960 0
DWIDTH 12 0
BBX 12 12 0 -2
BITMAP
fdf0
cd30
fdf0
cd30
fdf0
c630
dfd0
c630
cf30
dab0
d6d0
c670
ENDCHAR
STARTCHAR 3458
ENCODING 13400
SWIDTH 960 0
DWIDTH 12 0
BBX 12 12 0 -2
BITMAP
fdf0
cd30
fdf0
cd30
fdf0
cd30
dfd0
c630
dfd0
cd30
d9b0
d070
ENDCHAR
STARTCHAR 3459
ENCODING 13401
SWIDTH 960 0
DWIDTH 12 0
BBX 12 12 0 -2
BITMAP
0300
f3e0
d660
d4c0
e180
d5f0
d530
d530
d5f0
ed30
cd30
cdf0
ENDCHAR
STARTCHAR 345a
ENCODING 13402
SWIDTH 960 0
DWIDTH 12 0
BBX 12 12 0 -2
BITMAP
30c0
fdf0
30d0
fff8
cd30
fdf0
cc60
fdf0
3360
fff8
3060
3060
ENDCHAR
STARTCHAR 345b
ENCODING 13403
SWIDTH 960 0
DWIDTH 12 0
BBX 12 12 0 -2
BITMAP
3180
37f0
6a30
7de0
ef60
7d60
6de0
7d00
6bf0
6d30
6b30
f3f0
ENDCHAR
STARTCHAR 345c
ENCODING 13404
SWIDTH 960 0
DWIDTH 12 0
BBX 12 12 0 -2
BITMAP
3180
37f0
6c30
cde0
fd60
3360
fde0
3300
7df0
6d30
6d30
7df0
ENDCHAR
STARTCHAR 345d
ENCODING 13405
SWIDTH 960 0
DWIDTH 12 0
BBX 12 12 0 -2
BITMAP
1800
1800
1800
ff80
1980
1980
6980
3980
1d80
36b0
66b0
c0f0
ENDCHAR
STARTCHAR 345e
ENCODING 13406
SWIDTH 960 0
DWIDTH 12 0
BBX 12 12 0 -2
BITMAP
0600
0d00
1980
3740
e070
7fc0
0300
0600
3fc0
30c0
30c0
3fc0
ENDCHAR
STARTCHAR 345f
ENCODING 13407
SWIDTH 960 0
DWIDTH 12 0
BBX 12 12 0 -2
BITMAP
6660
6660
7fe0
0000
7ff0
6000
6fe0
6300
7ff0
6300
c300
0300
ENDCHAR
STARTCHAR 3460
ENCODING 13408
SWIDTH 960 0
DWIDTH 12 0
BBX 12 12 0 -2
BITMAP
6660
7fe0
0300
7ff0
6e80
6df8
7f30
6b50
6ee0
6a60
ded0
c7b0
ENDCHAR
STARTCHAR 3461
ENCODING 13409
SWIDTH 960 0
DWIDTH 12 0
BBX 12 12 0 -2
BITMAP
0000
0fe0
f800
3000
3000
fff0
3680
3680
3a80
ed80
19b0
30f0
ENDCHAR
STARTCHAR 3462
ENCODING 13410
SWIDTH 960 0
DWIDTH 12 0
BBX 12 12 0 -2
BITMAP
0300
3ff0
d7c0
76c0
37c0
7770
d550
3770
3180
69b0
69b0
dff0
ENDCHAR
STARTCHAR 3463
ENCODING 13411
SWIDTH 960 0
DWIDTH 12 0
BBX 12 12 0 -2
BITMAP
0000
fbe0
da60
dbe0
fa60
da60
dbe0
fa30
daa0
dac0
fba0
0e30
ENDCHAR
STARTCHAR 3464
ENCODING 13412
SWIDTH 960 0
DWIDTH 12 0
BBX 12 12 0 -2
BITMAP
0600
6660
6660
7fe0
0000
fff0
1800
1800
3fe0
6860
d860
1fe0
ENDCHAR
STARTCHAR 3465
ENCODING 13413
SWIDTH 960 0
DWIDTH 12 0
BBX 12 12 0 -2
BITMAP
0000
ffe0
da00
7600
dbf0
3740
3340
fd40
cd40
fd40
cd50
fe70
ENDCHAR
STARTCHAR 3466
ENCODING 13414
SWIDTH 960 0
DWIDTH 12 0
BBX 12 12 0 -2
BITMAP
0000
7ff0
6d40
7ff0
6ac0
6bf0
6fc0
68c0
dfc0
d8c0
1fc0
3de0
ENDCHAR
STARTCHAR 3467
ENCODING 13415
SWIDTH 960 0
DWIDTH 12 0
BBX 12 12 0 -2
BITMAP
0000
7ff0
6d60
6df0
6b40
6b40
7bf0
6b40
6bf0
db40
db40
1bf0
ENDCHAR
STARTCHAR 3468
ENCODING 13416
SWIDTH 960 0
DWIDTH 12 0
BBX 12 12 0 -2
BITMAP
0000
07f0
fd80
03f0
0330
fff0
6b30
6bf0
6b30
6df0
69a0
c730
ENDCHAR
STARTCHAR 3469
ENCODING 13417
SWIDTH 960 0
DWIDTH 12 0
BBX 12 12 0 -2
BITMAP
1800
fff0
6d80
3bf0
7f30
6df0
7b30
6df0
7b30
cdf0
d9a0
7730
ENDCHAR
STARTCHAR 346a
ENCODING 13418
SWIDTH 960 0
DWIDTH 12 0
BBX 12 12 0 -2
BITMAP
0000
7ff8
6cc0
7ef0
76b0
7ef0
76b0
7ef0
6db0
7af0
69d0
db18
ENDCHAR
STARTCHAR 346b
ENCODING 13419
SWIDTH 960 0
DWIDTH 12 0
BBX 12 12 0 -2
BITMAP
0600
0600
0d00
1980
36c0
e670
0600
37c0
3600
3600
3600
fff0
ENDCHAR
STARTCHAR 346c
ENCODING 13420
SWIDTH 960 0
DWIDTH 12 0
BBX 12 12 0 -2
BITMAP
1980
1980
1ff0
3180
3180
77f0
d060
3660
3340
3180
3740
3c70
ENDCHAR
STARTCHAR 346d
ENCODING 13421
SWIDTH 960 0
DWIDTH 12 0
BBX 12 12 0 -2
BITMAP
0c00
1f80
7300
0600
3ff0
3000
37c0
34c0
6cc0
6dd0
cc30
07f0
ENDCHAR
STARTCHAR 346e
ENCODING 13422
SWIDTH 960 0
DWIDTH 12 0
BBX 12 12 0 -2
BITMAP
0600
fff0
0600
7fe0
30c0
3fc0
1980
fff0
0000
3fc0
30c0
3fc0
ENDCHAR
STARTCHAR 346f
ENCODING 13423
SWIDTH 960 0
DWIDTH 12 0
BBX 12 12 0 -2
BITMAP
0000
7de0
6d60
7de0
0600
fff0
0d00
39c0
fdf0
6d60
6d60
7de0
ENDCHAR
STARTCHAR 3470
ENCODING 13424
SWIDTH 960 0
DWIDTH 12 0
BBX 12 12 0 -2
BITMAP
1980
7fe0
1980
1f80
1980
1f80
1980
fff0
36c0
efb0
0600
7fe0
ENDCHAR
STARTCHAR 3471
ENCODING 13425
SWIDTH 960 0
DWIDTH 12 0
BBX 12 12 0 -2
BITMAP
0600
7fe0
0d00
1980
70c0
fff0
00c0
3f40
3340
3f40
00c0
01c0
ENDCHAR
STARTCHAR 3472
ENCODING 13426
SWIDTH 960 0
DWIDTH 12 0
BBX 12 12 0 -2
BITMAP
6180
6ff0
6980
ffe0
6a60
6be0
6b40
dff0
f800
37e0
6660
c7e0
ENDCHAR
STARTCHAR 3473
ENCODING 13427
SWIDTH 960 0
DWIDTH 12 0
BBX 12 12 0 -2
BITMAP
0600
fff0
c630
7fc0
0d00
3980
fff0
00c0
3f40
3340
3f40
01c0
ENDCHAR
STARTCHAR 3474
ENCODING 13428
SWIDTH 960 0
DWIDTH 12 0
BBX 12 12 0 -2
BITMAP
0180
3180
37f0
d580
d580
d7f0
d560
d560
d5c0
fcc0
03a0
0e30
ENDCHAR
STARTCHAR 3475
ENCODING 13429
SWIDTH 960 0
DWIDTH 12 0
BBX 12 12 0 -2
BITMAP
1cc0
0780
7cc0
0c00
fff0
1b00
3fe0
6b60
db60
1bc0
1b00
0300
ENDCHAR
STARTCHAR 3476
ENCODING 13430
SWIDTH 960 0
DWIDTH 12 0
BBX 12 12 0 -2
BITMAP
36c0
6aa0
d740
6aa0
fae0
1a60
fff0
3660
3340
69b0
6750
dc70
ENDCHAR
STARTCHAR 3477
ENCODING 13431
SWIDTH 960 0
DWIDTH 12 0
BBX 12 12 0 -2
BITMAP
0000
3fc0
00c0
3fc0
3000
3060
1fe0
0600
6b60
6b30
d8d8
0fc0
ENDCHAR
STARTCHAR 3478
ENCODING 13432
SWIDTH 960 0
DWIDTH 12 0
BBX 12 12 0 -2
BITMAP
3000
37f0
35b0
fbe0
3180
37f0
3db0
f7f0
3180
37f8
3180
7180
ENDCHAR
STARTCHAR 3479
ENCODING 13433
SWIDTH 960 0
DWIDTH 12 0
BBX 12 12 0 -2
BITMAP
3000
33e0
3360
fd60
3360
7360
7b60
7560
d360
d668
3668
3438
ENDCHAR
STARTCHAR 347a
ENCODING 13434
SWIDTH 960 0
DWIDTH 12 0
BBX 12 12 0 -2
BITMAP
3300
37f0
fd60
37f0
3360
3de0
3560
35e0
6d60
6ff0
cda0
3b30
ENDCHAR
STARTCHAR 347b
ENCODING 13435
SWIDTH 960 0
DWIDTH 12 0
BBX 12 12 0 -2
BITMAP
0000
7ff0
6d40
7d40
6d40
6ff0
7dc0
61c0
6b40
6d50
76d0
cc70
ENDCHAR
STARTCHAR 347c
ENCODING 13436
SWIDTH 960 0
DWIDTH 12 0
BBX 12 12 0 -2
BITMAP
3600
36f0
ffb0
36b0
3ef0
36b0
3eb0
36f0
ffb0
3530
6730
c670
ENDCHAR
STARTCHAR 347d
ENCODING 13437
SWIDTH 960 0
DWIDTH 12 0
BBX 12 12 0 -2
BITMAP
3660
3660
37f0
fa60
37e0
7a60
77e0
7660
d7f0
d340
3660
3460
ENDCHAR
STARTCHAR 347e
ENCODING 13438
SWIDTH 960 0
DWIDTH 12 0
BBX 12 12 0 -2
BITMAP
0600
fff0
1d80
7fe0
36c0
fff0
36c0
fff0
0f00
3ac0
e670
0600
ENDCHAR
STARTCHAR 3521
ENCODING 13601
SWIDTH 960 0
DWIDTH 12 0
BBX 12 12 0 -2
BITMAP
3360
36c0
37e0
fad0
37f0
71a0
7ff0
75a0
d6c0
d550
39b0
3730
ENDCHAR
STARTCHAR 3522
ENCODING 13602
SWIDTH 960 0
DWIDTH 12 0
BBX 12 12 0 -2
BITMAP
37c0
30c0
d7c0
d0c0
dff0
db30
d7f0
3560
3560
6d60
6300
c300
ENDCHAR
STARTCHAR 3523
ENCODING 13603
SWIDTH 960 0
DWIDTH 12 0
BBX 12 12 0 -2
BITMAP
33c0
fd40
6b40
6ad0
fc70
37e0
f460
3b60
edc0
3ac0
e9a0
3b30
ENDCHAR
STARTCHAR 3524
ENCODING 13604
SWIDTH 960 0
DWIDTH 12 0
BBX 12 12 0 -2
BITMAP
3000
3fe0
3000
6f80
c000
7fc0
06c0
3ac0
0cc0
1ad0
3070
e030
ENDCHAR
STARTCHAR 3525
ENCODING 13605
SWIDTH 960 0
DWIDTH 12 0
BBX 12 12 0 -2
BITMAP
6800
3fe0
1800
d7c0
6000
1fc0
00c0
30c0
60d0
60d0
c070
c030
ENDCHAR
STARTCHAR 3526
ENCODING 13606
SWIDTH 960 0
DWIDTH 12 0
BBX 12 12 0 -2
BITMAP
36c0
6aa0
d740
6aa0
fae0
1a60
fff0
7e60
6b40
7eb0
6b50
7e70
ENDCHAR
STARTCHAR 3527
ENCODING 13607
SWIDTH 960 0
DWIDTH 12 0
BBX 12 12 0 -2
BITMAP
3060
37c0
fa00
1a00
1bf0
36c0
7ac0
d6c0
36c0
34c0
34c0
38c0
ENDCHAR
STARTCHAR 3528
ENCODING 13608
SWIDTH 960 0
DWIDTH 12 0
BBX 12 12 0 -2
BITMAP
03c0
7e00
0600
fff0
0f00
3ac0
efb0
0300
7fe0
0600
0600
0e00
ENDCHAR
STARTCHAR 3529
ENCODING 13609
SWIDTH 960 0
DWIDTH 12 0
BBX 12 12 0 -2
BITMAP
1b60
f1c0
3760
37f0
fa80
37e0
76a0
7aa0
d6a0
d6e0
3180
3180
ENDCHAR
STARTCHAR 352a
ENCODING 13610
SWIDTH 960 0
DWIDTH 12 0
BBX 12 12 0 -2
BITMAP
3000
37e0
e860
6860
3060
6be0
fd00
3300
db00
d530
d330
31f0
ENDCHAR
STARTCHAR 352b
ENCODING 13611
SWIDTH 960 0
DWIDTH 12 0
BBX 12 12 0 -2
BITMAP
1aa0
6aa0
6fb8
c6d0
35b0
36d0
6d50
efa0
6660
6b60
76b0
6718
ENDCHAR
STARTCHAR 352c
ENCODING 13612
SWIDTH 960 0
DWIDTH 12 0
BBX 12 12 0 -2
BITMAP
37e0
3660
fe60
37e0
3660
ffe0
3660
37e0
3b40
6d40
66d0
cc70
ENDCHAR
STARTCHAR 352d
ENCODING 13613
SWIDTH 960 0
DWIDTH 12 0
BBX 12 12 0 -2
BITMAP
7800
07e0
fc60
0060
7c60
03e0
7d00
0300
fd00
cd30
cd30
fdf0
ENDCHAR
STARTCHAR 352e
ENCODING 13614
SWIDTH 960 0
DWIDTH 12 0
BBX 12 12 0 -2
BITMAP
0600
3fc0
36c0
fff0
0000
3fc0
30c0
3fc0
30c0
3fc0
19c0
7060
ENDCHAR
STARTCHAR 352f
ENCODING 13615
SWIDTH 960 0
DWIDTH 12 0
BBX 12 12 0 -2
BITMAP
1800
1be0
7e60
1860
ffe0
1b00
6b00
6f30
7b30
69f0
ce00
c3f8
ENDCHAR
STARTCHAR 3530
ENCODING 13616
SWIDTH 960 0
DWIDTH 12 0
BBX 12 12 0 -2
BITMAP
3300
fd00
3300
ffc0
d540
fd40
d540
fd40
3340
fed0
36d0
3470
ENDCHAR
STARTCHAR 3531
ENCODING 13617
SWIDTH 960 0
DWIDTH 12 0
BBX 12 12 0 -2
BITMAP
37f0
d6b0
d7e0
7980
37f0
feb0
6bf0
6ab0
6ff0
6980
cff0
0180
ENDCHAR
STARTCHAR 3532
ENCODING 13618
SWIDTH 960 0
DWIDTH 12 0
BBX 12 12 0 -2
BITMAP
3000
3bc0
6d40
db40
6d40
7d40
6d40
7d40
6b40
6d50
6ad0
f470
ENDCHAR
STARTCHAR 3533
ENCODING 13619
SWIDTH 960 0
DWIDTH 12 0
BBX 12 12 0 -2
BITMAP
0180
fbe0
d180
fb40
d670
fff0
d060
ffa0
0ea0
d7a0
cc60
38e0
ENDCHAR
STARTCHAR 3534
ENCODING 13620
SWIDTH 960 0
DWIDTH 12 0
BBX 12 12 0 -2
BITMAP
0600
0c00
3fc0
36c0
3fc0
36c0
3fc0
0d40
0da0
1be0
3330
e1f0
ENDCHAR
STARTCHAR 3535
ENCODING 13621
SWIDTH 960 0
DWIDTH 12 0
BBX 12 12 0 -2
BITMAP
0c00
1f80
3300
ffc0
36c0
3fc0
36c0
7fe0
6660
7fe0
0630
03f0
ENDCHAR
STARTCHAR 3536
ENCODING 13622
SWIDTH 960 0
DWIDTH 12 0
BBX 12 12 0 -2
BITMAP
3580
3680
3300
6fc0
66c0
e7e0
6c60
6ff0
7030
6d50
6b30
60e0
ENDCHAR
STARTCHAR 3537
ENCODING 13623
SWIDTH 960 0
DWIDTH 12 0
BBX 12 12 0 -2
BITMAP
36c0
3ff0
3300
6fe0
6300
fff0
6ea0
6ff0
66a0
6ed0
66b0
6e30
ENDCHAR
STARTCHAR 3538
ENCODING 13624
SWIDTH 960 0
DWIDTH 12 0
BBX 12 12 0 -2
BITMAP
6180
6180
6bf0
fd80
6980
6be0
6860
db60
f9c0
35c0
6360
ce30
ENDCHAR
STARTCHAR 3539
ENCODING 13625
SWIDTH 960 0
DWIDTH 12 0
BBX 12 12 0 -2
BITMAP
0600
fff0
c030
dfb0
1980
1980
1f80
1980
1f80
1980
1980
fff0
ENDCHAR
STARTCHAR 353a
ENCODING 13626
SWIDTH 960 0
DWIDTH 12 0
BBX 12 12 0 -2
BITMAP
1e80
19a0
7eb0
6a80
6bf0
6e80
61b0
6ad0
7ae0
6b50
ddb0
7330
ENDCHAR
STARTCHAR 353b
ENCODING 13627
SWIDTH 960 0
DWIDTH 12 0
BBX 12 12 0 -2
BITMAP
3180
3180
37f0
f980
3180
37e0
3860
f340
31c0
31c0
3360
7630
ENDCHAR
STARTCHAR 353c
ENCODING 13628
SWIDTH 960 0
DWIDTH 12 0
BBX 12 12 0 -2
BITMAP
69f0
6f30
69a0
fb40
6ff0
68d0
6f60
fac0
6f70
6740
6dc0
eb70
ENDCHAR
STARTCHAR 353d
ENCODING 13629
SWIDTH 960 0
DWIDTH 12 0
BBX 12 12 0 -2
BITMAP
6d00
6d00
ff00
6df0
7eb0
6ea0
7d80
6d80
fe80
6b40
6e60
dc30
ENDCHAR
STARTCHAR 353e
ENCODING 13630
SWIDTH 960 0
DWIDTH 12 0
BBX 12 12 0 -2
BITMAP
3340
d7f0
d180
fbf0
d180
d7f0
3ad0
f7f0
36d0
3768
36d8
3618
ENDCHAR
STARTCHAR 353f
ENCODING 13631
SWIDTH 960 0
DWIDTH 12 0
BBX 12 12 0 -2
BITMAP
67f0
7c60
6340
6dc0
3ff0
61b0
7da0
da80
7ee0
3780
6ac0
cc70
ENDCHAR
STARTCHAR 3540
ENCODING 13632
SWIDTH 960 0
DWIDTH 12 0
BBX 12 12 0 -2
BITMAP
30e0
37c0
fec0
0ec0
1ac0
37f0
7ac0
d6c0
36c0
3660
37b0
3630
ENDCHAR
STARTCHAR 3541
ENCODING 13633
SWIDTH 960 0
DWIDTH 12 0
BBX 12 12 0 -2
BITMAP
1980
7ff0
0600
3fe0
0600
7ff0
1b60
fff0
19a0
7ed0
1bb0
3830
ENDCHAR
STARTCHAR 3542
ENCODING 13634
SWIDTH 960 0
DWIDTH 12 0
BBX 12 12 0 -2
BITMAP
3340
37f0
3180
fff0
d580
d7f0
fed0
37f8
36e0
3750
3ab0
ee30
ENDCHAR
STARTCHAR 3543
ENCODING 13635
SWIDTH 960 0
DWIDTH 12 0
BBX 12 12 0 -2
BITMAP
7980
0ff0
fc30
07e0
7a60
0660
7be0
0660
fbe0
da60
da60
fff0
ENDCHAR
STARTCHAR 3544
ENCODING 13636
SWIDTH 960 0
DWIDTH 12 0
BBX 12 12 0 -2
BITMAP
7b60
0ff0
f980
07e0
7980
0ff0
7ad0
0ff8
fae0
df50
dab0
fe30
ENDCHAR
STARTCHAR 3545
ENCODING 13637
SWIDTH 960 0
DWIDTH 12 0
BBX 12 12 0 -2
BITMAP
3600
3600
37f0
fd30
3550
37b0
3fd0
f330
37b0
3550
3330
7360
ENDCHAR
STARTCHAR 3546
ENCODING 13638
SWIDTH 960 0
DWIDTH 12 0
BBX 12 12 0 -2
BITMAP
1980
fff0
1980
3000
3ff0
66d0
dab0
7ff0
0f30
1ab0
76d0
06e0
ENDCHAR
STARTCHAR 3547
ENCODING 13639
SWIDTH 960 0
DWIDTH 12 0
BBX 12 12 0 -2
BITMAP
6b00
fd00
6bf0
7ab0
36b0
fdd0
d7f0
fdb0
33d0
feb0
31b0
30e0
ENDCHAR
STARTCHAR 3548
ENCODING 13640
SWIDTH 960 0
DWIDTH 12 0
BBX 12 12 0 -2
BITMAP
0600
0600
fff0
0600
0600
7fe0
0000
3fc0
30c0
30c0
30c0
3fc0
ENDCHAR
STARTCHAR 3549
ENCODING 13641
SWIDTH 960 0
DWIDTH 12 0
BBX 12 12 0 -2
BITMAP
0600
0600
fbf0
dc00
d800
dfe0
d8c0
db80
fa00
0c30
0c30
07f0
ENDCHAR
STARTCHAR 354a
ENCODING 13642
SWIDTH 960 0
DWIDTH 12 0
BBX 12 12 0 -2
BITMAP
0600
fff0
d6d0
df50
d6b0
df60
d7c0
d300
fff0
0680
0cc0
3870
ENDCHAR
STARTCHAR 354b
ENCODING 13643
SWIDTH 960 0
DWIDTH 12 0
BBX 12 12 0 -2
BITMAP
3180
3180
37f0
f980
3180
77e0
7800
77e0
d660
d660
3660
37e0
ENDCHAR
STARTCHAR 354c
ENCODING 13644
SWIDTH 960 0
DWIDTH 12 0
BBX 12 12 0 -2
BITMAP
37e0
3340
37f0
fba0
3680
77f0
7d50
76f0
d5d0
d550
35d0
3470
ENDCHAR
STARTCHAR 354d
ENCODING 13645
SWIDTH 960 0
DWIDTH 12 0
BBX 12 12 0 -2
BITMAP
7980
0180
fff0
0180
7980
0fe0
7800
07e0
fa60
da60
da60
fbe0
ENDCHAR
STARTCHAR 354e
ENCODING 13646
SWIDTH 960 0
DWIDTH 12 0
BBX 12 12 0 -2
BITMAP
0180
fd80
3180
31f0
6180
7d80
ed80
6fe0
6e60
6e60
7e60
07e0
ENDCHAR
STARTCHAR 354f
ENCODING 13647
SWIDTH 960 0
DWIDTH 12 0
BBX 12 12 0 -2
BITMAP
3600
3600
37e0
fa80
3580
7180
7bf0
7580
d180
d180
3180
3180
ENDCHAR
STARTCHAR 3550
ENCODING 13648
SWIDTH 960 0
DWIDTH 12 0
BBX 12 12 0 -2
BITMAP
01e0
3f00
0600
fff0
1a80
76e0
0d00
3ac0
eab0
0f00
7ae0
0600
ENDCHAR
STARTCHAR 3551
ENCODING 13649
SWIDTH 960 0
DWIDTH 12 0
BBX 12 12 0 -2
BITMAP
3000
31f0
feb0
31b0
31b0
feb0
31b0
35b0
6ee0
7a80
e680
0180
ENDCHAR
STARTCHAR 3552
ENCODING 13650
SWIDTH 960 0
DWIDTH 12 0
BBX 12 12 0 -2
BITMAP
0600
fff0
cc30
cfb0
1980
7500
0700
3dc0
eff0
18c0
18c0
1fc0
ENDCHAR
STARTCHAR 3553
ENCODING 13651
SWIDTH 960 0
DWIDTH 12 0
BBX 12 12 0 -2
BITMAP
0600
f6f0
dfd0
d6d0
f6d0
dfd0
d6d0
f550
d5e0
dec0
d0c0
d0c0
ENDCHAR
STARTCHAR 3554
ENCODING 13652
SWIDTH 960 0
DWIDTH 12 0
BBX 12 12 0 -2
BITMAP
0600
07e0
0600
7ff0
6630
6fc0
6660
6fe0
6800
6fe0
d800
1fe0
ENDCHAR
STARTCHAR 3555
ENCODING 13653
SWIDTH 960 0
DWIDTH 12 0
BBX 12 12 0 -2
BITMAP
0660
6340
37f0
0180
0db0
f5b0
37f0
3580
3180
3300
6c00
c7f8
ENDCHAR
STARTCHAR 3556
ENCODING 13654
SWIDTH 960 0
DWIDTH 12 0
BBX 12 12 0 -2
BITMAP
0000
01c0
3f00
3000
3000
3fe0
3180
3180
3180
3180
3180
fff0
ENDCHAR
STARTCHAR 3557
ENCODING 13655
SWIDTH 960 0
DWIDTH 12 0
BBX 12 12 0 -2
BITMAP
0c00
0c00
0f80
1980
1980
3300
6300
0600
0d00
1980
30c0
e070
ENDCHAR
STARTCHAR 3558
ENCODING 13656
SWIDTH 960 0
DWIDTH 12 0
BBX 12 12 0 -2
BITMAP
3600
3600
3600
6fc0
66c0
e6c0
66c0
66c0
6cc0
6cd0
68d0
7070
ENDCHAR
STARTCHAR 3559
ENCODING 13657
SWIDTH 960 0
DWIDTH 12 0
BBX 12 12 0 -2
BITMAP
1980
1980
1980
3ff0
3180
73c0
d3c0
36a0
35b0
3998
3180
3180
ENDCHAR
STARTCHAR 355a
ENCODING 13658
SWIDTH 960 0
DWIDTH 12 0
BBX 12 12 0 -2
BITMAP
0000
3fc0
0cc0
0d80
0de0
1a60
1a60
1b40
31c0
31c0
6760
dc30
ENDCHAR
STARTCHAR 355b
ENCODING 13659
SWIDTH 960 0
DWIDTH 12 0
BBX 12 12 0 -2
BITMAP
0000
0fe0
fb60
db40
db70
db30
dbb0
daa0
fac0
06e0
0db0
1b18
ENDCHAR
STARTCHAR 355c
ENCODING 13660
SWIDTH 960 0
DWIDTH 12 0
BBX 12 12 0 -2
BITMAP
0600
fff0
c030
dfb0
1980
1980
1f80
0c00
3fc0
30c0
30c0
3fc0
ENDCHAR
STARTCHAR 355d
ENCODING 13661
SWIDTH 960 0
DWIDTH 12 0
BBX 12 12 0 -2
BITMAP
1fc0
00c0
00c0
3fc0
3000
3000
3fe0
0060
0060
0060
00c0
0780
ENDCHAR
STARTCHAR 355e
ENCODING 13662
SWIDTH 960 0
DWIDTH 12 0
BBX 12 12 0 -2
BITMAP
1800
1f80
3300
7fc0
00c0
1fc0
00c0
7fc0
6600
6b60
d8d0
0fc0
ENDCHAR
STARTCHAR 355f
ENCODING 13663
SWIDTH 960 0
DWIDTH 12 0
BBX 12 12 0 -2
BITMAP
1d80
1a80
fef0
1b60
db60
6aa0
6cc0
3ac0
6ac0
db60
1a60
3c30
ENDCHAR
STARTCHAR 3560
ENCODING 13664
SWIDTH 960 0
DWIDTH 12 0
BBX 12 12 0 -2
BITMAP
3000
37f0
3300
fd00
3300
77e0
7a60
7460
d060
d060
3060
31c0
ENDCHAR
STARTCHAR 3561
ENCODING 13665
SWIDTH 960 0
DWIDTH 12 0
BBX 12 12 0 -2
BITMAP
0600
0680
06c0
fff0
0600
6760
3740
0e80
3ac0
e660
0630
0e00
ENDCHAR
STARTCHAR 3562
ENCODING 13666
SWIDTH 960 0
DWIDTH 12 0
BBX 12 12 0 -2
BITMAP
6000
3fc0
06c0
c680
66e0
0660
0d60
3540
6d80
6dc0
db60
d630
ENDCHAR
STARTCHAR 3563
ENCODING 13667
SWIDTH 960 0
DWIDTH 12 0
BBX 12 12 0 -2
BITMAP
6300
3300
0300
dff0
6060
0c60
0c60
3660
66c0
66c0
c6c0
dff0
ENDCHAR
STARTCHAR 3564
ENCODING 13668
SWIDTH 960 0
DWIDTH 12 0
BBX 12 12 0 -2
BITMAP
0c00
0f80
1980
7700
0dc0
3a70
e600
1a60
76c0
0d00
3980
e0f0
ENDCHAR
STARTCHAR 3565
ENCODING 13669
SWIDTH 960 0
DWIDTH 12 0
BBX 12 12 0 -2
BITMAP
0180
f9c0
31a0
37f0
f980
35b0
37e0
33c0
3aa0
f5b8
0180
0380
ENDCHAR
STARTCHAR 3566
ENCODING 13670
SWIDTH 960 0
DWIDTH 12 0
BBX 12 12 0 -2
BITMAP
0600
fff0
db30
db30
1b60
36e0
6600
7f80
0d80
0db0
19b0
70f0
ENDCHAR
STARTCHAR 3567
ENCODING 13671
SWIDTH 960 0
DWIDTH 12 0
BBX 12 12 0 -2
BITMAP
0600
fff0
cd30
7bf0
1800
7df0
6c30
7df0
6d00
fdf0
3430
ece0
ENDCHAR
STARTCHAR 3568
ENCODING 13672
SWIDTH 960 0
DWIDTH 12 0
BBX 12 12 0 -2
BITMAP
6300
7df0
dac0
3180
7f00
1b00
1bc0
18c0
3580
6700
dd80
70e0
ENDCHAR
STARTCHAR 3569
ENCODING 13673
SWIDTH 960 0
DWIDTH 12 0
BBX 12 12 0 -2
BITMAP
3000
37c0
eac0
6a80
36e0
6b60
fea0
36c0
dac0
d5a0
d560
3a30
ENDCHAR
STARTCHAR 356a
ENCODING 13674
SWIDTH 960 0
DWIDTH 12 0
BBX 12 12 0 -2
BITMAP
3060
3360
eb60
6b60
3360
6b60
fd60
d378
d7a0
d460
d060
3060
ENDCHAR
STARTCHAR 356b
ENCODING 13675
SWIDTH 960 0
DWIDTH 12 0
BBX 12 12 0 -2
BITMAP
3180
3180
eb40
6a60
37e0
6830
fc00
37e0
da60
d660
d660
37e0
ENDCHAR
STARTCHAR 356c
ENCODING 13676
SWIDTH 960 0
DWIDTH 12 0
BBX 12 12 0 -2
BITMAP
6000
6fe0
6c60
6c60
6c60
6fe0
6c60
6c60
6c60
6c60
6fe0
6000
ENDCHAR
STARTCHAR 356d
ENCODING 13677
SWIDTH 960 0
DWIDTH 12 0
BBX 12 12 0 -2
BITMAP
0600
3600
3600
3fe0
6600
c600
0600
fff0
0600
0600
0600
0600
ENDCHAR
STARTCHAR 356e
ENCODING 13678
SWIDTH 960 0
DWIDTH 12 0
BBX 12 12 0 -2
BITMAP
0600
0600
7fe0
0600
0600
fff0
0600
0d80
0cc0
1bc0
7e60
0060
ENDCHAR
STARTCHAR 356f
ENCODING 13679
SWIDTH 960 0
DWIDTH 12 0
BBX 12 12 0 -2
BITMAP
0000
3fe0
3060
3fe0
3300
3ff0
3300
3300
6fe0
6860
d860
1fe0
ENDCHAR
STARTCHAR 3570
ENCODING 13680
SWIDTH 960 0
DWIDTH 12 0
BBX 12 12 0 -2
BITMAP
0000
7ff0
6000
6000
7fe0
6060
6060
7fe0
6000
6000
6000
7ff0
ENDCHAR
STARTCHAR 3571
ENCODING 13681
SWIDTH 960 0
DWIDTH 12 0
BBX 12 12 0 -2
BITMAP
3000
37f0
3600
fa00
37e0
3660
3a60
f7e0
3600
3600
3600
77f0
ENDCHAR
STARTCHAR 3572
ENCODING 13682
SWIDTH 960 0
DWIDTH 12 0
BBX 12 12 0 -2
BITMAP
3000
36f0
36d0
fb50
3550
3550
3d50
f750
33b0
36b8
34c0
7878
ENDCHAR
STARTCHAR 3573
ENCODING 13683
SWIDTH 960 0
DWIDTH 12 0
BBX 12 12 0 -2
BITMAP
6cc0
36c0
fff0
1b00
3f80
6cc0
dfb0
0600
7fc0
0600
0600
1c00
ENDCHAR
STARTCHAR 3574
ENCODING 13684
SWIDTH 960 0
DWIDTH 12 0
BBX 12 12 0 -2
BITMAP
6ff0
3400
cfe0
6c60
0fe0
3400
6ff0
c600
fff0
0f00
3ac0
e670
ENDCHAR
STARTCHAR 3575
ENCODING 13685
SWIDTH 960 0
DWIDTH 12 0
BBX 12 12 0 -2
BITMAP
0600
07c0
0600
7ff0
6c30
7fc0
6c60
67e0
7540
6d80
cd00
7ff0
ENDCHAR
STARTCHAR 3576
ENCODING 13686
SWIDTH 960 0
DWIDTH 12 0
BBX 12 12 0 -2
BITMAP
7a00
0600
fbe0
0d80
7980
0180
7ff0
0180
f980
d980
d980
f980
ENDCHAR
STARTCHAR 3577
ENCODING 13687
SWIDTH 960 0
DWIDTH 12 0
BBX 12 12 0 -2
BITMAP
0000
fbf0
da00
da00
fbe0
3660
d660
dfe0
d600
d600
da00
e7f0
ENDCHAR
STARTCHAR 3578
ENCODING 13688
SWIDTH 960 0
DWIDTH 12 0
BBX 12 12 0 -2
BITMAP
3000
37f0
6a30
6ff0
fac0
37f0
fec0
36c0
dbf0
7530
3b30
e3f0
ENDCHAR
STARTCHAR 3579
ENCODING 13689
SWIDTH 960 0
DWIDTH 12 0
BBX 12 12 0 -2
BITMAP
6300
33e0
06c0
dd80
6ff0
0db0
0ff0
35b0
6ff0
6000
cd50
db68
ENDCHAR
STARTCHAR 357a
ENCODING 13690
SWIDTH 960 0
DWIDTH 12 0
BBX 12 12 0 -2
BITMAP
34f0
6fd0
d550
73d0
d570
37c0
30c0
7fe0
0000
fff0
1a80
76e0
ENDCHAR
STARTCHAR 357b
ENCODING 13691
SWIDTH 960 0
DWIDTH 12 0
BBX 12 12 0 -2
BITMAP
0c00
0f80
1980
3300
7fe0
d660
3fe0
3660
3fe0
0000
6d60
cdb0
ENDCHAR
STARTCHAR 357c
ENCODING 13692
SWIDTH 960 0
DWIDTH 12 0
BBX 12 12 0 -2
BITMAP
0600
fff0
3fc0
30c0
3fc0
0000
7fe0
0180
0700
0600
0600
0e00
ENDCHAR
STARTCHAR 357d
ENCODING 13693
SWIDTH 960 0
DWIDTH 12 0
BBX 12 12 0 -2
BITMAP
0600
fff0
3fc0
30c0
3fc0
0000
3fc0
0300
fff0
0600
0600
0e00
ENDCHAR
STARTCHAR 357e
ENCODING 13694
SWIDTH 960 0
DWIDTH 12 0
BBX 12 12 0 -2
BITMAP
0600
fff0
0000
3fc0
30c0
30c0
3fc0
0600
36c0
3660
6660
0e00
ENDCHAR
STARTCHAR 3621
ENCODING 13857
SWIDTH 960 0
DWIDTH 12 0
BBX 12 12 0 -2
BITMAP
1b60
1b60
1b60
37f0
3360
7360
d360
3ff8
3000
3360
3630
3430
ENDCHAR
STARTCHAR 3622
ENCODING 13858
SWIDTH 960 0
DWIDTH 12 0
BBX 12 12 0 -2
BITMAP
3300
3300
3fe0
6b60
6d40
ed00
7ff0
6300
6380
66c0
6c60
7830
ENDCHAR
STARTCHAR 3623
ENCODING 13859
SWIDTH 960 0
DWIDTH 12 0
BBX 12 12 0 -2
BITMAP
1be0
1980
37f0
3340
3670
73c0
d340
37f0
35d0
3550
35d0
3470
ENDCHAR
STARTCHAR 3624
ENCODING 13860
SWIDTH 960 0
DWIDTH 12 0
BBX 12 12 0 -2
BITMAP
0300
6d60
6660
6760
6da0
6860
7fe0
0d00
0d00
1b30
3330
e1f0
ENDCHAR
STARTCHAR 3625
ENCODING 13861
SWIDTH 960 0
DWIDTH 12 0
BBX 12 12 0 -2
BITMAP
1980
ffe0
6b40
fff0
0000
7de0
6d60
7de0
3540
3550
6ed0
cc70
ENDCHAR
STARTCHAR 3626
ENCODING 13862
SWIDTH 960 0
DWIDTH 12 0
BBX 12 12 0 -2
BITMAP
1980
1980
1980
7fe0
1980
1980
1980
fff0
0180
18c0
3060
e060
ENDCHAR
STARTCHAR 3627
ENCODING 13863
SWIDTH 960 0
DWIDTH 12 0
BBX 12 12 0 -2
BITMAP
00c0
60d0
68d0
6db0
66b0
6330
66b0
6cd0
78d0
6030
7ff0
6000
ENDCHAR
STARTCHAR 3628
ENCODING 13864
SWIDTH 960 0
DWIDTH 12 0
BBX 12 12 0 -2
BITMAP
6300
6fe0
6360
fb60
6660
6dc0
6cc0
7ff0
6ad0
6ad0
76b0
6f70
ENDCHAR
STARTCHAR 3629
ENCODING 13865
SWIDTH 960 0
DWIDTH 12 0
BBX 12 12 0 -2
BITMAP
0000
fff0
c000
dfe0
c600
c600
dfc0
c600
c600
dfe0
c000
fff0
ENDCHAR
STARTCHAR 362a
ENCODING 13866
SWIDTH 960 0
DWIDTH 12 0
BBX 12 12 0 -2
BITMAP
3000
ef70
cd50
d750
d550
d550
d750
d4d0
f6f0
3540
6ec0
c0c0
ENDCHAR
STARTCHAR 362b
ENCODING 13867
SWIDTH 960 0
DWIDTH 12 0
BBX 12 12 0 -2
BITMAP
00c0
fac0
dac0
dac0
dac0
dac0
dac0
daf0
fbc0
cec0
00c0
00c0
ENDCHAR
STARTCHAR 362c
ENCODING 13868
SWIDTH 960 0
DWIDTH 12 0
BBX 12 12 0 -2
BITMAP
03c0
3e00
0600
ffe0
1f80
39c0
efb0
7fe0
6fa0
69a0
6fa0
60e0
ENDCHAR
STARTCHAR 362d
ENCODING 13869
SWIDTH 960 0
DWIDTH 12 0
BBX 12 12 0 -2
BITMAP
6300
6fe0
6cc0
6680
fff0
6cc0
6fc0
6cc0
7fc0
e680
0db0
38f0
ENDCHAR
STARTCHAR 362e
ENCODING 13870
SWIDTH 960 0
DWIDTH 12 0
BBX 12 12 0 -2
BITMAP
0180
3180
37f0
31b0
d6a0
d5c0
d7f0
d580
d580
fd40
0660
1c30
ENDCHAR
STARTCHAR 362f
ENCODING 13871
SWIDTH 960 0
DWIDTH 12 0
BBX 12 12 0 -2
BITMAP
0300
fb40
1a60
1ff0
f9b0
c7e0
faa0
1be0
1aa0
19b0
31f0
ef30
ENDCHAR
STARTCHAR 3630
ENCODING 13872
SWIDTH 960 0
DWIDTH 12 0
BBX 12 12 0 -2
BITMAP
0000
fff0
35a0
37e0
f5a0
cfe0
fff0
35a0
37e0
35a0
37e0
eff0
ENDCHAR
STARTCHAR 3631
ENCODING 13873
SWIDTH 960 0
DWIDTH 12 0
BBX 12 12 0 -2
BITMAP
3180
3180
3180
77e0
7180
d980
dff0
3300
3340
36c0
37e0
3e60
ENDCHAR
STARTCHAR 3632
ENCODING 13874
SWIDTH 960 0
DWIDTH 12 0
BBX 12 12 0 -2
BITMAP
07c0
fec0
36c0
3740
3ed0
f6d0
0c70
1a00
6b60
6b30
d8d0
0fc0
ENDCHAR
STARTCHAR 3633
ENCODING 13875
SWIDTH 960 0
DWIDTH 12 0
BBX 12 12 0 -2
BITMAP
1980
1980
7fe0
1980
1980
fff0
1980
34c0
f570
35a0
6da0
1c00
ENDCHAR
STARTCHAR 3634
ENCODING 13876
SWIDTH 960 0
DWIDTH 12 0
BBX 12 12 0 -2
BITMAP
3180
3180
37f0
f980
36b0
36a0
3ff0
f180
3180
3340
3660
7c30
ENDCHAR
STARTCHAR 3635
ENCODING 13877
SWIDTH 960 0
DWIDTH 12 0
BBX 12 12 0 -2
BITMAP
3180
3680
fd80
35f0
ff60
3760
7da0
d9c0
1ec0
f9c0
1b60
3e30
ENDCHAR
STARTCHAR 3636
ENCODING 13878
SWIDTH 960 0
DWIDTH 12 0
BBX 12 12 0 -2
BITMAP
37e0
3180
37f0
fb40
3660
75d0
7b40
77f0
d5d0
d550
35d0
3470
ENDCHAR
STARTCHAR 3637
ENCODING 13879
SWIDTH 960 0
DWIDTH 12 0
BBX 12 12 0 -2
BITMAP
6000
37e0
0c60
cc60
6c60
0fe0
0680
3680
6680
6db0
cdb0
d8f0
ENDCHAR
STARTCHAR 3638
ENCODING 13880
SWIDTH 960 0
DWIDTH 12 0
BBX 12 12 0 -2
BITMAP
d800
6ff0
3180
7180
d180
37e0
3980
7180
d180
3180
3180
eff0
ENDCHAR
STARTCHAR 3639
ENCODING 13881
SWIDTH 960 0
DWIDTH 12 0
BBX 12 12 0 -2
BITMAP
db00
6b00
37e0
7b60
d540
3500
3ff0
7300
d300
3680
34c0
e870
ENDCHAR
STARTCHAR 363a
ENCODING 13882
SWIDTH 960 0
DWIDTH 12 0
BBX 12 12 0 -2
BITMAP
67e0
6180
7bf0
d340
d670
33c0
fb40
37f0
6dd0
6d50
cdd0
0c70
ENDCHAR
STARTCHAR 363b
ENCODING 13883
SWIDTH 960 0
DWIDTH 12 0
BBX 12 12 0 -2
BITMAP
0600
f600
d7f0
d430
f8d0
d6d0
d550
f6d0
d4d0
d7d0
d030
d0e0
ENDCHAR
STARTCHAR 363c
ENCODING 13884
SWIDTH 960 0
DWIDTH 12 0
BBX 12 12 0 -2
BITMAP
0600
3fc0
06c0
35c0
fdf0
35b0
ed70
3fc0
30c0
3fc0
30c0
31c0
ENDCHAR
STARTCHAR 363d
ENCODING 13885
SWIDTH 960 0
DWIDTH 12 0
BBX 12 12 0 -2
BITMAP
1800
77e0
6d60
7fe0
6d60
6f60
7de0
6f60
fff0
0d80
18c0
7060
ENDCHAR
STARTCHAR 363e
ENCODING 13886
SWIDTH 960 0
DWIDTH 12 0
BBX 12 12 0 -2
BITMAP
1980
fff0
1980
3fc0
0600
fff0
3dc0
ef70
7fe0
6f60
6d60
6f60
ENDCHAR
STARTCHAR 363f
ENCODING 13887
SWIDTH 960 0
DWIDTH 12 0
BBX 12 12 0 -2
BITMAP
6000
6f70
d550
7750
3560
6f50
d4d8
f6d8
3558
36f0
6dc0
c0c0
ENDCHAR
STARTCHAR 3640
ENCODING 13888
SWIDTH 960 0
DWIDTH 12 0
BBX 12 12 0 -2
BITMAP
3180
37e0
6b40
6ff0
fa60
37e0
fe60
37e0
db40
7540
3ad0
ec70
ENDCHAR
STARTCHAR 3641
ENCODING 13889
SWIDTH 960 0
DWIDTH 12 0
BBX 12 12 0 -2
BITMAP
3770
ed50
7760
fed0
3550
6ee0
fff0
1980
fff0
3fc0
30c0
3fc0
ENDCHAR
STARTCHAR 3642
ENCODING 13890
SWIDTH 960 0
DWIDTH 12 0
BBX 12 12 0 -2
BITMAP
3770
ed50
7760
fed0
3550
6ee0
0740
3fc0
e9b0
1f80
1b40
3de0
ENDCHAR
STARTCHAR 3643
ENCODING 13891
SWIDTH 960 0
DWIDTH 12 0
BBX 12 12 0 -2
BITMAP
3580
fef0
66b0
fb60
6aa0
7fd0
3300
3fe0
3300
3ff0
6b50
cce0
ENDCHAR
STARTCHAR 3644
ENCODING 13892
SWIDTH 960 0
DWIDTH 12 0
BBX 12 12 0 -2
BITMAP
3380
3600
35f0
6db0
6db0
edb0
6db0
6db0
6db0
6ee0
6180
6180
ENDCHAR
STARTCHAR 3645
ENCODING 13893
SWIDTH 960 0
DWIDTH 12 0
BBX 12 12 0 -2
BITMAP
33f0
3630
dda0
76c0
1ff0
18d0
1f40
7570
6f40
cd40
dac0
3670
ENDCHAR
STARTCHAR 3646
ENCODING 13894
SWIDTH 960 0
DWIDTH 12 0
BBX 12 12 0 -2
BITMAP
0600
7fc0
0600
3680
ffe0
3180
0000
fff0
1b00
1b60
3360
e1e0
ENDCHAR
STARTCHAR 3647
ENCODING 13895
SWIDTH 960 0
DWIDTH 12 0
BBX 12 12 0 -2
BITMAP
0300
1fe0
f300
d540
dff0
f4c0
d000
dff0
f680
c6b0
0db0
38f0
ENDCHAR
STARTCHAR 3648
ENCODING 13896
SWIDTH 960 0
DWIDTH 12 0
BBX 12 12 0 -2
BITMAP
0d00
3540
fff0
1980
7fe0
0600
3fc0
0600
fff0
1a80
36c0
6660
ENDCHAR
STARTCHAR 3649
ENCODING 13897
SWIDTH 960 0
DWIDTH 12 0
BBX 12 12 0 -2
BITMAP
0000
3fe0
3060
3fe0
3000
3ff0
3030
37b0
6db0
6db0
cfb0
00e0
ENDCHAR
STARTCHAR 364a
ENCODING 13898
SWIDTH 960 0
DWIDTH 12 0
BBX 12 12 0 -2
BITMAP
0d80
0d80
0d80
7ff0
6db0
6db0
7ff0
6db0
6db0
6db0
6db0
7ff0
ENDCHAR
STARTCHAR 364b
ENCODING 13899
SWIDTH 960 0
DWIDTH 12 0
BBX 12 12 0 -2
BITMAP
3000
37f0
3300
fa00
3770
71b0
7ed0
7aa0
daa0
ded0
3380
37f0
ENDCHAR
STARTCHAR 364c
ENCODING 13900
SWIDTH 960 0
DWIDTH 12 0
BBX 12 12 0 -2
BITMAP
0000
7fe0
0600
0600
0600
0600
3fc0
0600
0680
06c0
06c0
fff0
ENDCHAR
STARTCHAR 364d
ENCODING 13901
SWIDTH 960 0
DWIDTH 12 0
BBX 12 12 0 -2
BITMAP
3000
37f0
3430
fdd0
3430
75d0
7d50
7550
d5d0
d430
3430
3470
ENDCHAR
STARTCHAR 364e
ENCODING 13902
SWIDTH 960 0
DWIDTH 12 0
BBX 12 12 0 -2
BITMAP
30e0
d780
7980
3180
f980
37f0
7980
7580
d180
d180
3180
3180
ENDCHAR
STARTCHAR 364f
ENCODING 13903
SWIDTH 960 0
DWIDTH 12 0
BBX 12 12 0 -2
BITMAP
3340
37f0
3340
6ff0
6db0
eff0
6180
6ff0
6180
67e0
6180
6ff0
ENDCHAR
STARTCHAR 3650
ENCODING 13904
SWIDTH 960 0
DWIDTH 12 0
BBX 12 12 0 -2
BITMAP
3580
fe80
3580
7ff0
6ab0
7eb0
19b0
7eb0
19b0
7db0
1f30
fae0
ENDCHAR
STARTCHAR 3651
ENCODING 13905
SWIDTH 960 0
DWIDTH 12 0
BBX 12 12 0 -2
BITMAP
3300
3300
37f0
fa30
3430
3b30
30d0
3bb0
3630
e030
0030
00e0
ENDCHAR
STARTCHAR 3652
ENCODING 13906
SWIDTH 960 0
DWIDTH 12 0
BBX 12 12 0 -2
BITMAP
0600
0600
0600
7fe0
6660
6660
6660
6660
66c0
0600
0600
0600
ENDCHAR
STARTCHAR 3653
ENCODING 13907
SWIDTH 960 0
DWIDTH 12 0
BBX 12 12 0 -2
BITMAP
3300
37e0
6a60
6fe0
fe60
37e0
fd80
37f0
dab0
76b0
3ab0
e180
ENDCHAR
STARTCHAR 3654
ENCODING 13908
SWIDTH 960 0
DWIDTH 12 0
BBX 12 12 0 -2
BITMAP
00c0
0380
3e00
3000
3ff0
3300
3300
3300
3300
6300
6300
c300
ENDCHAR
STARTCHAR 3655
ENCODING 13909
SWIDTH 960 0
DWIDTH 12 0
BBX 12 12 0 -2
BITMAP
1d00
7300
6300
63f0
7eb0
6aa0
6d80
6980
6b80
6b40
da60
1c30
ENDCHAR
STARTCHAR 3656
ENCODING 13910
SWIDTH 960 0
DWIDTH 12 0
BBX 12 12 0 -2
BITMAP
3300
3300
6b00
6df0
feb0
36a0
fd80
3180
d9c0
7540
3a60
ec30
ENDCHAR
STARTCHAR 3657
ENCODING 13911
SWIDTH 960 0
DWIDTH 12 0
BBX 12 12 0 -2
BITMAP
fdf0
30c0
fdf0
30c0
fbf0
0f00
39c0
efb0
0000
3fc0
0180
0700
ENDCHAR
STARTCHAR 3658
ENCODING 13912
SWIDTH 960 0
DWIDTH 12 0
BBX 12 12 0 -2
BITMAP
3180
fff0
3b80
36c0
76a0
d1b0
3fc0
0000
fff0
36c0
e660
0e00
ENDCHAR
STARTCHAR 3659
ENCODING 13913
SWIDTH 960 0
DWIDTH 12 0
BBX 12 12 0 -2
BITMAP
0600
0d80
3fe0
edb8
3760
35a0
3fe0
0600
7ff0
66b0
6fd0
60d0
ENDCHAR
STARTCHAR 365a
ENCODING 13914
SWIDTH 960 0
DWIDTH 12 0
BBX 12 12 0 -2
BITMAP
6300
7df0
dac0
7d80
6ff0
7db0
6db0
6db0
7db0
6d30
6d30
dee0
ENDCHAR
STARTCHAR 365b
ENCODING 13915
SWIDTH 960 0
DWIDTH 12 0
BBX 12 12 0 -2
BITMAP
0000
7ef0
6830
7ea0
7ec0
69a0
7f30
39c0
0f60
fff0
1ab0
76c0
ENDCHAR
STARTCHAR 365c
ENCODING 13916
SWIDTH 960 0
DWIDTH 12 0
BBX 12 12 0 -2
BITMAP
1980
fff0
1980
01e0
3f00
3000
3ff0
3300
3300
6300
6300
c300
ENDCHAR
STARTCHAR 365d
ENCODING 13917
SWIDTH 960 0
DWIDTH 12 0
BBX 12 12 0 -2
BITMAP
0d80
fff8
0d80
7ff0
63b0
6e30
6630
7ff0
6f30
7ad0
6630
7ff0
ENDCHAR
STARTCHAR 365e
ENCODING 13918
SWIDTH 960 0
DWIDTH 12 0
BBX 12 12 0 -2
BITMAP
3180
3180
fd40
0d40
1a60
35d0
7800
d7e0
3060
30c0
30c0
3180
ENDCHAR
STARTCHAR 365f
ENCODING 13919
SWIDTH 960 0
DWIDTH 12 0
BBX 12 12 0 -2
BITMAP
66c0
6ff0
f6c0
37e0
3ad0
6ff0
7000
fff0
6da0
6db0
69b0
6380
ENDCHAR
STARTCHAR 3660
ENCODING 13920
SWIDTH 960 0
DWIDTH 12 0
BBX 12 12 0 -2
BITMAP
7b60
0ff0
fb60
07e0
7aa0
07e0
7980
0fe0
f980
dbe0
d980
fff0
ENDCHAR
STARTCHAR 3661
ENCODING 13921
SWIDTH 960 0
DWIDTH 12 0
BBX 12 12 0 -2
BITMAP
0070
67c0
3600
0600
07f0
f6c0
36c0
36c0
34c0
38c0
6c00
c7f8
ENDCHAR
STARTCHAR 3662
ENCODING 13922
SWIDTH 960 0
DWIDTH 12 0
BBX 12 12 0 -2
BITMAP
0600
0600
0d00
1980
3fc0
e670
0600
7fe0
0600
36c0
1a80
fff0
ENDCHAR
STARTCHAR 3663
ENCODING 13923
SWIDTH 960 0
DWIDTH 12 0
BBX 12 12 0 -2
BITMAP
0300
0380
f680
d6c0
d7e0
d830
d000
d7e0
d0c0
f0c0
0180
0300
ENDCHAR
STARTCHAR 3664
ENCODING 13924
SWIDTH 960 0
DWIDTH 12 0
BBX 12 12 0 -2
BITMAP
3000
37e0
6a60
6fe0
fa60
37e0
feb0
36a0
dac0
76c0
3ba0
ee30
ENDCHAR
STARTCHAR 3665
ENCODING 13925
SWIDTH 960 0
DWIDTH 12 0
BBX 12 12 0 -2
BITMAP
0c00
0c00
0c00
7f80
0d80
0d80
0d80
0d80
1980
19b0
31b0
60f0
ENDCHAR
STARTCHAR 3666
ENCODING 13926
SWIDTH 960 0
DWIDTH 12 0
BBX 12 12 0 -2
BITMAP
1800
1fe0
1c60
3460
37e0
7460
d7e0
3460
3ff0
3340
3660
3c30
ENDCHAR
STARTCHAR 3667
ENCODING 13927
SWIDTH 960 0
DWIDTH 12 0
BBX 12 12 0 -2
BITMAP
1800
1800
3ff0
3030
6fb0
d9b0
19b0
19b0
1fb0
0030
0030
00e0
ENDCHAR
STARTCHAR 3668
ENCODING 13928
SWIDTH 960 0
DWIDTH 12 0
BBX 12 12 0 -2
BITMAP
0000
7ff0
60c0
60c0
6d80
6680
6300
6680
6cc0
6800
7ff0
6000
ENDCHAR
STARTCHAR 3669
ENCODING 13929
SWIDTH 960 0
DWIDTH 12 0
BBX 12 12 0 -2
BITMAP
da00
7600
67f0
d430
3430
3bd0
76d0
d6d0
37d0
3030
3030
e0e0
ENDCHAR
STARTCHAR 366a
ENCODING 13930
SWIDTH 960 0
DWIDTH 12 0
BBX 12 12 0 -2
BITMAP
0300
fd00
33e0
3360
fa60
36c0
34c0
31c0
3da0
e360
0630
1c30
ENDCHAR
STARTCHAR 366b
ENCODING 13931
SWIDTH 960 0
DWIDTH 12 0
BBX 12 12 0 -2
BITMAP
6000
67f0
7e00
d600
d7e0
3660
7e60
37e0
3a00
6e00
6600
c7f0
ENDCHAR
STARTCHAR 366c
ENCODING 13932
SWIDTH 960 0
DWIDTH 12 0
BBX 12 12 0 -2
BITMAP
1980
fff0
1980
1a80
0600
fff0
0600
0600
3fc0
30c0
30c0
3fc0
ENDCHAR
STARTCHAR 366d
ENCODING 13933
SWIDTH 960 0
DWIDTH 12 0
BBX 12 12 0 -2
BITMAP
3000
7df0
6d00
7d30
6db0
7d60
6f60
fd50
1d50
3580
ed00
1df0
ENDCHAR
STARTCHAR 366e
ENCODING 13934
SWIDTH 960 0
DWIDTH 12 0
BBX 12 12 0 -2
BITMAP
0000
fff0
d660
fa60
d6a0
fac0
d6c0
fea0
0eb0
d700
ce00
3bf0
ENDCHAR
STARTCHAR 366f
ENCODING 13935
SWIDTH 960 0
DWIDTH 12 0
BBX 12 12 0 -2
BITMAP
0060
fcc0
d380
fb00
d3f0
fb60
d360
fd60
0d60
d560
cd60
3bf8
ENDCHAR
STARTCHAR 3670
ENCODING 13936
SWIDTH 960 0
DWIDTH 12 0
BBX 12 12 0 -2
BITMAP
0300
fd00
d3f0
fa30
d7d0
fd50
d350
fd50
0dd0
d430
cc30
38e0
ENDCHAR
STARTCHAR 3671
ENCODING 13937
SWIDTH 960 0
DWIDTH 12 0
BBX 12 12 0 -2
BITMAP
3f80
3180
3f80
3180
3f80
3180
3f80
0000
fff0
1b00
31c0
e060
ENDCHAR
STARTCHAR 3672
ENCODING 13938
SWIDTH 960 0
DWIDTH 12 0
BBX 12 12 0 -2
BITMAP
3fc0
36c0
3fc0
36c0
fff0
cd30
dbb0
dcd0
1a70
6b60
d8d0
0fc0
ENDCHAR
STARTCHAR 3673
ENCODING 13939
SWIDTH 960 0
DWIDTH 12 0
BBX 12 12 0 -2
BITMAP
0600
07c0
7ff0
6660
6fe0
74c0
77c0
7f80
6180
7ff0
ccc0
d860
ENDCHAR
STARTCHAR 3674
ENCODING 13940
SWIDTH 960 0
DWIDTH 12 0
BBX 12 12 0 -2
BITMAP
0300
0680
f7c0
d860
d7d0
d4c0
d7c0
d7c0
d560
f5c0
0ee0
3c30
ENDCHAR
STARTCHAR 3675
ENCODING 13941
SWIDTH 960 0
DWIDTH 12 0
BBX 12 12 0 -2
BITMAP
0600
fff0
db30
db30
1b60
31e0
6000
3fe0
0600
0600
0600
fff0
ENDCHAR
STARTCHAR 3676
ENCODING 13942
SWIDTH 960 0
DWIDTH 12 0
BBX 12 12 0 -2
BITMAP
3000
37e0
3560
6fe0
6d60
efe0
6300
6ff0
6b50
6bd0
6ed0
6870
ENDCHAR
STARTCHAR 3677
ENCODING 13943
SWIDTH 960 0
DWIDTH 12 0
BBX 12 12 0 -2
BITMAP
0600
fff0
c030
dfd0
36c0
3fc0
36c0
7fe0
66a0
6fa0
61a0
60e0
ENDCHAR
STARTCHAR 3678
ENCODING 13944
SWIDTH 960 0
DWIDTH 12 0
BBX 12 12 0 -2
BITMAP
0fe0
6d60
37e0
0d60
0fe0
f300
37f0
3550
37d0
34f0
6c00
c7f8
ENDCHAR
STARTCHAR 3679
ENCODING 13945
SWIDTH 960 0
DWIDTH 12 0
BBX 12 12 0 -2
BITMAP
0000
f7e0
d560
d7e0
ed60
d7e0
d300
dff0
db50
ebd0
ded0
d870
ENDCHAR
STARTCHAR 367a
ENCODING 13946
SWIDTH 960 0
DWIDTH 12 0
BBX 12 12 0 -2
BITMAP
0600
0600
7fe0
6660
7fe0
0600
fff0
c630
fff0
0600
0600
0600
ENDCHAR
STARTCHAR 367b
ENCODING 13947
SWIDTH 960 0
DWIDTH 12 0
BBX 12 12 0 -2
BITMAP
34c0
3770
3aa0
fa60
3770
7550
7f50
7550
d750
d4f0
3740
3540
ENDCHAR
STARTCHAR 367c
ENCODING 13948
SWIDTH 960 0
DWIDTH 12 0
BBX 12 12 0 -2
BITMAP
3330
3350
6b50
6d50
fd50
3350
fd50
3350
db50
7550
3b30
e630
ENDCHAR
STARTCHAR 367d
ENCODING 13949
SWIDTH 960 0
DWIDTH 12 0
BBX 12 12 0 -2
BITMAP
7ff0
6030
7ff0
6b60
6d40
6fe0
6860
6fe0
6860
6fe0
d860
18e0
ENDCHAR
STARTCHAR 367e
ENCODING 13950
SWIDTH 960 0
DWIDTH 12 0
BBX 12 12 0 -2
BITMAP
0000
7ff0
6030
7ff0
6300
6b60
6b60
6fe0
6300
7330
d330
3ff0
ENDCHAR
STARTCHAR 3721
ENCODING 14113
SWIDTH 960 0
DWIDTH 12 0
BBX 12 12 0 -2
BITMAP
3000
37f0
3430
fff0
34c0
3550
3d50
f5f0
34c0
36d0
3ad0
77f0
ENDCHAR
STARTCHAR 3722
ENCODING 14114
SWIDTH 960 0
DWIDTH 12 0
BBX 12 12 0 -2
BITMAP
0600
fff0
d8d0
3fc0
f0f0
3fc0
3300
3b60
3fe0
6300
d360
3fe0
ENDCHAR
STARTCHAR 3723
ENCODING 14115
SWIDTH 960 0
DWIDTH 12 0
BBX 12 12 0 -2
BITMAP
0600
06e0
fb80
1b00
36c0
e670
0e00
3fc0
30c0
3fc0
30c0
3fc0
ENDCHAR
STARTCHAR 3724
ENCODING 14116
SWIDTH 960 0
DWIDTH 12 0
BBX 12 12 0 -2
BITMAP
6b40
fd40
6b40
7ad0
3550
fd60
d540
fd40
3340
fd50
3350
3370
ENDCHAR
STARTCHAR 3725
ENCODING 14117
SWIDTH 960 0
DWIDTH 12 0
BBX 12 12 0 -2
BITMAP
6fa0
c6c0
dfa0
6ad0
fff0
66d0
ffe0
66d0
3fc0
30c0
30c0
3fc0
ENDCHAR
STARTCHAR 3726
ENCODING 14118
SWIDTH 960 0
DWIDTH 12 0
BBX 12 12 0 -2
BITMAP
0600
fff0
cd30
79e0
6300
37e0
c300
6ff0
0300
37e0
6300
dff0
ENDCHAR
STARTCHAR 3727
ENCODING 14119
SWIDTH 960 0
DWIDTH 12 0
BBX 12 12 0 -2
BITMAP
3360
6dc0
fd30
6ef0
7c00
6d60
7dc0
6d30
cdf0
0000
6b60
cdb0
ENDCHAR
STARTCHAR 3728
ENCODING 14120
SWIDTH 960 0
DWIDTH 12 0
BBX 12 12 0 -2
BITMAP
0000
f7e0
d560
d7e0
ed60
d7e0
d000
dff0
d560
edc0
cd60
de30
ENDCHAR
STARTCHAR 3729
ENCODING 14121
SWIDTH 960 0
DWIDTH 12 0
BBX 12 12 0 -2
BITMAP
0c00
0f80
3980
e700
1dc0
f670
36c0
1a80
fff0
0f00
3ac0
e670
ENDCHAR
STARTCHAR 372a
ENCODING 14122
SWIDTH 960 0
DWIDTH 12 0
BBX 12 12 0 -2
BITMAP
0000
fff0
0d00
7fe0
6d60
7fe0
0600
fff0
0f00
3ac0
e670
0600
ENDCHAR
STARTCHAR 372b
ENCODING 14123
SWIDTH 960 0
DWIDTH 12 0
BBX 12 12 0 -2
BITMAP
33c0
3340
ebc0
6800
3770
6d50
ff70
3180
d7f0
d5c0
d6a0
35b0
ENDCHAR
STARTCHAR 372c
ENCODING 14124
SWIDTH 960 0
DWIDTH 12 0
BBX 12 12 0 -2
BITMAP
3fc0
1980
0f00
39c0
ffe0
6d60
3ac0
ef60
fff0
0f00
3ac0
e670
ENDCHAR
STARTCHAR 372d
ENCODING 14125
SWIDTH 960 0
DWIDTH 12 0
BBX 12 12 0 -2
BITMAP
31a0
3760
6b60
6d68
fbe8
3370
fb60
37a0
d550
7b50
3db0
e318
ENDCHAR
STARTCHAR 372e
ENCODING 14126
SWIDTH 960 0
DWIDTH 12 0
BBX 12 12 0 -2
BITMAP
7e80
1980
fff0
6ab0
7eb0
6ab0
7eb0
1b30
fee0
60c0
6b60
cdb0
ENDCHAR
STARTCHAR 372f
ENCODING 14127
SWIDTH 960 0
DWIDTH 12 0
BBX 12 12 0 -2
BITMAP
0000
7fc0
0cc0
fff0
0cc0
0cc0
7fc0
1800
3fc0
68c0
d8c0
1fc0
ENDCHAR
STARTCHAR 3730
ENCODING 14128
SWIDTH 960 0
DWIDTH 12 0
BBX 12 12 0 -2
BITMAP
1980
fff0
1980
7fe0
0600
fff0
36c0
3fc0
36c0
fff0
6b60
cdb0
ENDCHAR
STARTCHAR 3731
ENCODING 14129
SWIDTH 960 0
DWIDTH 12 0
BBX 12 12 0 -2
BITMAP
7b30
0350
fd50
0350
7b50
0350
7b50
0350
fb50
db50
da30
fa30
ENDCHAR
STARTCHAR 3732
ENCODING 14130
SWIDTH 960 0
DWIDTH 12 0
BBX 12 12 0 -2
BITMAP
0330
7ea0
37f0
ff40
36c0
7ff0
30c0
3ec0
77f0
76c0
d6c0
3ec0
ENDCHAR
STARTCHAR 3733
ENCODING 14131
SWIDTH 960 0
DWIDTH 12 0
BBX 12 12 0 -2
BITMAP
fff0
c630
dfd0
0600
7fe0
6660
7fe0
6660
7fe0
0600
fff0
0600
ENDCHAR
STARTCHAR 3734
ENCODING 14132
SWIDTH 960 0
DWIDTH 12 0
BBX 12 12 0 -2
BITMAP
0000
7ef0
36b0
ffa0
36c0
7ea0
31b0
3eb0
76b0
76e0
d680
3e80
ENDCHAR
STARTCHAR 3735
ENCODING 14133
SWIDTH 960 0
DWIDTH 12 0
BBX 12 12 0 -2
BITMAP
1980
1980
7e80
1980
fec0
19a0
19b0
7eb0
1980
1f80
f180
0180
ENDCHAR
STARTCHAR 3736
ENCODING 14134
SWIDTH 960 0
DWIDTH 12 0
BBX 12 12 0 -2
BITMAP
3000
33e0
fd60
3560
3560
6de0
c000
fff0
1a60
3b40
eec0
3870
ENDCHAR
STARTCHAR 3737
ENCODING 14135
SWIDTH 960 0
DWIDTH 12 0
BBX 12 12 0 -2
BITMAP
3000
33e0
fd60
0d40
1b80
3340
7b60
d530
3330
3360
3300
3300
ENDCHAR
STARTCHAR 3738
ENCODING 14136
SWIDTH 960 0
DWIDTH 12 0
BBX 12 12 0 -2
BITMAP
18e0
1f80
1b60
36c0
3380
7360
d7d0
3180
36a0
36b0
35b0
3180
ENDCHAR
STARTCHAR 3739
ENCODING 14137
SWIDTH 960 0
DWIDTH 12 0
BBX 12 12 0 -2
BITMAP
3000
37f0
3180
6be0
6b60
ede0
6b60
6be0
6b60
6fe0
63a0
6e30
ENDCHAR
STARTCHAR 373a
ENCODING 14138
SWIDTH 960 0
DWIDTH 12 0
BBX 12 12 0 -2
BITMAP
0030
feb0
6db0
6db0
6db0
ffb0
6db0
6db0
6db0
6c30
6c30
cc70
ENDCHAR
STARTCHAR 373b
ENCODING 14139
SWIDTH 960 0
DWIDTH 12 0
BBX 12 12 0 -2
BITMAP
0000
3fc0
30c0
30c0
30c0
3fc0
0d00
0d00
0d00
1b30
3330
e1f0
ENDCHAR
STARTCHAR 373c
ENCODING 14140
SWIDTH 960 0
DWIDTH 12 0
BBX 12 12 0 -2
BITMAP
fd00
03f0
7d60
6ea0
7cc0
61a0
6730
c000
3fc0
30c0
30c0
3fc0
ENDCHAR
STARTCHAR 373d
ENCODING 14141
SWIDTH 960 0
DWIDTH 12 0
BBX 12 12 0 -2
BITMAP
0600
0600
3fe0
0600
0600
7ff0
0600
0600
7fe0
0600
0600
fff0
ENDCHAR
STARTCHAR 373e
ENCODING 14142
SWIDTH 960 0
DWIDTH 12 0
BBX 12 12 0 -2
BITMAP
0180
f980
37e0
3180
f980
37f0
3180
3180
3fe0
f180
0180
1ff0
ENDCHAR
STARTCHAR 373f
ENCODING 14143
SWIDTH 960 0
DWIDTH 12 0
BBX 12 12 0 -2
BITMAP
0030
7fb0
35b0
35b0
ffb0
35b0
6c30
c670
3fc0
0600
0600
fff0
ENDCHAR
STARTCHAR 3740
ENCODING 14144
SWIDTH 960 0
DWIDTH 12 0
BBX 12 12 0 -2
BITMAP
1800
7df0
19b0
7eb0
19b0
1d30
f6e0
0600
fff0
0d00
39c0
e070
ENDCHAR
STARTCHAR 3741
ENCODING 14145
SWIDTH 960 0
DWIDTH 12 0
BBX 12 12 0 -2
BITMAP
00c0
fec0
6d80
6da0
6d60
fec0
6cc0
6db0
6c30
6c60
6cc0
cd80
ENDCHAR
STARTCHAR 3742
ENCODING 14146
SWIDTH 960 0
DWIDTH 12 0
BBX 12 12 0 -2
BITMAP
3000
37e0
6860
db40
3180
3340
76b0
d180
37e0
3180
3180
3ff0
ENDCHAR
STARTCHAR 3743
ENCODING 14147
SWIDTH 960 0
DWIDTH 12 0
BBX 12 12 0 -2
BITMAP
0600
fff0
0600
3fe0
3660
3fe0
3660
3fe0
1a00
6b60
d8d0
0fc0
ENDCHAR
STARTCHAR 3744
ENCODING 14148
SWIDTH 960 0
DWIDTH 12 0
BBX 12 12 0 -2
BITMAP
0600
7ff0
6d80
7fe0
6da0
7ff0
6d60
77d0
6db0
db00
cdc0
7870
ENDCHAR
STARTCHAR 3745
ENCODING 14149
SWIDTH 960 0
DWIDTH 12 0
BBX 12 12 0 -2
BITMAP
fde0
3180
ffe0
3180
7fe0
00c0
7fc0
00c0
7fc0
6a60
db50
0fc0
ENDCHAR
STARTCHAR 3746
ENCODING 14150
SWIDTH 960 0
DWIDTH 12 0
BBX 12 12 0 -2
BITMAP
1d80
f3e0
3360
fde0
3360
7de0
6d60
7de0
1a00
6b60
d8d0
0fc0
ENDCHAR
STARTCHAR 3747
ENCODING 14151
SWIDTH 960 0
DWIDTH 12 0
BBX 12 12 0 -2
BITMAP
37e0
3660
37e0
fa60
37e0
3300
3bf0
f630
3bd0
3630
33d0
70e0
ENDCHAR
STARTCHAR 3748
ENCODING 14152
SWIDTH 960 0
DWIDTH 12 0
BBX 12 12 0 -2
BITMAP
3660
37f0
36c0
fbf0
36c0
37f0
3ac0
f7f0
3360
3370
3630
74e0
ENDCHAR
STARTCHAR 3749
ENCODING 14153
SWIDTH 960 0
DWIDTH 12 0
BBX 12 12 0 -2
BITMAP
3580
fe80
35f0
3360
7f60
66a0
faa0
6ac0
6ac0
7ac0
0760
1c30
ENDCHAR
STARTCHAR 374a
ENCODING 14154
SWIDTH 960 0
DWIDTH 12 0
BBX 12 12 0 -2
BITMAP
3fc0
30c0
3fc0
30c0
fff0
0000
3fc0
30c0
3fc0
0680
36c0
ee60
ENDCHAR
STARTCHAR 374b
ENCODING 14155
SWIDTH 960 0
DWIDTH 12 0
BBX 12 12 0 -2
BITMAP
3180
3180
37e0
fd80
3180
77f0
7980
7580
d7e0
d180
3180
37f0
ENDCHAR
STARTCHAR 374c
ENCODING 14156
SWIDTH 960 0
DWIDTH 12 0
BBX 12 12 0 -2
BITMAP
63e0
3e60
1b60
cd40
6d40
0fe0
0300
3ff0
6300
6380
c6c0
dc70
ENDCHAR
STARTCHAR 374d
ENCODING 14157
SWIDTH 960 0
DWIDTH 12 0
BBX 12 12 0 -2
BITMAP
0180
fd80
d7e0
d580
d580
fff0
d580
d580
d7e0
fd80
0180
0ff0
ENDCHAR
STARTCHAR 374e
ENCODING 14158
SWIDTH 960 0
DWIDTH 12 0
BBX 12 12 0 -2
BITMAP
1b60
f7f0
3380
36f0
fe60
37c0
7a30
77f0
d660
d7e0
3660
37e0
ENDCHAR
STARTCHAR 374f
ENCODING 14159
SWIDTH 960 0
DWIDTH 12 0
BBX 12 12 0 -2
BITMAP
01e0
7f00
06c0
3580
1b00
0ec0
ffe0
0630
3680
36c0
6660
0600
ENDCHAR
STARTCHAR 3750
ENCODING 14160
SWIDTH 960 0
DWIDTH 12 0
BBX 12 12 0 -2
BITMAP
3000
37e0
eb60
69c0
3340
6a70
fd80
3180
dbe0
d580
d180
37f0
ENDCHAR
STARTCHAR 3751
ENCODING 14161
SWIDTH 960 0
DWIDTH 12 0
BBX 12 12 0 -2
BITMAP
36c0
36c0
eb50
6ae0
37f0
6ac0
fee0
36e0
db50
d6c0
d6c0
37f0
ENDCHAR
STARTCHAR 3752
ENCODING 14162
SWIDTH 960 0
DWIDTH 12 0
BBX 12 12 0 -2
BITMAP
fdc0
3350
fef0
d7e0
fd60
31c0
ff70
3b40
0e80
fff0
1a80
76e0
ENDCHAR
STARTCHAR 3753
ENCODING 14163
SWIDTH 960 0
DWIDTH 12 0
BBX 12 12 0 -2
BITMAP
0000
7fe0
6d60
7fe0
1980
7e80
19c0
ffa0
19b0
7e80
1e80
f980
ENDCHAR
STARTCHAR 3754
ENCODING 14164
SWIDTH 960 0
DWIDTH 12 0
BBX 12 12 0 -2
BITMAP
1980
fff0
1980
7fc0
1b80
0e00
3b80
e6f0
3fc0
0600
0600
fff0
ENDCHAR
STARTCHAR 3755
ENCODING 14165
SWIDTH 960 0
DWIDTH 12 0
BBX 12 12 0 -2
BITMAP
1b00
fff0
1b00
0060
ff60
3560
3560
ff60
3560
6d60
6c60
cce0
ENDCHAR
STARTCHAR 3756
ENCODING 14166
SWIDTH 960 0
DWIDTH 12 0
BBX 12 12 0 -2
BITMAP
6cc0
36c0
3680
fff0
c630
dfd0
36c0
36c0
3fc0
0660
07f0
fc30
ENDCHAR
STARTCHAR 3757
ENCODING 14167
SWIDTH 960 0
DWIDTH 12 0
BBX 12 12 0 -2
BITMAP
7980
0180
fd80
0180
7ff0
0180
7980
0180
f980
d980
d980
f980
ENDCHAR
STARTCHAR 3758
ENCODING 14168
SWIDTH 960 0
DWIDTH 12 0
BBX 12 12 0 -2
BITMAP
7a00
06e0
ff80
0630
7bf0
0000
7be0
0660
fbe0
da60
da60
fbe0
ENDCHAR
STARTCHAR 3759
ENCODING 14169
SWIDTH 960 0
DWIDTH 12 0
BBX 12 12 0 -2
BITMAP
3580
fef8
6730
faa0
6ae0
7bb8
0e00
7ff0
0f80
3fe0
3060
3fe0
ENDCHAR
STARTCHAR 375a
ENCODING 14170
SWIDTH 960 0
DWIDTH 12 0
BBX 12 12 0 -2
BITMAP
3000
fdf0
3030
fda0
d4c0
fdb0
d4c0
fcc0
33f0
fcc0
30c0
37f8
ENDCHAR
STARTCHAR 375b
ENCODING 14171
SWIDTH 960 0
DWIDTH 12 0
BBX 12 12 0 -2
BITMAP
0000
fdf0
0d80
6bf0
3b30
6df0
d330
7df0
3330
35f0
39a0
e730
ENDCHAR
STARTCHAR 375c
ENCODING 14172
SWIDTH 960 0
DWIDTH 12 0
BBX 12 12 0 -2
BITMAP
1d00
f7e0
0660
d7e0
d600
07e0
fe00
37f0
fc30
3350
6a30
c0e0
ENDCHAR
STARTCHAR 375d
ENCODING 14173
SWIDTH 960 0
DWIDTH 12 0
BBX 12 12 0 -2
BITMAP
1980
fff0
1980
1980
7fe0
0000
fff0
0600
0d80
1bc0
7e60
0060
ENDCHAR
STARTCHAR 375e
ENCODING 14174
SWIDTH 960 0
DWIDTH 12 0
BBX 12 12 0 -2
BITMAP
0000
6300
36f0
0db0
0db0
f5b0
35b0
37b0
35e0
3180
6d80
c7f8
ENDCHAR
STARTCHAR 375f
ENCODING 14175
SWIDTH 960 0
DWIDTH 12 0
BBX 12 12 0 -2
BITMAP
3180
3ff0
6800
fde0
d560
fd60
d5e0
fcc0
1b60
7550
6ad0
c1c0
ENDCHAR
STARTCHAR 3760
ENCODING 14176
SWIDTH 960 0
DWIDTH 12 0
BBX 12 12 0 -2
BITMAP
1e30
19b0
7eb0
76b0
7db0
61b0
7eb0
6bb0
76b0
6e30
d530
1870
ENDCHAR
STARTCHAR 3761
ENCODING 14177
SWIDTH 960 0
DWIDTH 12 0
BBX 12 12 0 -2
BITMAP
3180
fdc0
31a0
fdf0
cf80
fda0
cda0
fdc0
30c0
fdd0
3370
3630
ENDCHAR
STARTCHAR 3762
ENCODING 14178
SWIDTH 960 0
DWIDTH 12 0
BBX 12 12 0 -2
BITMAP
19e0
fea0
6aa8
7ff8
6aa0
fee0
1b38
3fc0
0300
fff0
0300
0700
ENDCHAR
STARTCHAR 3763
ENCODING 14179
SWIDTH 960 0
DWIDTH 12 0
BBX 12 12 0 -2
BITMAP
6d80
3e80
1af0
dea0
6b60
1f60
0da0
3f40
6cc0
6ea0
db60
d630
ENDCHAR
STARTCHAR 3764
ENCODING 14180
SWIDTH 960 0
DWIDTH 12 0
BBX 12 12 0 -2
BITMAP
0180
f6a0
d5b0
d7e0
ec60
d7e0
d460
d7e0
e6a0
cdb0
d9b0
c380
ENDCHAR
STARTCHAR 3765
ENCODING 14181
SWIDTH 960 0
DWIDTH 12 0
BBX 12 12 0 -2
BITMAP
3300
36e0
3400
fb00
36f0
76c0
7ac0
76c0
d6c0
d6c0
36c0
36c0
ENDCHAR
STARTCHAR 3766
ENCODING 14182
SWIDTH 960 0
DWIDTH 12 0
BBX 12 12 0 -2
BITMAP
3460
3660
3af0
6ea0
67f0
ec60
7b60
6ff0
6780
6d40
6b70
6300
ENDCHAR
STARTCHAR 3767
ENCODING 14183
SWIDTH 960 0
DWIDTH 12 0
BBX 12 12 0 -2
BITMAP
1800
1800
1800
1ff0
3660
36c0
6600
0700
0d00
1980
30c0
e070
ENDCHAR
STARTCHAR 3768
ENCODING 14184
SWIDTH 960 0
DWIDTH 12 0
BBX 12 12 0 -2
BITMAP
6300
3300
1fe0
c360
6360
0360
3ff8
3380
6680
66c0
cc60
d830
ENDCHAR
STARTCHAR 3769
ENCODING 14185
SWIDTH 960 0
DWIDTH 12 0
BBX 12 12 0 -2
BITMAP
6df0
3f50
0cd0
3ed0
cfb0
7b60
1e80
3760
6fd0
6d40
db60
c300
ENDCHAR
STARTCHAR 376a
ENCODING 14186
SWIDTH 960 0
DWIDTH 12 0
BBX 12 12 0 -2
BITMAP
0600
0600
fff0
c030
c030
1b80
1980
1980
30c0
30c0
6060
c030
ENDCHAR
STARTCHAR 376b
ENCODING 14187
SWIDTH 960 0
DWIDTH 12 0
BBX 12 12 0 -2
BITMAP
3180
3180
eff0
6980
3180
6be0
fc00
37e0
da60
d660
d660
37e0
ENDCHAR
STARTCHAR 376c
ENCODING 14188
SWIDTH 960 0
DWIDTH 12 0
BBX 12 12 0 -2
BITMAP
0c00
0c00
1800
7fe0
6d60
6d60
6d60
6d60
6d60
6d60
fff0
0000
ENDCHAR
STARTCHAR 376d
ENCODING 14189
SWIDTH 960 0
DWIDTH 12 0
BBX 12 12 0 -2
BITMAP
7b00
0300
fb00
0fe0
7b60
0360
7ff0
0300
fb80
dac0
dc60
f830
ENDCHAR
STARTCHAR 376e
ENCODING 14190
SWIDTH 960 0
DWIDTH 12 0
BBX 12 12 0 -2
BITMAP
0000
1fe0
1860
1860
1fe0
1860
1860
1fe0
1860
3060
3060
60e0
ENDCHAR
STARTCHAR 376f
ENCODING 14191
SWIDTH 960 0
DWIDTH 12 0
BBX 12 12 0 -2
BITMAP
1980
1a80
1a80
37e0
3580
7980
dff0
3180
3180
3180
3180
3180
ENDCHAR
STARTCHAR 3770
ENCODING 14192
SWIDTH 960 0
DWIDTH 12 0
BBX 12 12 0 -2
BITMAP
1980
1b40
1a60
35d0
3998
77f0
d5b0
37f0
3380
3340
3660
3430
ENDCHAR
STARTCHAR 3771
ENCODING 14193
SWIDTH 960 0
DWIDTH 12 0
BBX 12 12 0 -2
BITMAP
3360
3540
3fe0
6300
6ff0
e680
6cc0
6fa0
71b0
6f80
6c60
67e0
ENDCHAR
STARTCHAR 3772
ENCODING 14194
SWIDTH 960 0
DWIDTH 12 0
BBX 12 12 0 -2
BITMAP
30c0
33f0
3ed0
67f8
6cd0
eff0
66c0
6bf0
6ec0
67f0
6d40
69f8
ENDCHAR
STARTCHAR 3773
ENCODING 14195
SWIDTH 960 0
DWIDTH 12 0
BBX 12 12 0 -2
BITMAP
1980
fff0
0d00
7fe0
0d60
fff0
0d60
7fe0
1d80
3540
ed70
0d00
ENDCHAR
STARTCHAR 3774
ENCODING 14196
SWIDTH 960 0
DWIDTH 12 0
BBX 12 12 0 -2
BITMAP
36c0
1ac0
1a80
7fe0
0d00
fff0
1980
3fc0
edb0
0d80
1980
3700
ENDCHAR
STARTCHAR 3775
ENCODING 14197
SWIDTH 960 0
DWIDTH 12 0
BBX 12 12 0 -2
BITMAP
1830
35b0
66b0
ddb0
19b0
7eb0
6ab0
7eb0
1db0
1a30
3330
e070
ENDCHAR
STARTCHAR 3776
ENCODING 14198
SWIDTH 960 0
DWIDTH 12 0
BBX 12 12 0 -2
BITMAP
0180
fff0
d830
d7e0
d000
d7e0
d460
d7e0
f460
0fe0
0000
1ff0
ENDCHAR
STARTCHAR 3777
ENCODING 14199
SWIDTH 960 0
DWIDTH 12 0
BBX 12 12 0 -2
BITMAP
0000
fff0
dab0
dfd0
c630
fff0
dfb0
f370
df30
d9b0
cfb0
fff0
ENDCHAR
STARTCHAR 3778
ENCODING 14200
SWIDTH 960 0
DWIDTH 12 0
BBX 12 12 0 -2
BITMAP
0000
fdf0
d030
fd60
cda0
fcc0
d1a0
ff30
0600
3fc0
0600
fff0
ENDCHAR
STARTCHAR 3779
ENCODING 14201
SWIDTH 960 0
DWIDTH 12 0
BBX 12 12 0 -2
BITMAP
6cc0
6ff0
6680
ffe0
6aa0
6ff0
6aa0
dfe0
fa80
36c0
6ab0
c680
ENDCHAR
STARTCHAR 377a
ENCODING 14202
SWIDTH 960 0
DWIDTH 12 0
BBX 12 12 0 -2
BITMAP
0180
7be0
19a0
37f0
61a0
7be0
1980
6be0
3180
3bf0
6e80
c3f8
ENDCHAR
STARTCHAR 377b
ENCODING 14203
SWIDTH 960 0
DWIDTH 12 0
BBX 12 12 0 -2
BITMAP
0600
fff0
c630
dfd0
0600
fff0
6d60
7fe0
6a00
6b60
d8d0
0fc0
ENDCHAR
STARTCHAR 377c
ENCODING 14204
SWIDTH 960 0
DWIDTH 12 0
BBX 12 12 0 -2
BITMAP
3de0
d780
dda0
d740
dda0
c7f0
fd80
36a0
d6b0
1b60
68d0
cfd0
ENDCHAR
STARTCHAR 377d
ENCODING 14205
SWIDTH 960 0
DWIDTH 12 0
BBX 12 12 0 -2
BITMAP
36c0
1a80
7fe0
0d00
fff0
3740
ee70
3fc0
0600
7fe0
0600
0e00
ENDCHAR
STARTCHAR 377e
ENCODING 14206
SWIDTH 960 0
DWIDTH 12 0
BBX 12 12 0 -2
BITMAP
35b0
36a0
37e0
f980
37f0
3340
3a60
f5d8
30c0
37c0
3660
73e0
ENDCHAR
STARTCHAR 3821
ENCODING 14369
SWIDTH 960 0
DWIDTH 12 0
BBX 12 12 0 -2
BITMAP
3180
3340
3660
ffd0
3180
77e0
7da0
77e0
d180
d340
3660
3c30
ENDCHAR
STARTCHAR 3822
ENCODING 14370
SWIDTH 960 0
DWIDTH 12 0
BBX 12 12 0 -2
BITMAP
3600
37e0
3580
fbf0
3340
3bf0
7680
7be0
d680
d7e0
3680
37f0
ENDCHAR
STARTCHAR 3823
ENCODING 14371
SWIDTH 960 0
DWIDTH 12 0
BBX 12 12 0 -2
BITMAP
0600
fff0
0680
1d00
fff0
cdb0
df50
3600
3fc0
6600
fff0
0600
ENDCHAR
STARTCHAR 3824
ENCODING 14372
SWIDTH 960 0
DWIDTH 12 0
BBX 12 12 0 -2
BITMAP
0600
06c0
0660
0600
fff0
0600
0d00
0d00
1980
1980
30c0
e070
ENDCHAR
STARTCHAR 3825
ENCODING 14373
SWIDTH 960 0
DWIDTH 12 0
BBX 12 12 0 -2
BITMAP
18c0
fee0
18d0
fec0
eff0
dac0
fec0
daa0
fea0
dab0
db30
da18
ENDCHAR
STARTCHAR 3826
ENCODING 14374
SWIDTH 960 0
DWIDTH 12 0
BBX 12 12 0 -2
BITMAP
0000
fff0
3360
3360
6360
7ff0
ed60
6d60
6d60
7e60
0660
0c60
ENDCHAR
STARTCHAR 3827
ENCODING 14375
SWIDTH 960 0
DWIDTH 12 0
BBX 12 12 0 -2
BITMAP
0000
ffe0
3660
37e0
6660
7be0
ea60
6be0
6b40
6b40
7ad0
0c70
ENDCHAR
STARTCHAR 3828
ENCODING 14376
SWIDTH 960 0
DWIDTH 12 0
BBX 12 12 0 -2
BITMAP
33f0
6330
dbf0
7000
6df0
fd30
35f0
db30
d5f0
d530
d330
3370
ENDCHAR
STARTCHAR 3829
ENCODING 14377
SWIDTH 960 0
DWIDTH 12 0
BBX 12 12 0 -2
BITMAP
0000
1fc0
d8c0
dfc0
d8c0
dfc0
d8c0
dfc0
c000
fff0
36c0
e670
ENDCHAR
STARTCHAR 382a
ENCODING 14378
SWIDTH 960 0
DWIDTH 12 0
BBX 12 12 0 -2
BITMAP
0000
7ff0
0000
7ff0
6030
7ff0
6860
6fe0
6860
6fe0
d860
18e0
ENDCHAR
STARTCHAR 382b
ENCODING 14379
SWIDTH 960 0
DWIDTH 12 0
BBX 12 12 0 -2
BITMAP
0000
3fc0
30c0
3fc0
30c0
3fc0
30c0
3fc0
0d00
1b30
3330
e1f0
ENDCHAR
STARTCHAR 382c
ENCODING 14380
SWIDTH 960 0
DWIDTH 12 0
BBX 12 12 0 -2
BITMAP
f660
0ff0
fb40
0ff0
f350
0ff8
f350
0ff0
fb40
db60
dd50
fb40
ENDCHAR
STARTCHAR 382d
ENCODING 14381
SWIDTH 960 0
DWIDTH 12 0
BBX 12 12 0 -2
BITMAP
fff0
d360
fdc0
cda0
ff30
3fc0
30c0
3fc0
30c0
3fc0
1dc0
f070
ENDCHAR
STARTCHAR 382e
ENCODING 14382
SWIDTH 960 0
DWIDTH 12 0
BBX 12 12 0 -2
BITMAP
3000
fdf0
30c0
fcc0
d4c0
fff0
d4c0
fcc0
30c0
fec0
30c0
30c0
ENDCHAR
STARTCHAR 382f
ENCODING 14383
SWIDTH 960 0
DWIDTH 12 0
BBX 12 12 0 -2
BITMAP
0300
6fe0
3560
1ff0
0000
f7c0
34c0
37e0
3460
37e0
6c00
c7f8
ENDCHAR
STARTCHAR 3830
ENCODING 14384
SWIDTH 960 0
DWIDTH 12 0
BBX 12 12 0 -2
BITMAP
30c0
3bf0
6ed0
c7f8
7ad0
35f0
ff40
35f0
db40
73f0
3ac0
ecf8
ENDCHAR
STARTCHAR 3831
ENCODING 14385
SWIDTH 960 0
DWIDTH 12 0
BBX 12 12 0 -2
BITMAP
f300
d680
d4c0
dfb0
e300
dfe0
db60
dfe0
e300
c680
ccc0
d860
ENDCHAR
STARTCHAR 3832
ENCODING 14386
SWIDTH 960 0
DWIDTH 12 0
BBX 12 12 0 -2
BITMAP
0000
fdf0
cd80
fdf0
cd30
fdf0
6b30
ebf0
ed30
6bf0
6da0
f730
ENDCHAR
STARTCHAR 3833
ENCODING 14387
SWIDTH 960 0
DWIDTH 12 0
BBX 12 12 0 -2
BITMAP
0180
fd40
d660
ffd0
d180
fbe0
d6a0
ffe0
3580
d5c0
cd60
3a30
ENDCHAR
STARTCHAR 3834
ENCODING 14388
SWIDTH 960 0
DWIDTH 12 0
BBX 12 12 0 -2
BITMAP
3180
3d40
3660
ffd0
cd80
efe0
dea0
d7e0
f580
edc0
cd60
fe30
ENDCHAR
STARTCHAR 3835
ENCODING 14389
SWIDTH 960 0
DWIDTH 12 0
BBX 12 12 0 -2
BITMAP
0000
1fc0
0000
0000
7ff0
0d80
0d80
0d80
1980
19b0
31b0
60f0
ENDCHAR
STARTCHAR 3836
ENCODING 14390
SWIDTH 960 0
DWIDTH 12 0
BBX 12 12 0 -2
BITMAP
0000
3ff0
3300
37e0
3460
37e0
3460
37e0
6340
6b60
d330
0700
ENDCHAR
STARTCHAR 3837
ENCODING 14391
SWIDTH 960 0
DWIDTH 12 0
BBX 12 12 0 -2
BITMAP
3660
1b40
7ff0
6180
6f80
6df0
7f60
6aa0
6f40
6ae0
deb0
0730
ENDCHAR
STARTCHAR 3838
ENCODING 14392
SWIDTH 960 0
DWIDTH 12 0
BBX 12 12 0 -2
BITMAP
0000
37f0
3030
6030
ec30
3430
1830
3030
3430
6c30
fa30
06e0
ENDCHAR
STARTCHAR 3839
ENCODING 14393
SWIDTH 960 0
DWIDTH 12 0
BBX 12 12 0 -2
BITMAP
0180
f980
1ff0
1980
f9a0
cd60
fac0
1b40
19c0
1b60
37d0
e030
ENDCHAR
STARTCHAR 383a
ENCODING 14394
SWIDTH 960 0
DWIDTH 12 0
BBX 12 12 0 -2
BITMAP
60e0
30d0
1ff0
18c0
df50
68d0
1f60
3d40
6d60
6fa8
db38
d618
ENDCHAR
STARTCHAR 383b
ENCODING 14395
SWIDTH 960 0
DWIDTH 12 0
BBX 12 12 0 -2
BITMAP
6000
3ff0
1980
dbe0
6a60
1be0
1a60
3be0
69a0
6ab0
d5b0
e380
ENDCHAR
STARTCHAR 383c
ENCODING 14396
SWIDTH 960 0
DWIDTH 12 0
BBX 12 12 0 -2
BITMAP
0600
0600
fff0
0c00
0d80
1980
7b00
0e00
0680
0cc0
1fe0
f060
ENDCHAR
STARTCHAR 383d
ENCODING 14397
SWIDTH 960 0
DWIDTH 12 0
BBX 12 12 0 -2
BITMAP
07f0
fe30
37f0
3630
37f0
fe30
37f0
3340
3b40
e6d8
0cd8
3878
ENDCHAR
STARTCHAR 383e
ENCODING 14398
SWIDTH 960 0
DWIDTH 12 0
BBX 12 12 0 -2
BITMAP
3180
3180
ebf0
6980
31a0
6b60
fd40
3180
d9c0
d560
d7f0
3030
ENDCHAR
STARTCHAR 383f
ENCODING 14399
SWIDTH 960 0
DWIDTH 12 0
BBX 12 12 0 -2
BITMAP
30c0
7cc0
6ff0
7580
6da0
6f60
fd40
6d80
75a0
6d60
6fd0
dc30
ENDCHAR
STARTCHAR 3840
ENCODING 14400
SWIDTH 960 0
DWIDTH 12 0
BBX 12 12 0 -2
BITMAP
1f80
0000
fff0
0000
1f80
0000
1f80
0000
3fc0
30c0
30c0
3fc0
ENDCHAR
STARTCHAR 3841
ENCODING 14401
SWIDTH 960 0
DWIDTH 12 0
BBX 12 12 0 -2
BITMAP
7980
07f0
fd60
0360
7bf0
06c0
7bb0
0660
fac0
da30
dce0
fd80
ENDCHAR
STARTCHAR 3842
ENCODING 14402
SWIDTH 960 0
DWIDTH 12 0
BBX 12 12 0 -2
BITMAP
0000
f7c0
d4c0
d7c0
ecc0
d4c0
dfc0
dd60
f5c0
cd40
ce60
d830
ENDCHAR
STARTCHAR 3843
ENCODING 14403
SWIDTH 960 0
DWIDTH 12 0
BBX 12 12 0 -2
BITMAP
01c0
7f00
06c0
36c0
1a80
1a00
fff0
0600
0600
0600
0600
0e00
ENDCHAR
STARTCHAR 3844
ENCODING 14404
SWIDTH 960 0
DWIDTH 12 0
BBX 12 12 0 -2
BITMAP
3000
3ff0
3b30
6b30
6ff0
eb30
6bd0
6ad0
6ad0
6bd0
6830
6ff0
ENDCHAR
STARTCHAR 3845
ENCODING 14405
SWIDTH 960 0
DWIDTH 12 0
BBX 12 12 0 -2
BITMAP
0600
0600
0600
fff0
0600
0600
0600
3fc0
30c0
30c0
30c0
3fc0
ENDCHAR
STARTCHAR 3846
ENCODING 14406
SWIDTH 960 0
DWIDTH 12 0
BBX 12 12 0 -2
BITMAP
00e0
1f80
f360
db60
d540
d500
dff0
d300
f300
0300
0300
0700
ENDCHAR
STARTCHAR 3847
ENCODING 14407
SWIDTH 960 0
DWIDTH 12 0
BBX 12 12 0 -2
BITMAP
0000
7ff0
6630
6630
7ff0
6630
6fd0
68d0
68d0
6fd0
6030
7ff0
ENDCHAR
STARTCHAR 3848
ENCODING 14408
SWIDTH 960 0
DWIDTH 12 0
BBX 12 12 0 -2
BITMAP
6180
6180
6980
fff0
6980
6980
6980
dbe0
fa60
3660
6660
c7e0
ENDCHAR
STARTCHAR 3849
ENCODING 14409
SWIDTH 960 0
DWIDTH 12 0
BBX 12 12 0 -2
BITMAP
0070
fbe0
1aa0
36a0
36a0
36a0
3aa0
f6a0
36a0
36b0
36b0
75e8
ENDCHAR
STARTCHAR 384a
ENCODING 14410
SWIDTH 960 0
DWIDTH 12 0
BBX 12 12 0 -2
BITMAP
0000
7fc0
00c0
00c0
00c0
7fc0
6000
6000
6060
6060
6060
3fe0
ENDCHAR
STARTCHAR 384b
ENCODING 14411
SWIDTH 960 0
DWIDTH 12 0
BBX 12 12 0 -2
BITMAP
0300
7ff0
6300
7ff0
6b60
6fe0
6b60
6fe0
6300
dff0
c300
0300
ENDCHAR
STARTCHAR 384c
ENCODING 14412
SWIDTH 960 0
DWIDTH 12 0
BBX 12 12 0 -2
BITMAP
0070
fbc0
1aa0
1aa0
faa0
c6a0
faa0
1aa0
1ad0
1db0
35f0
eb68
ENDCHAR
STARTCHAR 384d
ENCODING 14413
SWIDTH 960 0
DWIDTH 12 0
BBX 12 12 0 -2
BITMAP
0000
7ff0
0000
3fe0
3060
3060
3fe0
3000
3000
6000
6000
c000
ENDCHAR
STARTCHAR 384e
ENCODING 14414
SWIDTH 960 0
DWIDTH 12 0
BBX 12 12 0 -2
BITMAP
3180
3180
3300
fdf0
3660
3560
7d60
6dc0
6cc0
6dc0
7d60
0e30
ENDCHAR
STARTCHAR 384f
ENCODING 14415
SWIDTH 960 0
DWIDTH 12 0
BBX 12 12 0 -2
BITMAP
3180
3180
3180
fff0
3180
7180
7980
77e0
d660
d660
3660
37e0
ENDCHAR
STARTCHAR 3850
ENCODING 14416
SWIDTH 960 0
DWIDTH 12 0
BBX 12 12 0 -2
BITMAP
cc00
6df0
0db0
3fb0
cdf0
6db0
1fb0
3bf0
6bb0
6fb0
c330
c670
ENDCHAR
STARTCHAR 3851
ENCODING 14417
SWIDTH 960 0
DWIDTH 12 0
BBX 12 12 0 -2
BITMAP
d0e0
7780
6d40
d540
3540
3540
7540
d540
3540
35a0
35e0
eb30
ENDCHAR
STARTCHAR 3852
ENCODING 14418
SWIDTH 960 0
DWIDTH 12 0
BBX 12 12 0 -2
BITMAP
36f0
dad0
7fd0
36d0
faf0
36d0
7750
7d70
d550
d750
31b0
3370
ENDCHAR
STARTCHAR 3853
ENCODING 14419
SWIDTH 960 0
DWIDTH 12 0
BBX 12 12 0 -2
BITMAP
3180
3180
fbf0
1b40
37e0
3430
7fe0
d500
33e0
3060
3060
31c0
ENDCHAR
STARTCHAR 3854
ENCODING 14420
SWIDTH 960 0
DWIDTH 12 0
BBX 12 12 0 -2
BITMAP
03c0
7d40
6d40
6d50
7e70
6c00
6fe0
7c60
6d40
6d80
6d40
de70
ENDCHAR
STARTCHAR 3855
ENCODING 14421
SWIDTH 960 0
DWIDTH 12 0
BBX 12 12 0 -2
BITMAP
0000
33f0
3330
ff30
33f0
3330
7d30
6df0
6d30
6d30
7d30
0670
ENDCHAR
STARTCHAR 3856
ENCODING 14422
SWIDTH 960 0
DWIDTH 12 0
BBX 12 12 0 -2
BITMAP
1b00
ffe0
1b00
00e0
ffc0
1d40
3540
3d40
f540
3560
3560
7bd0
ENDCHAR
STARTCHAR 3857
ENCODING 14423
SWIDTH 960 0
DWIDTH 12 0
BBX 12 12 0 -2
BITMAP
0600
07c0
0600
3ff0
3460
3fc0
3400
37e0
3680
66b0
6db0
d8f0
ENDCHAR
STARTCHAR 3858
ENCODING 14424
SWIDTH 960 0
DWIDTH 12 0
BBX 12 12 0 -2
BITMAP
7180
0ff0
fb40
0660
f5d0
0000
f7e0
0300
fbe0
d860
d860
f9c0
ENDCHAR
STARTCHAR 3859
ENCODING 14425
SWIDTH 960 0
DWIDTH 12 0
BBX 12 12 0 -2
BITMAP
0180
fbf0
d980
db40
fbe0
3430
d7f0
dd00
d3e0
d460
d860
e1c0
ENDCHAR
STARTCHAR 385a
ENCODING 14426
SWIDTH 960 0
DWIDTH 12 0
BBX 12 12 0 -2
BITMAP
3180
3180
6980
6ff0
f980
3180
fd80
37e0
da60
7660
3a60
e7e0
ENDCHAR
STARTCHAR 385b
ENCODING 14427
SWIDTH 960 0
DWIDTH 12 0
BBX 12 12 0 -2
BITMAP
0000
7ff0
0000
3fe0
3060
3fe0
34c0
3ff0
7580
6fe0
6d80
cff0
ENDCHAR
STARTCHAR 385c
ENCODING 14428
SWIDTH 960 0
DWIDTH 12 0
BBX 12 12 0 -2
BITMAP
0000
fdf0
00c0
fff0
c730
fff0
d530
dff0
f530
dff0
d5a0
3f30
ENDCHAR
STARTCHAR 385d
ENCODING 14429
SWIDTH 960 0
DWIDTH 12 0
BBX 12 12 0 -2
BITMAP
3180
fd80
37e0
f980
0180
ffe0
cc60
fe60
6d40
6980
3d40
e670
ENDCHAR
STARTCHAR 385e
ENCODING 14430
SWIDTH 960 0
DWIDTH 12 0
BBX 12 12 0 -2
BITMAP
0000
3fe0
0600
0600
0600
3fc0
06c0
06c0
0cc0
0cc0
0cc0
7ff0
ENDCHAR
STARTCHAR 385f
ENCODING 14431
SWIDTH 960 0
DWIDTH 12 0
BBX 12 12 0 -2
BITMAP
0000
7fe0
1800
1800
1f80
1980
3180
3180
7f00
0300
0300
fff0
ENDCHAR
STARTCHAR 3860
ENCODING 14432
SWIDTH 960 0
DWIDTH 12 0
BBX 12 12 0 -2
BITMAP
1800
1ff0
1b00
3300
3300
77c0
d340
36c0
36c0
36c0
36c0
3ff0
ENDCHAR
STARTCHAR 3861
ENCODING 14433
SWIDTH 960 0
DWIDTH 12 0
BBX 12 12 0 -2
BITMAP
1800
1800
1fe0
3300
6300
0300
fff0
0300
0300
0300
0300
0300
ENDCHAR
STARTCHAR 3862
ENCODING 14434
SWIDTH 960 0
DWIDTH 12 0
BBX 12 12 0 -2
BITMAP
1fc0
68c0
68c0
6fc0
6000
7fc0
60c0
00c0
fff0
1b00
31c0
e060
ENDCHAR
STARTCHAR 3863
ENCODING 14435
SWIDTH 960 0
DWIDTH 12 0
BBX 12 12 0 -2
BITMAP
7fe0
0c00
0c00
7fc0
18c0
18c0
fff0
0000
3fc0
30c0
30c0
3fc0
ENDCHAR
STARTCHAR 3864
ENCODING 14436
SWIDTH 960 0
DWIDTH 12 0
BBX 12 12 0 -2
BITMAP
63e0
6d60
6d60
fde0
6c00
6fe0
6860
d860
fff0
3540
6660
cc30
ENDCHAR
STARTCHAR 3865
ENCODING 14437
SWIDTH 960 0
DWIDTH 12 0
BBX 12 12 0 -2
BITMAP
3300
36c0
6d80
d740
3660
6fd0
e330
67c0
6ec0
6380
6740
7c70
ENDCHAR
STARTCHAR 3866
ENCODING 14438
SWIDTH 960 0
DWIDTH 12 0
BBX 12 12 0 -2
BITMAP
6800
68f0
dfd0
d6d0
3fd0
66d0
ebd0
6ad0
6ad0
6be0
7ec0
60c0
ENDCHAR
STARTCHAR 3867
ENCODING 14439
SWIDTH 960 0
DWIDTH 12 0
BBX 12 12 0 -2
BITMAP
3000
37f0
3180
37e0
7360
7b60
d7f8
3000
37e0
3660
3660
37e0
ENDCHAR
STARTCHAR 3868
ENCODING 14440
SWIDTH 960 0
DWIDTH 12 0
BBX 12 12 0 -2
BITMAP
3000
37f0
3180
ffe0
3360
7360
7ff0
7400
d7e0
d660
d660
37e0
ENDCHAR
STARTCHAR 3869
ENCODING 14441
SWIDTH 960 0
DWIDTH 12 0
BBX 12 12 0 -2
BITMAP
3180
3380
36c0
fee0
35b0
76e0
77e0
7980
d7f0
d5b0
37d0
3470
ENDCHAR
STARTCHAR 386a
ENCODING 14442
SWIDTH 960 0
DWIDTH 12 0
BBX 12 12 0 -2
BITMAP
0600
faf0
66b0
6fb0
66f0
f6b0
6fb0
6bf0
7bb0
efb0
0330
0670
ENDCHAR
STARTCHAR 386b
ENCODING 14443
SWIDTH 960 0
DWIDTH 12 0
BBX 12 12 0 -2
BITMAP
18c0
7ff0
18c0
1fc0
18c0
1fc0
18c0
fff8
1ac0
37e0
ecd8
0fc0
ENDCHAR
STARTCHAR 386c
ENCODING 14444
SWIDTH 960 0
DWIDTH 12 0
BBX 12 12 0 -2
BITMAP
7800
0fe0
fb00
0fc0
7ac0
06c0
7ff0
0000
fbe0
da60
da60
fbe0
ENDCHAR
STARTCHAR 386d
ENCODING 14445
SWIDTH 960 0
DWIDTH 12 0
BBX 12 12 0 -2
BITMAP
73e0
0d60
fd60
0de0
7c00
0fe0
7860
0060
fff0
db40
db60
fa30
ENDCHAR
STARTCHAR 386e
ENCODING 14446
SWIDTH 960 0
DWIDTH 12 0
BBX 12 12 0 -2
BITMAP
7340
0ff0
fb40
07f0
7b40
0df0
7b40
07f0
fa60
dbc0
db40
fe70
ENDCHAR
STARTCHAR 386f
ENCODING 14447
SWIDTH 960 0
DWIDTH 12 0
BBX 12 12 0 -2
BITMAP
0300
fd70
6bd0
6b70
fd50
d7d0
edd0
cdf0
fdd0
cfb0
fdb0
0370
ENDCHAR
STARTCHAR 3870
ENCODING 14448
SWIDTH 960 0
DWIDTH 12 0
BBX 12 12 0 -2
BITMAP
1800
1800
3ff0
3000
6fc0
c180
0300
0e00
1800
3030
3030
1ff0
ENDCHAR
STARTCHAR 3871
ENCODING 14449
SWIDTH 960 0
DWIDTH 12 0
BBX 12 12 0 -2
BITMAP
3000
3df0
6b50
fdf0
d550
fd50
d5f0
fcc0
1bf0
74c0
68c0
c7f0
ENDCHAR
STARTCHAR 3872
ENCODING 14450
SWIDTH 960 0
DWIDTH 12 0
BBX 12 12 0 -2
BITMAP
0600
0600
fff0
1980
18c0
31a0
6980
0d00
0600
0d00
39c0
e070
ENDCHAR
STARTCHAR 3873
ENCODING 14451
SWIDTH 960 0
DWIDTH 12 0
BBX 12 12 0 -2
BITMAP
1980
1980
1ff0
3340
3660
76d0
d6c0
3340
3180
3340
3660
3c30
ENDCHAR
STARTCHAR 3874
ENCODING 14452
SWIDTH 960 0
DWIDTH 12 0
BBX 12 12 0 -2
BITMAP
1800
1be0
1860
37f0
3600
77f0
d580
3980
37f0
3340
3660
3c30
ENDCHAR
STARTCHAR 3875
ENCODING 14453
SWIDTH 960 0
DWIDTH 12 0
BBX 12 12 0 -2
BITMAP
3000
37e0
3060
6ff0
6a00
ebe0
6d80
6980
6ff0
6b40
6660
6c30
ENDCHAR
STARTCHAR 3876
ENCODING 14454
SWIDTH 960 0
DWIDTH 12 0
BBX 12 12 0 -2
BITMAP
1980
1980
1fe0
3180
3ff0
7660
d7f0
3180
37e0
3180
3180
3180
ENDCHAR
STARTCHAR 3877
ENCODING 14455
SWIDTH 960 0
DWIDTH 12 0
BBX 12 12 0 -2
BITMAP
0600
66c0
36c0
3680
0600
7ff0
0d00
0d00
1b00
1b30
3330
e1f0
ENDCHAR
STARTCHAR 3878
ENCODING 14456
SWIDTH 960 0
DWIDTH 12 0
BBX 12 12 0 -2
BITMAP
1980
1980
1980
30c0
3660
6630
c600
0d80
0cc0
1bc0
7c60
0060
ENDCHAR
STARTCHAR 3879
ENCODING 14457
SWIDTH 960 0
DWIDTH 12 0
BBX 12 12 0 -2
BITMAP
0180
0180
f980
37f0
31b0
31b0
31b0
35b0
3b30
e330
0630
0ce0
ENDCHAR
STARTCHAR 387a
ENCODING 14458
SWIDTH 960 0
DWIDTH 12 0
BBX 12 12 0 -2
BITMAP
1980
1980
fe80
37f0
6db0
ceb0
35b0
19b0
1b30
3530
6630
cce0
ENDCHAR
STARTCHAR 387b
ENCODING 14459
SWIDTH 960 0
DWIDTH 12 0
BBX 12 12 0 -2
BITMAP
3000
3000
3ff0
3630
6630
6630
cd30
0db0
1bd0
7cd0
0030
00e0
ENDCHAR
STARTCHAR 387c
ENCODING 14460
SWIDTH 960 0
DWIDTH 12 0
BBX 12 12 0 -2
BITMAP
0000
7ff0
68c0
6fc0
68c0
6fc0
6000
6fc0
6180
7ff0
c300
0700
ENDCHAR
STARTCHAR 387d
ENCODING 14461
SWIDTH 960 0
DWIDTH 12 0
BBX 12 12 0 -2
BITMAP
0000
0000
7ff0
6030
6030
6030
6030
6030
6030
6030
7ff0
6030
ENDCHAR
STARTCHAR 387e
ENCODING 14462
SWIDTH 960 0
DWIDTH 12 0
BBX 12 12 0 -2
BITMAP
0600
0c00
1800
7ff0
6030
6030
6fb0
6db0
6db0
6fb0
6030
6070
ENDCHAR
STARTCHAR 3921
ENCODING 14625
SWIDTH 960 0
DWIDTH 12 0
BBX 12 12 0 -2
BITMAP
01e0
3f00
3000
3000
3ff0
3000
3000
37e0
6c60
6c60
cc60
0fe0
ENDCHAR
STARTCHAR 3922
ENCODING 14626
SWIDTH 960 0
DWIDTH 12 0
BBX 12 12 0 -2
BITMAP
0600
07e0
f660
d7f0
d580
ddf0
d540
d6c0
d7f0
f5c0
0d60
0e30
ENDCHAR
STARTCHAR 3923
ENCODING 14627
SWIDTH 960 0
DWIDTH 12 0
BBX 12 12 0 -2
BITMAP
0180
3180
37f0
3000
ffc0
36c0
36c0
36c0
3ac0
e6d0
0cd0
18f0
ENDCHAR
STARTCHAR 3924
ENCODING 14628
SWIDTH 960 0
DWIDTH 12 0
BBX 12 12 0 -2
BITMAP
3060
37c0
3600
fa00
37f0
3600
3600
37f0
3b30
ed30
0d30
1bf0
ENDCHAR
STARTCHAR 3925
ENCODING 14629
SWIDTH 960 0
DWIDTH 12 0
BBX 12 12 0 -2
BITMAP
3000
37e0
3060
fcc0
6980
6980
6ff0
d980
f980
3580
6180
c380
ENDCHAR
ENDFONT
